<ttFont>
          <CharString index="0">
            rmoveto
            221 -1 142 133 33 221 rrcurveto
            4 29 3 29 31 vvcurveto
            176 -115 91 -194 -219 -140 -131 -219 -35 vhcurveto
            -5 -30 -2 -30 -31 vvcurveto
            -178 114 -91 193 1 vhcurveto
            -1 108 rmoveto
            -114 -61 61 106 21 3 23 7 43 hvcurveto
            154 27 88 85 146 hhcurveto
            115 61 -62 -104 -23 -2 -22 -8 -43 hvcurveto
            -154 -26 -89 -85 -147 hhcurveto
            return
          </CharString>
          <CharString index="1">
            rmoveto
            167 91 91 162 27 hvcurveto
            4 28 2 27 28 vvcurveto
            -2 129 -92 86 -139 -1 rrcurveto
            -166 -91 -91 -162 -26 hvcurveto
            -5 -27 -2 -27 -28 vvcurveto
            2 -130 93 -86 137 1 rrcurveto
            9 99 rmoveto
            -78 -1 -44 43 -1 71 rrcurveto
            20 1 21 3 23 vhcurveto
            121 16 51 55 94 hhcurveto
            78 44 -42 -72 1 hvcurveto
            -20 -1 -21 -4 -23 vhcurveto
            -16 -121 -51 -55 -93 1 rrcurveto
            return
          </CharString>
          <CharString index="2">
            -107 callgsubr
            endchar
          </CharString>
          <CharString index="3">
            rmoveto
            178 108 87 179 32 hvcurveto
            76 432 -68 callsubr
            -76 -429 rlineto
            -106 -19 -69 -55 -102 hhcurveto
            -91 -47 42 79 13 3 20 2 10 hvcurveto
            75 426 -68 callsubr
            -74 -424 rlineto
            -4 -22 -2 -21 -20 vvcurveto
            -139 96 -72 170 vhcurveto
            return
          </CharString>
          <CharString index="4">
            rmoveto
            46 37 13 20 27 hvcurveto
            33 26 19 37 7 34 rrcurveto
            -80 hlineto
            -21 -7 -28 -29 -52 hhcurveto
            -53 -12 27 23 hvcurveto
            -80 hlineto
            -2 -8 0 -8 -8 vvcurveto
            -55 35 -51 110 vhcurveto
            return
          </CharString>
          <CharString index="5">
            rmoveto
            -46 callsubr
            65 72 -90 callsubr
            -108 hlineto
            return
          </CharString>
          <CharString index="6">
            rmoveto
            158 82 81 164 29 -10 callsubr
            -99 hlineto
            -22 -70 rlineto
            -7 hlineto
            55 -27 -57 27 -72 hhcurveto
            -168 -84 -165 -166 -134 77 -58 100 70 49 27 45 37 hvcurveto
            6 hlineto
            -5 -28 rlineto
            -96 -18 -50 -47 -78 hhcurveto
            -58 -33 16 43 -4 hvcurveto
            -117 -10 hlineto
            -98 1 84 -49 124 hhcurveto
            36 300 rmoveto
            -68 -29 30 65 100 37 122 120 65 32 -35 -66 -96 -43 -120 -114 hvcurveto
            endchar
          </CharString>
          <CharString index="7">
            541 -30 callsubr
            -414 hlineto
            33 187 rlineto
            364 hlineto
            19 109 rlineto
            -364 hlineto
            30 172 rlineto
            408 hlineto
            19 109 rlineto
            -535 hlineto
            return
          </CharString>
          <CharString index="8">
            rmoveto
            -23 -127 rlineto
            54 hlineto
            -19 -37 -32 -22 -48 -13 rrcurveto
            46 -54 -77 23 -98 hhcurveto
            -219 -140 -131 -219 -35 hvcurveto
            -5 -30 -2 -30 -31 vvcurveto
            -178 114 -91 193 1 vhcurveto
            221 -1 142 133 33 221 rrcurveto
            4 29 3 29 31 vvcurveto
            58 -13 49 -24 40 vhcurveto
            85 31 48 62 17 103 10 54 rcurveline
            -265 -492 rmoveto
            -154 -26 -89 -85 -147 hhcurveto
            -114 -61 61 106 21 3 23 7 43 hvcurveto
            154 27 88 85 146 hhcurveto
            115 61 -62 -104 -23 -2 -22 -8 -43 hvcurveto
            return
          </CharString>
          <CharString index="9">
            rmoveto
            -23 -127 rlineto
            54 hlineto
            -18 -36 -32 -22 -46 -13 rrcurveto
            32 -40 -54 18 -64 hhcurveto
            -166 -91 -91 -162 -26 hvcurveto
            -5 -27 -2 -27 -28 vvcurveto
            2 -130 93 -86 137 1 rrcurveto
            167 91 91 162 27 hvcurveto
            4 28 2 27 28 vvcurveto
            -1 43 -10 39 -20 31 83 32 46 62 17 101 10 54 rcurveline
            -247 -424 rmoveto
            -16 -121 -51 -55 -93 1 -78 -1 -44 43 -1 71 rrcurveto
            20 1 21 3 23 vhcurveto
            121 16 51 55 94 hhcurveto
            78 44 -42 -72 1 hvcurveto
            -20 -1 -21 -4 -23 vhcurveto
            return
          </CharString>
          <CharString index="10">
            rmoveto
            -100 callsubr
            return
          </CharString>
          <CharString index="11">
            rmoveto
            107 hlineto
            19 -26 callgsubr
            -107 hlineto
            182 -110 rmoveto
            108 hlineto
            20 110 -40 callsubr
            return
          </CharString>
          <CharString index="12">
            rmoveto
            118 71 95 114 60 hvcurveto
            259 499 -67 callgsubr
            -125 -253 rlineto
            -27 -53 -37 -93 0 vvcurveto
            -5 hlineto
            0 -13 99 -10 47 vhcurveto
            -54 253 rlineto
            -119 hlineto
            112 -526 rlineto
            -65 -33 -40 -23 -50 hhcurveto
            -54 -23 callgsubr
            -1 6 30 -10 51 hhcurveto
            return
          </CharString>
          <CharString index="13">
            rlineto
            97 17 66 54 73 hhcurveto
            43 28 -17 -50 -14 -3 -17 -3 -18 hvcurveto
            -56 -318 -9 callsubr
            58 325 rlineto
            5 29 4 26 24 vvcurveto
            97 -67 37 -85 return
          </CharString>
          <CharString index="14">
            rmoveto
            108 -39 callgsubr
            135 rlineto
            -110 hlineto
            -65 -72 -45 72 rlineto
            -99 hlineto
            return
          </CharString>
          <CharString index="15">
            rmoveto
            167 141 84 179 31 hvcurveto
            -126 hlineto
            -100 -19 -83 -55 -110 hhcurveto
            -108 -52 53 110 29 3 29 10 49 hvcurveto
            137 27 83 87 136 hhcurveto
            87 56 -40 -82 -11 -1 -12 -2 -12 hvcurveto
            131 hlineto
            3 20 2 19 17 vvcurveto
            141 -115 68 -160 -98 -83 -29 -49 -62 vhcurveto
            -100 -82 -48 -137 -147 vvcurveto
            -185 105 -81 185 vhcurveto
            endchar
          </CharString>
          <CharString index="16">
            -103 callsubr
            -477 -78 callsubr
            return
          </CharString>
          <CharString index="17">
            44 -72 rlineto
            99 hlineto
            -82 135 rlineto
            return
          </CharString>
          <CharString index="18">
            152 hlineto
            190 452 rlineto
            13 32 21 70 0 vvcurveto
            4 hlineto
            0 1 -64 2 -38 vhcurveto
            28 -452 rlineto
            152 hlineto
            308 -49 callgsubr
            -129 hlineto
            -190 -444 rlineto
            -13 -30 -23 -69 0 vvcurveto
            -5 hlineto
            0 0 70 -2 29 vhcurveto
            -26 444 rlineto
            -162 hlineto
            -181 -444 rlineto
            -10 -23 -23 -76 0 vvcurveto
            -5 hlineto
            0 -1 72 -3 27 vhcurveto
            -37 444 -7 callgsubr
          </CharString>
          <CharString index="19">
            127 hlineto
            115 274 rlineto
            19 43 23 69 0 vvcurveto
            5 hlineto
            0 0 -70 3 -43 vhcurveto
            18 -273 rlineto
            126 hlineto
            250 -59 callgsubr
            -107 -246 rlineto
            -21 -48 -33 -92 0 vvcurveto
            -5 hlineto
            0 -4 99 -3 41 vhcurveto
            -19 246 rlineto
            -130 hlineto
            -102 -245 rlineto
            -15 -37 -38 -104 0 vvcurveto
            -4 hlineto
            0 -5 108 -3 34 vhcurveto
            -22 244 rlineto
            -119 hlineto
            endchar
          </CharString>
          <CharString index="20">
            -25 callgsubr
            47 265 rlineto
            216 hlineto
            84 -265 rlineto
            136 hlineto
            -96 283 rlineto
            89 29 71 75 115 vvcurveto
            113 -73 71 -155 vhcurveto
            -326 hlineto
            72 -313 rmoveto
            36 204 rlineto
            217 hlineto
            65 33 -31 -53 -74 -50 -46 -77 hvcurveto
            return
          </CharString>
          <CharString index="21">
            rmoveto
            -23 -127 rlineto
            54 hlineto
            -12 -24 -18 -18 -25 -13 rrcurveto
            -112 hlineto
            -76 -429 rlineto
            -106 -19 -69 -55 -102 hhcurveto
            -91 -47 42 79 13 3 20 2 10 hvcurveto
            75 426 -68 callsubr
            -74 -424 rlineto
            -4 -22 -2 -21 -20 vvcurveto
            -139 96 -72 170 178 108 87 179 32 vhcurveto
            64 366 82 32 46 61 17 101 rlinecurve
            10 54 rlineto
            return
          </CharString>
          <CharString index="22">
            rmoveto
            -23 -127 rlineto
            54 hlineto
            -18 -35 -31 -23 -45 -12 rrcurveto
            -73 hlineto
            -50 -283 rlineto
            -97 -17 -66 -54 -73 hhcurveto
            -43 -28 17 50 14 3 17 3 18 hvcurveto
            56 318 -80 callgsubr
            -58 -325 -23 callsubr
            -5 -26 -24 vvcurveto
            -97 67 -37 86 -9 callgsubr
            vhcurveto
            7 -71 97 hlineto
            84 473 85 31 48 62 17 103 rlinecurve
            10 54 rlineto
            return
          </CharString>
          <CharString index="23">
            rmoveto
            98 35 68 66 12 hvcurveto
            101 574 -80 callgsubr
            -100 -566 -50 callgsubr
            -49 hlineto
            -14 -82 4 callgsubr
            39 -7 4 callsubr
          </CharString>
          <CharString index="24">
            454 hlineto
            17 98 rlineto
            -272 hlineto
            326 373 10 55 rlineto
            -426 hlineto
            -18 -98 rlineto
            243 hlineto
            -324 -372 rlineto
            return
          </CharString>
          <CharString index="25">
            593 -103 callsubr
            return
          </CharString>
          <CharString index="26">
            -80 callsubr
            endchar
          </CharString>
          <CharString index="27">
            -102 callsubr
            -364 -72 callsubr
            return
          </CharString>
          <CharString index="28">
            -65 callsubr
            194 -62 rmoveto
            -31 -61 rlineto
            -6 hlineto
            49 -29 -45 24 -73 hhcurveto
            -159 -82 -180 -168 -134 68 -68 102 63 61 30 56 37 hvcurveto
            5 hlineto
            -54 34 -32 52 36 27 9 7 13 vhcurveto
            15 82 rlineto
            -33 hlineto
            -17 -12 8 19 5 callsubr
            hvcurveto
            -312 -435 rmoveto
            -61 -26 37 69 101 36 140 111 63 29 -38 -71 -86 -38 -152 -114 hvcurveto
            endchar
          </CharString>
          <CharString index="29">
            -738 rmoveto
            -104 callgsubr
            return
          </CharString>
          <CharString index="30">
            -74 callsubr
            -69 -66 -37 -46 -38 vhcurveto
            -17 callgsubr
            return
          </CharString>
          <CharString index="31">
            rmoveto
            24 34 8 8 20 hvcurveto
            14 82 rlineto
            -48 hlineto
            -24 -12 11 20 6 3 17 2 8 hvcurveto
            49 280 rlineto
            90 hlineto
            18 98 rlineto
            -91 hlineto
            34 147 -68 callsubr
            -26 -147 rlineto
            -63 -2 callsubr
            63 hlineto
            -45 -260 rlineto
            -9 -47 -3 -22 -13 vvcurveto
            -52 27 -46 88 vhcurveto
            return
          </CharString>
          <CharString index="32">
            733 -102 callsubr
            return
          </CharString>
          <CharString index="33">
            -54 callsubr
            50 283 -94 callsubr
            return
          </CharString>
          <CharString index="34">
            588 -102 callsubr
            return
          </CharString>
          <CharString index="35">
            -868 -97 callsubr
            return
          </CharString>
          <CharString index="36">
            613 -96 callsubr
            return
          </CharString>
          <CharString index="37">
            rlineto
            -120 return
          </CharString>
          <CharString index="38">
            25 24 vvcurveto
            129 -72 62 -142 return
          </CharString>
          <CharString index="39">
            rlineto
            -47 callgsubr
            return
          </CharString>
          <CharString index="40">
            127 -61 callsubr
            return
          </CharString>
          <CharString index="41">
            rmoveto
            305 hlineto
            15 82 rlineto
            -305 hlineto
            return
          </CharString>
          <CharString index="42">
            rmoveto
            -90 callsubr
            -108 hlineto
            -129 -135 rlineto
            -46 callsubr
            return
          </CharString>
          <CharString index="43">
            -65 callsubr
            220 -55 callgsubr
            return
          </CharString>
          <CharString index="44">
            hlineto
            -60 callgsubr
            return
          </CharString>
          <CharString index="45">
            rmoveto
            -67 -30 34 75 101 34 137 121 67 33 -38 -71 -110 -43 -128 -115 hvcurveto
            return
          </CharString>
          <CharString index="46">
            -51 callgsubr
            -16 callsubr
            return
          </CharString>
          <CharString index="47">
            98 hlineto
            123 -42 callsubr
            -125 hlineto
            71 -132 rmoveto
            99 hlineto
            122 -42 callsubr
            -6 callgsubr
            return
          </CharString>
          <CharString index="48">
            rmoveto
            95 hlineto
            68 -42 callsubr
            -114 hlineto
            return
          </CharString>
          <CharString index="49">
            23 303 -12 -97 callgsubr
            return
          </CharString>
          <CharString index="50">
            497 -16 callgsubr
            -370 hlineto
            102 575 -68 callsubr
            return
          </CharString>
          <CharString index="51">
            rmoveto
            -1 3 -67 callgsubr
            -104 -132 rlineto
            101 hlineto
            return
          </CharString>
          <CharString index="52">
            -72 callsubr
            endchar
          </CharString>
          <CharString index="53">
            120 hlineto
            return
          </CharString>
          <CharString index="54">
            156 44 248 return
          </CharString>
          <CharString index="55">
            rmoveto
            -58 -29 callgsubr
            -117 hlineto
            -1 -3 85 -129 rlineto
            return
          </CharString>
          <CharString index="56">
            93 368 -12 rmoveto
            196 159 159 196 196 -159 159 -196 -196 -159 -159 -196 -196 159 -159 196 hvcurveto
            57 vmoveto
            -164 -132 133 165 164 132 134 164 164 132 -134 -164 -165 -132 -133 -164 hvcurveto
            return
          </CharString>
          <CharString index="57">
            138 hlineto
            97 149 rlineto
            321 hlineto
            14 -149 rlineto
            378 -30 callsubr
            -286 hlineto
            -18 187 rlineto
            287 hlineto
            19 109 rlineto
            -317 hlineto
            -16 172 rlineto
            407 hlineto
            19 109 rlineto
            -606 hlineto
            -152 -429 rmoveto
            208 320 rlineto
            5 hlineto
            29 -320 rlineto
            endchar
          </CharString>
          <CharString index="58">
            12 hmoveto
            -94 callgsubr
            return
          </CharString>
          <CharString index="59">
            rlineto
            221 hlineto
            19 -26 callgsubr
            -568 hlineto
            -20 -110 rlineto
            221 hlineto
            return
          </CharString>
          <CharString index="60">
            -68 -25 -173 rmoveto
            -54 callsubr
            30 172 rlineto
            -8 18 20 -3 22 hhcurveto
            68 66 37 46 38 hvcurveto
            7 -71 98 -63 callsubr
            -51 -283 rlineto
            -97 -17 -66 -54 -73 hhcurveto
            -43 -28 17 50 14 3 17 3 18 hvcurveto
            56 318 -80 callgsubr
            endchar
          </CharString>
          <CharString index="61">
            111 hlineto
            return
          </CharString>
          <CharString index="62">
            606 -92 callgsubr
            return
          </CharString>
          <CharString index="63">
            rlineto
            -121 hlineto
            return
          </CharString>
          <CharString index="64">
            -148 rmoveto
            65 hlineto
            88 2 callsubr
            -6 callgsubr
            -23 -127 rlineto
            return
          </CharString>
          <CharString index="65">
            129 -13 callgsubr
            return
          </CharString>
          <CharString index="66">
            55 87 14 71 43 -38 18 -47 2 hvcurveto
            return
          </CharString>
          <CharString index="67">
            rlineto
            -53 callgsubr
            return
          </CharString>
          <CharString index="68">
            -25 callgsubr
            52 296 rlineto
            325 hlineto
            -53 -296 rlineto
            -25 callgsubr
            return
          </CharString>
          <CharString index="69">
            -25 callgsubr
            101 576 -48 callsubr
            return
          </CharString>
          <CharString index="70">
            59 12 hmoveto
            -25 callgsubr
            33 189 165 132 153 -321 rlineto
            143 hlineto
            -198 407 314 279 rlineto
            -168 hlineto
            -382 -342 61 342 -68 callsubr
            return
          </CharString>
          <CharString index="71">
            78 12 hmoveto
            -33 callsubr
            return
          </CharString>
          <CharString index="72">
            -138 79 -64 return
          </CharString>
          <CharString index="73">
            -274 16 hmoveto
            -76 callgsubr
            return
          </CharString>
          <CharString index="74">
            -39 callsubr
            121 686 -68 callsubr
            -49 -280 rlineto
            -325 hlineto
            50 280 -68 callsubr
            return
          </CharString>
          <CharString index="75">
            rmoveto
            74 65 44 72 36 -18 24 -29 14 hvcurveto
            4 vlineto
            41 18 27 25 46 vvcurveto
            59 -45 30 -71 -65 -55 -40 -62 -10 vhcurveto
            -3 -14 rlineto
            76 hlineto
            2 7 rlineto
            31 return
          </CharString>
          <CharString index="76">
            11 22 34 21 20 32 25 14 -12 -22 -34 -26 -19 -29 hvcurveto
            -27 -159 rmoveto
            return
          </CharString>
          <CharString index="77">
            hlineto
            20 109 rlineto
            return
          </CharString>
          <CharString index="78">
            rmoveto
            98 hlineto
            170 200 -108 200 rlineto
            -89 hlineto
            80 -200 rlineto
            return
          </CharString>
          <CharString index="79">
            rlineto
            55 10 39 32 60 hhcurveto
            50 27 -25 -46 -7 -1 -9 -3 -22 hvcurveto
            119 hlineto
            5 25 1 13 22 vvcurveto
            101 -76 46 -123 -126 return
          </CharString>
          <CharString index="80">
            -5 callgsubr
            -127 -18 callgsubr
            return
          </CharString>
          <CharString index="81">
            -65 -42 -90 -2 vhcurveto
            74 hlineto
            4 20 rlineto
            31 5 20 17 35 hhcurveto
            return
          </CharString>
          <CharString index="82">
            rmoveto
            125 hlineto
            22 127 -67 callgsubr
            return
          </CharString>
          <CharString index="83">
            120 -45 callgsubr
            return
          </CharString>
          <CharString index="84">
            rlineto
            -5 -29 return
          </CharString>
          <CharString index="85">
            -161 hlineto
            return
          </CharString>
          <CharString index="86">
            0 callgsubr
            endchar
          </CharString>
          <CharString index="87">
            102 37 69 68 11 hvcurveto
            83 473 rlineto
            return
          </CharString>
          <CharString index="88">
            -62 callsubr
            endchar
          </CharString>
          <CharString index="89">
            132 26 147 rlineto
            -132 hlineto
            -26 -147 rlineto
            return
          </CharString>
          <CharString index="90">
            hlineto
            -2 -3 rlineto
            return
          </CharString>
          <CharString index="91">
            -127 hlineto
            return
          </CharString>
          <CharString index="92">
            hvcurveto
            -239 return
          </CharString>
          <CharString index="93">
            rmoveto
            99 hlineto
            86 174 -1 3 -44 callsubr
            return
          </CharString>
          <CharString index="94">
            526 rlineto
            return
          </CharString>
          <CharString index="95">
            23 4 0 4 3 13 hvcurveto
            -76 hlineto
            -3 -15 -1 -11 -7 vvcurveto
            -54 43 -33 81 vhcurveto
            return
          </CharString>
          <CharString index="96">
            -12 -22 callgsubr
            671 710 rlineto
            -91 hlineto
            return
          </CharString>
          <CharString index="97">
            hvcurveto
            82 463 rlineto
            return
          </CharString>
          <CharString index="98">
            rlineto
            -54 callsubr
            return
          </CharString>
          <CharString index="99">
            -311 25 214 rmoveto
            251 hlineto
            19 112 rlineto
            -251 hlineto
            endchar
          </CharString>
          <CharString index="100">
            20 111 rlineto
            return
          </CharString>
          <CharString index="101">
            hhcurveto
            40 15 -22 -42 -13 -1 -15 -5 -25 hvcurveto
            -55 -11 -19 -43 -54 hhcurveto
            return
          </CharString>
          <CharString index="102">
            -477 -258 -12 -22 callgsubr
            589 710 rlineto
            -90 hlineto
            endchar
          </CharString>
          <CharString index="103">
            rmoveto
            472 hlineto
            17 return
          </CharString>
          <CharString index="104">
            197 rlineto
            -21 hlineto
            -202 -189 return
          </CharString>
          <CharString index="105">
            hlineto
            -17 -98 rlineto
            return
          </CharString>
          <CharString index="106">
            148 vhcurveto
            endchar
          </CharString>
          <CharString index="107">
            hlineto
            6 36 rlineto
            5 28 3 25 24 vvcurveto
            129 -72 62 return
          </CharString>
          <CharString index="108">
            -15 14 25 35 24 21 38 30 16 -13 -23 -38 -29 -21 return
          </CharString>
          <CharString index="109">
            159 20 116 rlineto
            return
          </CharString>
          <CharString index="110">
            19 113 rlineto
            return
          </CharString>
          <CharString index="111">
            30 hhcurveto
            endchar
          </CharString>
          <CharString index="112">
            9 29 -53 callsubr
            return
          </CharString>
          <CharString index="113">
            -15 -3 -17 hvcurveto
            -57 -324 -9 callsubr
            return
          </CharString>
          <CharString index="114">
            -19 -105 354 -148 -407 -148 rlineto
            return
          </CharString>
          <CharString index="115">
            rlineto
            199 hlineto
            163 108 95 159 return
          </CharString>
          <CharString index="116">
            62 134 21 hvcurveto
            -118 hlineto
            -70 -12 return
          </CharString>
        <CharString name=".notdef">
          -143 0 vmoveto
          500 700 -500 hlineto
          250 -305 rmoveto
          -170 255 rlineto
          340 hlineto
          -370 -555 rmoveto
          510 vlineto
          170 -255 rlineto
          230 -255 rmoveto
          -170 255 170 255 rlineto
          -370 -555 rmoveto
          170 255 170 -255 rlineto
          endchar
        </CharString>
        <CharString name="A">
          59 -49 hmoveto
          -104 callgsubr
          endchar
        </CharString>
        <CharString name="AE">
          356 -62 hmoveto
          -50 callsubr
        </CharString>
        <CharString name="AEacute">
          356 535 736 -93 callgsubr
          -701 -868 rmoveto
          -50 callsubr
        </CharString>
        <CharString name="Aacute">
          59 377 736 -93 callgsubr
          -530 -868 -101 callgsubr
        </CharString>
        <CharString name="Abreve">
          59 428 738 -91 callgsubr
        </CharString>
        <CharString name="Acircumflex">
          59 262 -75 callsubr
          -440 -868 -101 callgsubr
        </CharString>
        <CharString name="Adieresis">
          59 278 -71 callgsubr
          -548 -868 -101 callgsubr
        </CharString>
        <CharString name="Agrave">
          59 383 736 -81 callgsubr
          -347 -865 -101 callgsubr
        </CharString>
        <CharString name="Amacron">
          59 281 762 -66 callsubr
          -345 -844 -101 callgsubr
        </CharString>
        <CharString name="Aogonek">
          59 540 -3 callgsubr
          24 24 4 10 28 hvcurveto
          10 54 rlineto
          -27 hlineto
          -33 -12 17 22 29 23 28 23 18 hvcurveto
          46 hlineto
          -147 -49 callgsubr
          -22 callsubr
          -387 -686 rlineto
          135 hlineto
          82 149 rlineto
          316 hlineto
          30 -149 rlineto
          -33 -25 -30 -33 -48 vvcurveto
          -57 45 -19 44 vhcurveto
          -312 439 rmoveto
          98 180 22 39 42 83 9 17 rlinecurve
          5 hlineto
          3 -17 13 -83 8 -40 35 -179 rcurveline
          endchar
        </CharString>
        <CharString name="Aring">
          59 425 704 -63 callgsubr
          -479 -757 -101 callgsubr
        </CharString>
        <CharString name="Aringacute">
          59 395 861 rmoveto
          102 -39 callgsubr
          -42 callsubr
          -126 hlineto
          -548 -993 rmoveto
          135 hlineto
          82 149 rlineto
          316 hlineto
          30 -149 rlineto
          132 hlineto
          -145 680 rlineto
          16 18 10 26 28 vvcurveto
          48 -33 36 -55 -69 -45 -52 -64 -14 3 -14 7 -11 vhcurveto
          83 10 rmoveto
          -25 -14 15 21 31 22 26 32 25 16 -17 -22 -30 -25 -24 -31 hvcurveto
          -190 -434 rmoveto
          98 180 22 39 42 83 9 17 rlinecurve
          5 hlineto
          3 -17 13 -83 8 -40 35 -179 rcurveline
          endchar
        </CharString>
        <CharString name="Atilde">
          59 266 752 rmoveto
          -65 callgsubr
          18 -102 callgsubr
          -315 -752 -101 callgsubr
        </CharString>
        <CharString name="B">
          59 12 hmoveto
          372 -39 callgsubr
          118 63 145 78 -45 51 -60 19 hvcurveto
          4 vlineto
          79 17 64 68 85 vvcurveto
          104 -83 52 -132 vhcurveto
          -321 hlineto
          79 -281 rmoveto
          30 172 rlineto
          211 hlineto
          47 35 -22 -51 -52 -38 -47 -76 hvcurveto
          -261 -296 rmoveto
          33 189 rlineto
          212 hlineto
          65 31 -31 -52 -75 -55 -31 -66 hvcurveto
          endchar
        </CharString>
        <CharString name="C">
          78 325 -12 -92 callsubr
        </CharString>
        <CharString name="CR">
          -644 endchar
        </CharString>
        <CharString name="Cacute">
          78 386 736 -93 callgsubr
          -165 -880 -92 callsubr
        </CharString>
        <CharString name="Cacute.loclPLK">
          78 378 736 -59 callsubr
          -101 -880 -92 callsubr
        </CharString>
        <CharString name="Ccaron">
          78 383 733 -93 callsubr
          24 -880 -92 callsubr
        </CharString>
        <CharString name="Ccedilla">
          78 696 433 rmoveto
          3 20 2 19 17 vvcurveto
          141 -115 68 -160 -98 -83 -29 -49 -62 vhcurveto
          -100 -82 -48 -137 -147 vvcurveto
          -167 85 -82 152 -15 vhcurveto
          -23 -67 rlineto
          45 hlineto
          27 10 -6 -13 -23 -20 -6 -28 hvcurveto
          -92 hlineto
          -9 -49 rlineto
          -5 29 39 -3 34 hhcurveto
          8 callgsubr
          23 156 7 129 85 30 170 rlinecurve
          -126 hlineto
          -100 -19 -83 -55 -110 hhcurveto
          -108 -52 53 110 29 3 29 10 49 hvcurveto
          137 27 83 87 136 hhcurveto
          87 56 -40 -82 -11 -1 -12 -2 -12 hvcurveto
          endchar
        </CharString>
        <CharString name="Ccircumflex">
          78 271 -75 callsubr
          -75 -880 -92 callsubr
        </CharString>
        <CharString name="Cdotaccent">
          78 380 751 -92 callgsubr
          -76 -881 -92 callsubr
        </CharString>
        <CharString name="D">
          78 12 hmoveto
          -79 callgsubr
          endchar
        </CharString>
        <CharString name="Dcaron">
          78 347 733 -93 callsubr
          -253 -868 rmoveto
          -79 callgsubr
          endchar
        </CharString>
        <CharString name="Dcroat">
          -58 callgsubr
        </CharString>
        <CharString name="E">
          23 12 hmoveto
          -100 callsubr
          endchar
        </CharString>
        <CharString name="Eacute">
          23 362 736 -93 callgsubr
          -454 -55 callsubr
        </CharString>
        <CharString name="Ebreve">
          23 413 -73 callgsubr
          -401 -738 -90 callgsubr
        </CharString>
        <CharString name="Ecaron">
          23 359 733 -93 callsubr
          -265 -55 callsubr
        </CharString>
        <CharString name="Ecircumflex">
          23 247 733 -81 callsubr
        </CharString>
        <CharString name="Edieresis">
          23 263 -71 callgsubr
          -472 -55 callsubr
        </CharString>
        <CharString name="Edotaccent">
          23 356 751 -92 callgsubr
          -365 -869 -90 callgsubr
        </CharString>
        <CharString name="Egrave">
          23 368 736 -81 callgsubr
          -271 -865 -90 callgsubr
        </CharString>
        <CharString name="Emacron">
          23 266 762 -66 callsubr
          -269 -844 -90 callgsubr
        </CharString>
        <CharString name="Eng">
          78 439 -3 callgsubr
          98 35 68 66 12 hvcurveto
          129 734 rlineto
          -123 hlineto
          -73 -417 -3 -14 -5 -38 -1 -7 rlinecurve
          -5 -1 -2 6 -16 34 -9 17 rlinecurve
          -221 420 rlineto
          -122 hlineto
          -121 -686 rlineto
          123 hlineto
          74 419 rlineto
          3 20 4 36 8 vvcurveto
          5 hlineto
          4 -6 11 -29 14 -24 220 -421 rcurveline
          -8 -43 -11 callgsubr
        </CharString>
        <CharString name="Eogonek">
          23 453 -31 callgsubr
          9 54 rlineto
          -26 hlineto
          -28 -15 14 18 32 46 34 43 16 hvcurveto
          20 109 rlineto
          -414 hlineto
          33 187 rlineto
          364 hlineto
          19 109 rlineto
          -364 hlineto
          30 172 rlineto
          408 hlineto
          19 109 rlineto
          -535 hlineto
          -121 -686 rlineto
          434 hlineto
          -49 -25 -35 -35 -52 vvcurveto
          -53 48 -17 43 vhcurveto
          endchar
        </CharString>
        <CharString name="Eth">
          -58 callgsubr
        </CharString>
        <CharString name="Euro">
          -88 349 -12 rmoveto
          60 43 13 2 9 hvcurveto
          17 97 rlineto
          -2 -9 -42 -12 -46 hhcurveto
          -66 -108 27 123 -14 hvcurveto
          237 hlineto
          13 76 rlineto
          -250 hlineto
          2 23 4 26 6 21 rrcurveto
          251 hlineto
          13 75 rlineto
          -235 hlineto
          101 50 98 42 100 hhcurveto
          40 35 -12 -2 7 hvcurveto
          17 97 rlineto
          2 -10 -41 13 -64 hhcurveto
          -137 -160 -60 -181 -69 hvcurveto
          -68 hlineto
          -13 -75 rlineto
          59 hlineto
          -4 -21 -4 -27 -2 -22 rrcurveto
          -62 hlineto
          -12 -76 rlineto
          73 hlineto
          -184 11 143 -64 128 hhcurveto
          endchar
        </CharString>
        <CharString name="F">
          -33 12 hmoveto
          -25 callgsubr
          50 282 rlineto
          328 hlineto
          19 109 rlineto
          -329 hlineto
          33 186 rlineto
          366 hlineto
          19 109 rlineto
          -493 hlineto
          endchar
        </CharString>
        <CharString name="G">
          134 734 452 -100 callgsubr
          endchar
        </CharString>
        <CharString name="G_tilde.loclGUA">
          134 392 787 rmoveto
          -102 callgsubr
          -65 callgsubr
          18 hhcurveto
          342 -335 -100 callgsubr
          endchar
        </CharString>
        <CharString name="Gbreve">
          134 448 -73 callgsubr
          286 -286 -100 callgsubr
          endchar
        </CharString>
        <CharString name="Gcaron">
          134 502 733 rmoveto
          129 135 rlineto
          -110 hlineto
          -65 -72 -45 72 rlineto
          -99 hlineto
          82 -135 rlineto
          340 -281 -100 callgsubr
          endchar
        </CharString>
        <CharString name="Gcircumflex">
          134 458 805 -65 callsubr
          341 -281 -100 callgsubr
          endchar
        </CharString>
        <CharString name="Gcommaaccent">
          134 734 452 -100 callgsubr
          -344 -594 rmoveto
          46 hlineto
          -61 -88 rlineto
          64 hlineto
          74 98 15 86 -44 callsubr
          endchar
        </CharString>
        <CharString name="Gdotaccent">
          134 530 869 rmoveto
          -118 hlineto
          -21 -118 rlineto
          118 hlineto
          225 -299 -100 callgsubr
          endchar
        </CharString>
        <CharString name="H">
          -36 callsubr
          endchar
        </CharString>
        <CharString name="Hbar">
          78 12 hmoveto
          -39 callsubr
          90 514 rlineto
          64 hlineto
          14 84 rlineto
          -63 hlineto
          16 88 -68 callsubr
          -16 -88 rlineto
          -324 hlineto
          16 88 -68 callsubr
          -16 -88 rlineto
          -63 hlineto
          -15 -84 rlineto
          64 hlineto
          108 -108 rmoveto
          19 108 rlineto
          325 hlineto
          -19 -108 rlineto
          endchar
        </CharString>
        <CharString name="Hcircumflex">
          78 265 -75 callsubr
          -382 -868 rmoveto
          -33 callsubr
          endchar
        </CharString>
        <CharString name="I">
          -366 17 hmoveto
          -67 callsubr
          endchar
        </CharString>
        <CharString name="IJ">
          171 17 hmoveto
          -67 callsubr
          343 -698 -82 callgsubr
        </CharString>
        <CharString name="Iacute">
          -366 159 736 -93 callgsubr
          -246 -868 rmoveto
          -67 callsubr
          endchar
        </CharString>
        <CharString name="Iacute_J.loclNLD">
          171 159 736 -93 callgsubr
          439 -132 -93 callgsubr
          -789 -868 rmoveto
          -67 callsubr
          343 -698 -82 callgsubr
        </CharString>
        <CharString name="Ibreve">
          -366 210 -73 callgsubr
          -193 -738 rmoveto
          -67 callsubr
          endchar
        </CharString>
        <CharString name="Icircumflex">
          -366 44 -75 callsubr
          -156 -868 rmoveto
          -67 callsubr
          endchar
        </CharString>
        <CharString name="Idieresis">
          -366 60 -71 callgsubr
          -264 -868 rmoveto
          -67 callsubr
          endchar
        </CharString>
        <CharString name="Idotaccent">
          -366 153 751 -92 callgsubr
          -157 -869 rmoveto
          -67 callsubr
          endchar
        </CharString>
        <CharString name="Igrave">
          -366 165 736 -81 callgsubr
          -63 -865 rmoveto
          -67 callsubr
          endchar
        </CharString>
        <CharString name="Imacron">
          -366 63 762 -66 callsubr
          -61 -844 rmoveto
          -67 callsubr
          endchar
        </CharString>
        <CharString name="Iogonek">
          -366 118 hmoveto
          26 -61 callsubr
          -121 -686 rlineto
          21 hlineto
          -34 -26 -35 -35 -53 -52 callgsubr
          endchar
        </CharString>
        <CharString name="Itilde">
          -366 48 752 rmoveto
          -65 callgsubr
          18 -102 callgsubr
          -31 -752 rmoveto
          -67 callsubr
          endchar
        </CharString>
        <CharString name="J">
          -107 203 -12 -82 callgsubr
        </CharString>
        <CharString name="Jcircumflex">
          -107 309 -75 callsubr
          -235 -880 -82 callgsubr
        </CharString>
        <CharString name="K">
          -37 callsubr
          endchar
        </CharString>
        <CharString name="Kcommaaccent">
          -37 callsubr
          73 -916 rmoveto
          -74 callgsubr
        </CharString>
        <CharString name="L">
          12 hmoveto
          -57 callsubr
          endchar
        </CharString>
        <CharString name="Lacute">
          154 736 -93 callgsubr
          -246 -868 rmoveto
          -57 callsubr
          endchar
        </CharString>
        <CharString name="Lcaron">
          12 hmoveto
          -57 callsubr
          207 -227 rmoveto
          63 -20 callgsubr
          46 hlineto
          endchar
        </CharString>
        <CharString name="Lcommaaccent">
          12 hmoveto
          -57 callsubr
          28 -916 rmoveto
          -74 callgsubr
        </CharString>
        <CharString name="Ldot">
          12 hmoveto
          -57 callsubr
          198 -287 rmoveto
          124 -36 callgsubr
          -6 callgsubr
          endchar
        </CharString>
        <CharString name="Lslash">
          18 hmoveto
          491 -16 callgsubr
          -364 hlineto
          40 226 168 99 17 95 -168 -99 45 254 -68 callsubr
          -60 -339 -76 -45 -17 -95 76 46 rlineto
          endchar
        </CharString>
        <CharString name="M">
          189 12 hmoveto
          122 hlineto
          78 443 rlineto
          5 27 11 89 0 vvcurveto
          5 hlineto
          2 -18 2 -33 2 -26 53 -482 rcurveline
          122 hlineto
          225 482 13 27 13 32 7 18 rlinecurve
          6 hlineto
          0 -20 -90 -4 -26 vhcurveto
          -79 -443 rlineto
          128 -51 callgsubr
          -198 hlineto
          -193 -409 rlineto
          -18 -38 -33 -99 0 vvcurveto
          -5 hlineto
          0 -1 93 -5 44 vhcurveto
          -49 409 rlineto
          -189 hlineto
          endchar
        </CharString>
        <CharString name="N">
          78 -49 callsubr
          endchar
        </CharString>
        <CharString name="NULL">
          -644 endchar
        </CharString>
        <CharString name="Nacute">
          78 396 736 -93 callgsubr
          -488 -868 rmoveto
          -94 callgsubr
          endchar
        </CharString>
        <CharString name="Nacute.loclPLK">
          78 388 736 -59 callsubr
          -424 -868 rmoveto
          -94 callgsubr
          endchar
        </CharString>
        <CharString name="Ncaron">
          78 393 733 -93 callsubr
          -299 -868 rmoveto
          -94 callgsubr
          endchar
        </CharString>
        <CharString name="Ncommaaccent">
          78 -49 callsubr
          82 -916 rmoveto
          -74 callgsubr
        </CharString>
        <CharString name="Ntilde">
          78 285 752 rmoveto
          -65 callgsubr
          18 -102 callgsubr
          -273 -752 rmoveto
          -94 callgsubr
          endchar
        </CharString>
        <CharString name="O">
          134 342 -11 -107 callsubr
          endchar
        </CharString>
        <CharString name="OE">
          356 263 -12 rmoveto
          69 61 24 49 53 hvcurveto
          -10 -61 rlineto
          449 hlineto
          19 108 rlineto
          -322 hlineto
          34 189 rlineto
          267 hlineto
          19 108 rlineto
          -267 hlineto
          30 173 rlineto
          315 hlineto
          19 108 rlineto
          -442 hlineto
          -11 -62 rlineto
          50 -41 -59 24 -81 hhcurveto
          -163 -119 -121 -234 -39 hvcurveto
          -7 -41 -4 -37 -34 vvcurveto
          -161 84 -82 146 vhcurveto
          31 108 rmoveto
          -87 -42 46 101 29 4 33 7 38 hvcurveto
          170 30 64 77 113 hhcurveto
          77 46 -41 -109 -27 -3 -33 -6 -37 hvcurveto
          -181 -33 -73 -66 -97 hhcurveto
          endchar
        </CharString>
        <CharString name="Oacute">
          134 387 736 -93 callgsubr
          -149 -879 -107 callsubr
          endchar
        </CharString>
        <CharString name="Oacute.loclPLK">
          134 379 736 -59 callsubr
          -85 -879 -107 callsubr
          endchar
        </CharString>
        <CharString name="Obreve">
          134 438 -73 callgsubr
          -96 -749 -107 callsubr
          endchar
        </CharString>
        <CharString name="Ocircumflex">
          134 272 -75 callsubr
          -59 -879 -107 callsubr
          endchar
        </CharString>
        <CharString name="Odieresis">
          134 288 -71 callgsubr
          -167 -879 -107 callsubr
          endchar
        </CharString>
        <CharString name="Ograve">
          134 393 736 -81 callgsubr
          34 -876 -107 callsubr
          endchar
        </CharString>
        <CharString name="Ohorn">
          134 733 828 -99 callsubr
          endchar
        </CharString>
        <CharString name="Ohungarumlaut">
          134 306 736 rmoveto
          -60 callsubr
          -226 -879 -107 callsubr
          endchar
        </CharString>
        <CharString name="Omacron">
          134 291 762 -66 callsubr
          36 -855 -107 callsubr
          endchar
        </CharString>
        <CharString name="Oslash">
          134 -12 -49 -69 callgsubr
        </CharString>
        <CharString name="Oslashacute">
          134 424 736 -93 callgsubr
          -540 -917 -69 callgsubr
        </CharString>
        <CharString name="Otilde">
          134 276 752 rmoveto
          -65 callgsubr
          18 -102 callgsubr
          66 -763 -107 callsubr
          endchar
        </CharString>
        <CharString name="P">
          23 12 hmoveto
          -25 callgsubr
          43 245 8 callsubr
          116 -67 71 -166 hvcurveto
          -287 hlineto
          69 -332 rmoveto
          39 223 rlineto
          179 hlineto
          71 31 -34 -58 -85 -60 -46 -81 hvcurveto
          endchar
        </CharString>
        <CharString name="Q">
          134 470 -130 rmoveto
          156 hlineto
          -127 146 rlineto
          157 62 89 160 193 vvcurveto
          180 -115 87 -195 -105 -88 -33 -58 -65 vhcurveto
          -93 -80 -49 -127 -146 vvcurveto
          -180 114 -86 194 8 11 1 1 6 vhcurveto
          -32 106 rmoveto
          -110 -59 56 113 27 3 27 9 47 hvcurveto
          140 29 94 84 140 hhcurveto
          111 60 -57 -112 -30 -4 -29 -10 -47 hvcurveto
          -138 -30 -93 -81 -140 hhcurveto
          endchar
        </CharString>
        <CharString name="R">
          -46 callgsubr
          endchar
        </CharString>
        <CharString name="Racute">
          78 350 736 -93 callgsubr
          -442 -868 rmoveto
          -87 callsubr
          endchar
        </CharString>
        <CharString name="Rcaron">
          78 347 733 -93 callsubr
          -253 -868 rmoveto
          -87 callsubr
          endchar
        </CharString>
        <CharString name="Rcommaaccent">
          -46 callgsubr
          -214 -603 rmoveto
          -74 callgsubr
        </CharString>
        <CharString name="S">
          -58 callsubr
          endchar
        </CharString>
        <CharString name="Sacute">
          23 359 736 -93 callgsubr
          -160 -880 -97 callgsubr
          endchar
        </CharString>
        <CharString name="Sacute.loclPLK">
          23 351 736 -59 callsubr
          -96 -880 -97 callgsubr
          endchar
        </CharString>
        <CharString name="Scaron">
          23 356 733 -93 callsubr
          29 -880 -97 callgsubr
          endchar
        </CharString>
        <CharString name="Scedilla">
          23 271 -3 callgsubr
          8 callgsubr
          24 rlineto
          135 8 129 65 156 216 -379 -52 122 vvcurveto
          55 64 30 95 78 49 -29 -49 -4 0 -7 -3 -14 vhcurveto
          126 hlineto
          4 23 1 15 12 vvcurveto
          112 -113 49 -149 -152 -132 -68 -143 vhcurveto
          -216 377 60 -136 vvcurveto
          -59 -55 -40 -119 -90 -54 32 56 12 4 16 2 8 vhcurveto
          -129 hlineto
          -4 -15 -4 -24 -18 vvcurveto
          -109 103 -55 139 -9 vhcurveto
          -23 -67 -61 callgsubr
          endchar
        </CharString>
        <CharString name="Scircumflex">
          23 244 -75 callsubr
          -70 -880 -97 callgsubr
          endchar
        </CharString>
        <CharString name="Scommaaccent">
          -58 callsubr
          -115 -218 rmoveto
          -74 callgsubr
        </CharString>
        <CharString name="T">
          -43 callgsubr
          endchar
        </CharString>
        <CharString name="Tbar">
          -33 183 hmoveto
          -25 callgsubr
          64 362 rlineto
          94 hlineto
          15 84 rlineto
          -94 hlineto
          22 130 -48 callsubr
          -23 -130 rlineto
          -95 hlineto
          -15 -84 rlineto
          95 hlineto
          endchar
        </CharString>
        <CharString name="Tcaron">
          -33 318 733 -93 callsubr
          -53 -868 rmoveto
          -38 callsubr
          endchar
        </CharString>
        <CharString name="Thorn">
          23 12 hmoveto
          -25 callgsubr
          23 134 8 callsubr
          115 -67 72 -166 hvcurveto
          -159 -16 callgsubr
          -128 hlineto
          49 -443 rmoveto
          40 223 rlineto
          178 hlineto
          71 31 -34 -59 -84 -60 -46 -81 hvcurveto
          endchar
        </CharString>
        <CharString name="U">
          78 322 -12 -104 callsubr
          endchar
        </CharString>
        <CharString name="Uacute">
          78 390 736 -93 callgsubr
          -172 -880 -104 callsubr
          endchar
        </CharString>
        <CharString name="Ubreve">
          78 441 -73 callgsubr
          -119 -750 -104 callsubr
          endchar
        </CharString>
        <CharString name="Ucircumflex">
          78 275 -75 callsubr
          -82 -880 -104 callsubr
          endchar
        </CharString>
        <CharString name="Udieresis">
          78 291 -71 callgsubr
          -190 -880 -104 callsubr
          endchar
        </CharString>
        <CharString name="Ugrave">
          78 396 736 -81 callgsubr
          11 -877 -104 callsubr
          endchar
        </CharString>
        <CharString name="Uhorn">
          -87 callgsubr
          endchar
        </CharString>
        <CharString name="Uhungarumlaut">
          78 309 736 rmoveto
          -60 callsubr
          -249 -880 -104 callsubr
          endchar
        </CharString>
        <CharString name="Umacron">
          78 294 762 -66 callsubr
          13 -856 -104 callsubr
          endchar
        </CharString>
        <CharString name="Uogonek">
          78 355 -31 callgsubr
          10 54 rlineto
          -27 hlineto
          -31 -11 17 22 27 17 26 17 18 hvcurveto
          130 22 82 85 27 151 76 432 rcurveline
          -47 callgsubr
          -76 -429 rlineto
          -106 -19 -69 -55 -102 hhcurveto
          -91 -47 42 79 13 3 20 2 10 hvcurveto
          75 426 -68 callsubr
          -74 -424 rlineto
          -4 -22 -2 -21 -20 vvcurveto
          -137 92 -70 162 -4 vhcurveto
          -24 -23 -21 -30 -41 vvcurveto
          -57 46 -19 44 vhcurveto
          endchar
        </CharString>
        <CharString name="Uring">
          78 438 704 -63 callgsubr
          -121 -769 -104 callsubr
          endchar
        </CharString>
        <CharString name="Utilde">
          78 279 752 rmoveto
          -65 callgsubr
          18 -102 callgsubr
          43 -764 -104 callsubr
          endchar
        </CharString>
        <CharString name="V">
          23 202 hmoveto
          149 hlineto
          372 -49 callgsubr
          -137 hlineto
          -222 -423 -17 -31 -39 -80 -5 -9 rlinecurve
          -5 hlineto
          -2 10 -12 80 -6 32 -74 421 rcurveline
          -131 hlineto
          endchar
        </CharString>
        <CharString name="W">
          300 129 hmoveto
          -89 callsubr
        </CharString>
        <CharString name="Wacute">
          300 501 736 -93 callgsubr
          -476 -868 rmoveto
          -89 callsubr
        </CharString>
        <CharString name="Wcircumflex">
          300 386 -75 callsubr
          -386 -868 rmoveto
          -89 callsubr
        </CharString>
        <CharString name="Wdieresis">
          300 402 -71 callgsubr
          -494 -868 rmoveto
          -89 callsubr
        </CharString>
        <CharString name="Wgrave">
          300 507 736 -81 callgsubr
          -293 -865 rmoveto
          -89 callsubr
        </CharString>
        <CharString name="X">
          23 -58 hmoveto
          156 hlineto
          221 255 rlineto
          6 hlineto
          134 -255 rlineto
          145 hlineto
          -194 355 291 331 rlineto
          -156 hlineto
          -193 -224 rlineto
          -5 hlineto
          -118 224 rlineto
          -145 hlineto
          177 -322 rlineto
          endchar
        </CharString>
        <CharString name="Y">
          23 211 hmoveto
          -83 callgsubr
          endchar
        </CharString>
        <CharString name="Y.loclGUA">
          23 277 -12 -98 callgsubr
        </CharString>
        <CharString name="Yacute">
          23 362 736 -93 callgsubr
          -255 -868 rmoveto
          -83 callgsubr
          endchar
        </CharString>
        <CharString name="Yacute.loclGUA">
          23 369 736 -93 callgsubr
          -196 -880 -98 callgsubr
        </CharString>
        <CharString name="Ycircumflex">
          23 247 -75 callsubr
          -165 -868 rmoveto
          -83 callgsubr
          endchar
        </CharString>
        <CharString name="Ycircumflex.loclGUA">
          23 254 -75 callsubr
          -106 -880 -98 callgsubr
        </CharString>
        <CharString name="Ydieresis">
          23 263 -71 callgsubr
          -273 -868 rmoveto
          -83 callgsubr
          endchar
        </CharString>
        <CharString name="Ydieresis.loclGUA">
          23 270 -71 callgsubr
          -214 -880 -98 callgsubr
        </CharString>
        <CharString name="Ygrave">
          23 368 736 -81 callgsubr
          -72 -865 rmoveto
          -83 callgsubr
          endchar
        </CharString>
        <CharString name="Ygrave.loclGUA">
          23 375 736 -81 callgsubr
          -13 -877 -98 callgsubr
        </CharString>
        <CharString name="Z">
          -33 -38 hmoveto
          -77 callgsubr
          endchar
        </CharString>
        <CharString name="Zacute">
          -33 321 736 -93 callgsubr
          -463 -868 rmoveto
          -77 callgsubr
          endchar
        </CharString>
        <CharString name="Zacute.loclPLK">
          -33 313 736 -59 callsubr
          -399 -868 rmoveto
          -77 callgsubr
          endchar
        </CharString>
        <CharString name="Zcaron">
          -33 318 733 -93 callsubr
          -274 -868 rmoveto
          -77 callgsubr
          endchar
        </CharString>
        <CharString name="Zdotaccent">
          -33 315 751 -92 callgsubr
          -374 -869 rmoveto
          -77 callgsubr
          endchar
        </CharString>
        <CharString name="a">
          -65 469 113 -105 callsubr
        </CharString>
        <CharString name="aacute">
          -65 483 720 -56 callsubr
          115 -478 -105 callsubr
        </CharString>
        <CharString name="abreve">
          -65 304 -82 callsubr
          165 -480 -105 callsubr
        </CharString>
        <CharString name="acircumflex">
          -65 314 660 -64 callsubr
          endchar
        </CharString>
        <CharString name="acute">
          -311 60 591 -93 callgsubr
          endchar
        </CharString>
        <CharString name="acute.loclPLK">
          -311 154 591 -59 callsubr
          endchar
        </CharString>
        <CharString name="adieresis">
          -65 280 723 rmoveto
          -107 hlineto
          -19 -110 rlineto
          107 hlineto
          222 110 rmoveto
          -53 callgsubr
          -20 -110 rlineto
          108 hlineto
          6 -500 -105 callsubr
        </CharString>
        <CharString name="ae">
          245 184 -12 -72 callgsubr
        </CharString>
        <CharString name="aeacute">
          245 451 591 -93 callgsubr
          -371 -735 -72 callgsubr
        </CharString>
        <CharString name="agrave">
          -65 350 591 -52 callsubr
          210 -478 -105 callsubr
        </CharString>
        <CharString name="amacron">
          -65 477 699 rmoveto
          -305 hlineto
          -15 -82 rlineto
          305 hlineto
          7 -504 -105 callsubr
        </CharString>
        <CharString name="ampersand">
          59 281 -12 rmoveto
          168 98 81 132 24 hvcurveto
          18 98 rlineto
          92 hlineto
          16 98 rlineto
          -211 hlineto
          -35 -199 rlineto
          -72 -13 -58 -39 -103 hhcurveto
          -80 -47 27 61 101 85 23 74 hvcurveto
          63 hlineto
          17 98 rlineto
          -66 hlineto
          -58 -47 28 53 80 71 41 95 77 44 -25 -54 -6 0 -6 -3 -23 hvcurveto
          -54 callsubr
          6 33 1 12 10 vvcurveto
          97 -97 61 -148 -160 -126 -76 -138 -66 39 -36 54 -26 vhcurveto
          -1 -4 rlineto
          -90 -19 -77 -66 -111 vvcurveto
          -107 100 -61 158 vhcurveto
          endchar
        </CharString>
        <CharString name="aogonek">
          -65 467 113 rmoveto
          9 31 -53 callsubr
          vhcurveto
          -99 hlineto
          -31 -61 rlineto
          -6 hlineto
          49 -29 -45 24 -73 hhcurveto
          -159 -82 -180 -168 -134 68 -68 102 62 60 30 56 37 hvcurveto
          5 hlineto
          -40 18 -29 32 -10 vhcurveto
          -46 -24 -32 -31 -46 vvcurveto
          -57 46 -19 45 22 22 5 9 26 vhcurveto
          9 54 rlineto
          -26 hlineto
          -30 -12 13 22 40 53 28 36 15 hvcurveto
          14 82 rlineto
          -33 hlineto
          -16 -13 8 19 hvcurveto
          -237 -22 rmoveto
          -61 -26 37 69 101 36 140 111 63 29 -38 -71 -75 -38 -163 -114 hvcurveto
          endchar
        </CharString>
        <CharString name="approxequal">
          -95 27 259 rmoveto
          0 72 72 82 6 callgsubr
          -7 callsubr
          0 -72 -73 -82 vhcurveto
          -75 -46 61 -73 hhcurveto
          -93 -60 -73 0 hvcurveto
          -56 -322 rmoveto
          0 70 72 83 6 callgsubr
          19 -26 callgsubr
          0 -71 -72 -83 vhcurveto
          -75 -45 60 -73 hhcurveto
          -94 -60 -72 0 hvcurveto
          endchar
        </CharString>
        <CharString name="aring">
          -65 301 559 rmoveto
          67 46 51 64 48 -32 36 -56 -69 -44 -53 -63 -47 33 -36 55 hvcurveto
          20 146 rmoveto
          25 15 -16 -22 -30 -24 -25 -31 -25 -14 16 21 30 21 26 33 hvcurveto
          148 -592 -105 callsubr
        </CharString>
        <CharString name="aringacute">
          -65 514 907 -56 callsubr
          -84 -219 rmoveto
          67 46 51 64 48 -32 36 -56 -69 -44 -53 -63 -47 33 -36 55 hvcurveto
          20 146 rmoveto
          25 15 -16 -22 -30 -24 -25 -31 -25 -14 16 21 30 21 26 33 hvcurveto
          148 -592 -105 callsubr
        </CharString>
        <CharString name="arrowboth">
          356 199 72 rmoveto
          48 hlineto
          -29 -29 callgsubr
          534 hlineto
          -78 -132 rlineto
          57 hlineto
          219 170 3 21 -167 170 rlineto
          -48 hlineto
          31 -132 rlineto
          -534 hlineto
          76 -29 callgsubr
          -57 hlineto
          -219 -170 -3 -21 rlineto
          endchar
        </CharString>
        <CharString name="arrowdown">
          2 callgsubr
          56 -141 -55 128 728 rlineto
          -97 hlineto
          -128 -728 -122 55 -8 -48 rlineto
          endchar
        </CharString>
        <CharString name="arrowleft">
          356 193 72 rmoveto
          49 hlineto
          -32 -29 callgsubr
          728 hlineto
          16 96 rlineto
          -727 hlineto
          78 133 rlineto
          -56 hlineto
          -220 -170 -3 -21 rlineto
          endchar
        </CharString>
        <CharString name="arrowright">
          356 673 72 rmoveto
          56 hlineto
          220 169 3 21 -167 171 rlineto
          -49 hlineto
          32 -133 rlineto
          -728 hlineto
          -16 -96 rlineto
          727 hlineto
          endchar
        </CharString>
        <CharString name="arrowup">
          -144 107 -207 rmoveto
          97 hlineto
          128 727 122 -55 9 49 -136 -3 callsubr
          -10 -57 141 55 rlineto
          endchar
        </CharString>
        <CharString name="arrowupdn">
          2 callgsubr
          57 -141 -55 94 534 122 -53 9 49 -135 -3 callsubr
          -11 -57 141 53 -94 -534 -122 55 -9 -49 rlineto
          endchar
        </CharString>
        <CharString name="arrowupdnbse">
          -144 168 -112 rmoveto
          21 hlineto
          203 189 9 56 -141 -55 78 440 123 -53 8 49 -135 -3 callsubr
          -10 -57 141 53 -78 -440 -123 55 -8 -48 rlineto
          -55 -318 rmoveto
          360 hlineto
          13 73 rlineto
          -361 hlineto
          endchar
        </CharString>
        <CharString name="asciicircum">
          -175 19 294 rmoveto
          105 hlineto
          157 286 57 -286 rlineto
          100 hlineto
          -88 392 rlineto
          -107 hlineto
          endchar
        </CharString>
        <CharString name="asciitilde">
          -60 24 203 rmoveto
          0 72 73 85 vhcurveto
          78 48 -61 76 hhcurveto
          97 60 73 0 hvcurveto
          19 109 rlineto
          0 -72 -72 -85 vhcurveto
          -78 -48 60 -76 hhcurveto
          -97 -60 -72 0 hvcurveto
          endchar
        </CharString>
        <CharString name="asterisk">
          -255 160 362 rmoveto
          83 hlineto
          4 119 83 -74 53 71 -103 46 120 47 -29 70 -109 -73 38 118 rlineto
          -83 hlineto
          -4 -119 -83 74 -53 -70 104 -47 -121 -46 29 -71 109 74 rlineto
          endchar
        </CharString>
        <CharString name="at">
          345 552 698 rmoveto
          -323 -192 -152 -341 -208 99 -150 303 80 58 9 5 33 hvcurveto
          11 74 rlineto
          0 -77 -18 -105 -247 -74 125 170 283 165 133 269 205 111 -96 -153 -135 -63 -133 -103 -26 -11 7 18 9 28 141 40 224 vhcurveto
          -92 hlineto
          -27 -55 rlineto
          -6 hlineto
          44 -26 -41 22 -66 hhcurveto
          -145 -75 -164 -152 -122 62 -62 93 57 55 28 51 33 hvcurveto
          5 -10 hlineto
          -52 53 -16 47 208 79 198 159 197 -138 122 -257 vhcurveto
          -103 -582 rmoveto
          -56 -24 33 62 92 33 126 102 56 27 -33 -65 -68 -35 -147 -103 hvcurveto
          endchar
        </CharString>
        <CharString name="atilde">
          -65 248 642 rmoveto
          -102 callgsubr
          -65 callgsubr
          18 hhcurveto
          221 -529 -105 callsubr
        </CharString>
        <CharString name="b">
          298 -12 rmoveto
          175 79 182 167 138 -71 63 -105 -66 -52 -26 -47 -37 hvcurveto
          -6 hlineto
          45 258 -80 callgsubr
          -127 -723 rlineto
          99 hlineto
          22 70 rlineto
          7 hlineto
          -55 26 57 -27 74 hhcurveto
          -28 100 rmoveto
          -65 -32 39 74 94 43 140 115 67 30 -34 -71 -103 -38 -139 -120 hvcurveto
          endchar
        </CharString>
        <CharString name="backslash">
          -366 122 -49 rmoveto
          88 hlineto
          -51 784 rlineto
          -86 hlineto
          endchar
        </CharString>
        <CharString name="bar">
          -371 90 -173 rmoveto
          93 896 -93 hlineto
          endchar
        </CharString>
        <CharString name="braceleft">
          -274 241 -159 rmoveto
          12 70 rlineto
          -41 -44 9 43 hvcurveto
          19 31 185 34 vvcurveto
          52 -26 30 -71 vhcurveto
          1 10 rlineto
          92 26 37 71 15 hvcurveto
          11 53 22 91 10 55 rrcurveto
          54 10 55 11 42 hhcurveto
          12 70 rlineto
          -134 -70 -22 -126 -22 hvcurveto
          -35 -194 rlineto
          -45 -8 -50 -15 -43 hhcurveto
          -17 -90 rlineto
          41 42 -12 -38 hvcurveto
          -28 -39 -161 -51 vvcurveto
          -94 70 -18 108 vhcurveto
          endchar
        </CharString>
        <CharString name="braceright">
          -274 -49 -159 rmoveto
          134 71 22 126 22 hvcurveto
          34 194 rlineto
          45 8 50 15 44 hhcurveto
          16 90 rlineto
          -40 -43 12 38 hvcurveto
          28 40 161 51 vvcurveto
          94 -70 18 -109 vhcurveto
          -11 -70 rlineto
          40 45 -9 -43 hvcurveto
          -19 -32 -185 -34 vvcurveto
          -52 27 -30 71 vhcurveto
          -2 -10 rlineto
          -92 -25 -37 -71 -16 hvcurveto
          -11 -53 -21 -91 -10 -55 rrcurveto
          -54 -10 -56 -11 -42 hhcurveto
          endchar
        </CharString>
        <CharString name="bracketleft">
          -330 -14 -161 rmoveto
          205 hlineto
          14 85 rlineto
          -103 -39 callgsubr
          726 rlineto
          103 hlineto
          14 85 rlineto
          -206 hlineto
          endchar
        </CharString>
        <CharString name="bracketright">
          -330 -54 -161 rmoveto
          205 hlineto
          157 896 rlineto
          -206 hlineto
          -14 -85 rlineto
          103 hlineto
          -129 -726 rlineto
          -102 hlineto
          endchar
        </CharString>
        <CharString name="breve">
          -311 165 -82 callsubr
          endchar
        </CharString>
        <CharString name="brokenbar">
          -371 90 357 rmoveto
          93 366 -93 hlineto
          -896 vmoveto
          93 366 -93 hlineto
          endchar
        </CharString>
        <CharString name="bullet">
          -294 169 212 rmoveto
          80 58 63 75 69 -55 56 -71 -81 -57 -64 -75 -69 55 -55 71 hvcurveto
          endchar
        </CharString>
        <CharString name="c">
          -107 243 -12 -89 callgsubr
        </CharString>
        <CharString name="cacute">
          -107 262 591 -93 callgsubr
          -123 -735 -89 callgsubr
        </CharString>
        <CharString name="cacute.loclPLK">
          -107 254 591 -59 callsubr
          -59 -735 -89 callgsubr
        </CharString>
        <CharString name="caron">
          -311 100 588 -93 callsubr
          endchar
        </CharString>
        <CharString name="ccaron">
          -107 259 588 -93 callsubr
          66 -735 -89 callgsubr
        </CharString>
        <CharString name="ccedilla">
          -107 503 329 rmoveto
          2 15 1 15 14 vvcurveto
          105 -75 60 -137 -199 -77 -175 -174 -116 52 -64 109 -16 vhcurveto
          -24 -70 -61 callgsubr
          -41 callsubr
          7 22 129 4 77 77 20 128 rlinecurve
          -116 hlineto
          -65 -12 -39 -47 -72 hhcurveto
          -68 -31 36 76 21 2 23 6 35 hvcurveto
          97 18 42 68 87 hhcurveto
          62 24 -34 -51 -9 -1 -9 -1 -9 hvcurveto
          endchar
        </CharString>
        <CharString name="ccircumflex">
          -107 147 -73 callsubr
          -33 -735 -89 callgsubr
        </CharString>
        <CharString name="cdotaccent">
          -107 256 -45 callsubr
          -34 -736 -89 callgsubr
        </CharString>
        <CharString name="cedilla">
          -311 134 -3 callgsubr
          -41 callsubr
          15 45 rlineto
          -77 hlineto
          -30 -88 -61 callgsubr
          endchar
        </CharString>
        <CharString name="cent">
          -88 191 -49 rmoveto
          51 hlineto
          21 116 139 1 78 79 21 129 rlinecurve
          -116 hlineto
          -10 -59 -34 -44 -61 -8 62 353 rcurveline
          44 -8 18 -31 -44 vvcurveto
          -8 0 -9 -1 -10 vhcurveto
          121 hlineto
          2 16 1 15 14 vvcurveto
          92 -58 58 -109 11 vhcurveto
          19 109 rlineto
          -51 hlineto
          -19 -106 rlineto
          -194 -4 -75 -173 -172 vvcurveto
          -120 56 -64 116 -14 vhcurveto
          18 97 rmoveto
          -46 11 -21 35 64 vvcurveto
          19 2 22 6 33 vhcurveto
          15 88 35 66 71 12 rrcurveto
          endchar
        </CharString>
        <CharString name="circumflex">
          -311 -5 -73 callsubr
          endchar
        </CharString>
        <CharString name="colon">
          -330 109 399 -25 callsubr
          -93 -526 -25 callsubr
          endchar
        </CharString>
        <CharString name="comma">
          -366 -4 -43 callsubr
          49 hlineto
          endchar
        </CharString>
        <CharString name="copyright">
          -51 callsubr
          87 vmoveto
          115 44 77 86 hvcurveto
          -70 hlineto
          -65 -25 -36 -64 -73 -30 42 106 107 32 41 71 65 20 -32 -69 vhcurveto
          74 hlineto
          106 -46 57 -113 -122 -56 -66 -144 -144 55 -66 123 vhcurveto
          endchar
        </CharString>
        <CharString name="currency">
          -88 74 99 rmoveto
          55 58 rlineto
          -37 40 55 -18 54 hhcurveto
          54 55 18 37 40 hvcurveto
          55 -58 45 45 -54 56 rlineto
          34 42 16 54 55 vvcurveto
          55 -16 56 -34 39 vhcurveto
          55 54 -48 48 -57 -56 rlineto
          33 -38 -54 18 -53 hhcurveto
          -53 -54 -18 -33 -38 hvcurveto
          -57 56 -48 -48 55 -54 rlineto
          -34 -39 -16 -56 -55 vvcurveto
          -55 16 -54 34 -42 vhcurveto
          -54 -56 rlineto
          249 37 rmoveto
          -91 -72 79 91 89 73 79 90 90 73 -79 -89 -91 -72 -79 -91 hvcurveto
          endchar
        </CharString>
        <CharString name="d">
          -75 callgsubr
          36 103 -19 callsubr
        </CharString>
        <CharString name="dagger">
          -88 141 -172 rmoveto
          107 hlineto
          86 599 202 -18 19 106 -208 -17 49 188 rlineto
          -101 hlineto
          -17 -188 -201 17 -19 -106 207 18 rlineto
          endchar
        </CharString>
        <CharString name="daggerdbl">
          -88 142 -172 rmoveto
          101 hlineto
          18 190 201 -17 19 106 -208 -18 49 171 11 167 201 -18 19 106 -207 -17 49 188 rlineto
          -101 hlineto
          -18 -188 -201 17 -18 -106 206 18 -48 -167 -11 -171 -201 18 -17 -106 206 17 rlineto
          endchar
        </CharString>
        <CharString name="dcaron">
          42 -75 callgsubr
          399 471 rmoveto
          63 hlineto
          79 123 18 104 -80 callgsubr
          -19 -115 rlineto
          47 hlineto
          -431 -480 -19 callsubr
        </CharString>
        <CharString name="dcroat">
          205 -12 rmoveto
          61 57 30 52 40 hvcurveto
          6 -70 97 hlineto
          104 590 rlineto
          62 -2 callgsubr
          -63 hlineto
          12 65 -80 callgsubr
          -11 -65 rlineto
          -148 hlineto
          -12 -68 rlineto
          148 hlineto
          -22 -125 rlineto
          -6 hlineto
          47 -31 -47 26 -78 hhcurveto
          -164 -83 -178 -164 -145 70 -63 116 hvcurveto
          36 103 -19 callsubr
        </CharString>
        <CharString name="degree">
          -244 209 401 rmoveto
          83 65 65 83 83 -65 66 -83 -83 -66 -66 -83 -83 66 -65 83 hvcurveto
          72 vmoveto
          -43 -34 34 42 43 34 33 43 42 33 -33 -43 -42 -33 -34 -42 hvcurveto
          endchar
        </CharString>
        <CharString name="dieresis">
          -311 2 -71 callsubr
          endchar
        </CharString>
        <CharString name="divide">
          -95 235 405 rmoveto
          113 hlineto
          20 107 rlineto
          -113 hlineto
          -233 -305 -21 callgsubr
          -472 hlineto
          125 -303 rmoveto
          113 hlineto
          19 106 rlineto
          -113 hlineto
          endchar
        </CharString>
        <CharString name="dollar">
          -88 185 -49 rmoveto
          51 hlineto
          20 116 rlineto
          123 1 113 51 137 vvcurveto
          98 -96 25 -81 20 vhcurveto
          22 121 rlineto
          40 -5 20 -20 -28 vvcurveto
          -4 0 -6 -2 -5 vhcurveto
          117 hlineto
          1 2 6 21 20 vvcurveto
          65 -64 45 -101 10 vhcurveto
          19 108 rlineto
          -51 hlineto
          -19 -106 rlineto
          -126 -3 -99 -62 -112 vvcurveto
          -93 90 -25 79 -21 vhcurveto
          -25 -138 rlineto
          -42 5 -34 18 40 vvcurveto
          3 1 10 3 6 vhcurveto
          -117 hlineto
          -4 -11 -3 -17 -13 vvcurveto
          -73 59 -53 121 -10 vhcurveto
          61 344 rmoveto
          -38 11 -26 14 27 vvcurveto
          26 25 26 58 5 vhcurveto
          -13 -359 rmoveto
          22 126 rlineto
          41 -13 31 -17 -31 vvcurveto
          -42 -45 -18 -49 -5 vhcurveto
          endchar
        </CharString>
        <CharString name="dotaccent">
          -311 97 -45 callsubr
          endchar
        </CharString>
        <CharString name="dotbelowcomb">
          -644 -312 -173 -92 callgsubr
          endchar
        </CharString>
        <CharString name="dotlessi">
          -366 21 hmoveto
          -68 callgsubr
          endchar
        </CharString>
        <CharString name="e">
          -88 254 -12 -105 callgsubr
          endchar
        </CharString>
        <CharString name="eacute">
          -88 267 591 -93 callgsubr
          -117 -735 -105 callgsubr
          endchar
        </CharString>
        <CharString name="ebreve">
          -88 318 -82 callsubr
          -64 -605 -105 callgsubr
          endchar
        </CharString>
        <CharString name="ecaron">
          -88 264 588 -93 callsubr
          72 -735 -105 callgsubr
          endchar
        </CharString>
        <CharString name="ecircumflex">
          -88 -14 callgsubr
          -27 -735 -105 callgsubr
          endchar
        </CharString>
        <CharString name="edieresis">
          -88 168 -71 callsubr
          -135 -735 -105 callgsubr
          endchar
        </CharString>
        <CharString name="edotaccent">
          -88 261 -45 callsubr
          -28 -736 -105 callgsubr
          endchar
        </CharString>
        <CharString name="egrave">
          -88 273 591 -81 callgsubr
          66 -732 -105 callgsubr
          endchar
        </CharString>
        <CharString name="eight">
          -88 233 -12 rmoveto
          178 87 107 122 60 -26 47 -60 28 hvcurveto
          81 37 43 69 76 vvcurveto
          93 -67 71 -141 -153 -96 -104 -118 -52 22 -45 47 -27 vhcurveto
          -95 -36 -48 -75 -91 vvcurveto
          -92 65 -70 163 vhcurveto
          55 411 rmoveto
          -57 -31 27 49 79 52 47 72 57 32 -28 -49 -81 -56 -44 -69 hvcurveto
          -55 -314 rmoveto
          -67 -35 31 52 83 56 51 84 68 35 -30 -54 -86 -66 -47 -75 hvcurveto
          endchar
        </CharString>
        <CharString name="ellipsis">
          356 54 hmoveto
          125 -36 callgsubr
          -6 callgsubr
          309 -127 rmoveto
          125 -36 callgsubr
          -6 callgsubr
          309 -127 rmoveto
          125 -36 callgsubr
          -125 hlineto
          endchar
        </CharString>
        <CharString name="emacron">
          -88 171 617 -66 callsubr
          68 -711 -105 callgsubr
          endchar
        </CharString>
        <CharString name="emdash">
          -4 callgsubr
        </CharString>
        <CharString name="endash">
          -88 -12 225 rmoveto
          555 hlineto
          16 90 rlineto
          -556 hlineto
          endchar
        </CharString>
        <CharString name="eng">
          319 -3 callgsubr
          97 35 68 66 12 hvcurveto
          66 373 rlineto
          5 29 4 26 24 vvcurveto
          97 -67 37 -85 -69 -66 -37 -46 -38 vhcurveto
          -17 callgsubr
          -93 -526 -9 callsubr
          50 283 rlineto
          97 17 66 54 73 hhcurveto
          43 28 -17 -50 -14 -3 -17 -3 -18 hvcurveto
          -63 -358 rlineto
          -29 -5 -17 -16 -30 hhcurveto
          -49 hlineto
          -14 -82 4 callgsubr
          39 -7 31 hhcurveto
          endchar
        </CharString>
        <CharString name="eogonek">
          -88 360 -31 callgsubr
          9 54 rlineto
          -21 hlineto
          -29 -18 22 25 31 12 43 44 44 hvcurveto
          35 35 20 40 10 58 rrcurveto
          -118 hlineto
          -70 -12 -47 -31 -66 hhcurveto
          -77 -33 35 73 13 0 14 3 16 hvcurveto
          359 0 callsubr
          -142 -205 -79 -170 -178 -35 callsubr
          157 19 18 1 4 19 vhcurveto
          -23 -26 -18 -31 -38 vvcurveto
          -61 45 -19 46 vhcurveto
          -200 501 rmoveto
          81 22 46 43 77 hhcurveto
          55 36 -26 -63 -10 -1 -13 -2 -12 hvcurveto
          endchar
        </CharString>
        <CharString name="equal">
          -60 61 311 -4 callsubr
          98 rlineto
          -472 hlineto
          -54 -310 -21 callgsubr
          -472 hlineto
          endchar
        </CharString>
        <CharString name="equivalence">
          -61 78 439 rmoveto
          473 hlineto
          17 97 rlineto
          -473 hlineto
          -55 -310 rmoveto
          473 hlineto
          18 97 rlineto
          -473 hlineto
          -55 -309 rmoveto
          473 hlineto
          17 96 rlineto
          -473 hlineto
          endchar
        </CharString>
        <CharString name="estimated">
          -44 302 -12 rmoveto
          104 78 50 80 42 hvcurveto
          -34 21 rlineto
          -67 -34 -68 -42 -88 hhcurveto
          -62 -50 19 34 -37 hvcurveto
          165 406 5 vlineto
          165 -98 120 -159 -160 -97 -116 -159 -159 97 -116 160 vhcurveto
          -149 302 rmoveto
          152 vlineto
          34 37 50 20 62 hhcurveto
          61 50 -20 -35 38 hvcurveto
          -151 vlineto
          endchar
        </CharString>
        <CharString name="eth">
          256 -12 rmoveto
          220 75 164 193 99 -33 91 -53 76 hvcurveto
          100 6 13 69 -166 -12 -13 17 -17 16 -17 16 rlinecurve
          -136 hlineto
          -4 -5 19 -18 20 -17 17 -18 rlinecurve
          -102 -8 -11 -68 163 12 20 -28 17 -27 12 -28 rlinecurve
          -4 -3 rlineto
          11 -28 -33 5 -36 hhcurveto
          -69 -59 -25 -45 -42 hvcurveto
          -59 -62 -31 -98 -111 vvcurveto
          -35 callsubr
          158 vhcurveto
          1 98 rmoveto
          -79 -34 36 75 21 2 22 6 33 hvcurveto
          97 17 45 63 97 hhcurveto
          79 35 -36 -75 -21 -2 -23 -6 -33 hvcurveto
          -97 -18 -46 -62 -96 hhcurveto
          endchar
        </CharString>
        <CharString name="exclam">
          -330 92 188 -10 callgsubr
          -113 -686 rmoveto
          124 -36 callgsubr
          -125 hlineto
          endchar
        </CharString>
        <CharString name="exclamdbl">
          -76 92 188 -10 callgsubr
          224 -498 -10 callgsubr
          -394 -686 rmoveto
          124 -36 callgsubr
          -125 hlineto
          259 -127 rmoveto
          124 -36 callgsubr
          -125 hlineto
          endchar
        </CharString>
        <CharString name="exclamdown">
          -311 134 399 rmoveto
          125 -36 callgsubr
          -125 hlineto
          -128 -686 rmoveto
          139 hlineto
          57 498 rlineto
          -75 hlineto
          endchar
        </CharString>
        <CharString name="f">
          -330 -12 -3 callgsubr
          -20 callsubr
          96 hlineto
          18 98 rlineto
          -96 hlineto
          11 62 -78 callgsubr
          endchar
        </CharString>
        <CharString name="f_f">
          -16 616 633 rmoveto
          51 hlineto
          15 83 rlineto
          8 -20 -37 7 -31 hhcurveto
          -101 -37 -69 -68 -12 hvcurveto
          -11 -68 rlineto
          -194 hlineto
          11 62 -78 callgsubr
          -20 callsubr
          194 hlineto
          -75 -428 -9 callsubr
          75 428 rlineto
          96 hlineto
          17 98 rlineto
          -95 hlineto
          11 62 rlineto
          29 5 17 16 4 callsubr
        </CharString>
        <CharString name="fi">
          -71 -12 -3 callgsubr
          -20 callsubr
          96 hlineto
          18 98 rlineto
          -96 hlineto
          11 62 -78 callgsubr
          446 790 -54 callgsubr
          -127 -41 callgsubr
        </CharString>
        <CharString name="five">
          -88 235 -12 rmoveto
          148 119 104 177 121 -73 56 -103 -62 -43 -21 -19 -28 hvcurveto
          42 171 rlineto
          290 hlineto
          19 109 rlineto
          -395 hlineto
          -94 -380 110 -15 rlineto
          33 29 41 26 52 hhcurveto
          54 36 -32 -62 -118 -74 -52 -72 -59 -36 36 60 9 1 11 2 11 hvcurveto
          -6 callgsubr
          -3 -17 -1 -15 -15 vvcurveto
          -113 85 -65 139 vhcurveto
          endchar
        </CharString>
        <CharString name="fiveeighths">
          190 45 -11 callsubr
          -538 -378 rmoveto
          80 63 54 94 66 -40 31 -53 -26 -22 -7 -8 -14 hvcurveto
          17 68 rlineto
          148 -2 callgsubr
          -213 hlineto
          -50 -198 67 -9 rlineto
          14 16 16 9 22 hhcurveto
          25 17 -12 -28 -52 -33 -26 -32 -26 -17 15 24 5 1 4 1 5 hvcurveto
          -77 hlineto
          -2 -9 0 -8 -8 vvcurveto
          -58 45 -34 75 vhcurveto
          434 -332 rmoveto
          92 48 55 65 30 -12 26 -28 16 hvcurveto
          39 22 22 33 36 vvcurveto
          51 -36 39 -78 -81 -51 -53 -61 -26 12 -25 21 -16 vhcurveto
          -49 -20 -21 -37 -43 vvcurveto
          -53 34 -39 88 vhcurveto
          29 222 rmoveto
          -25 -12 -31 callsubr
          -31 1 callsubr
          -33 hvcurveto
          endchar
        </CharString>
        <CharString name="fl">
          -71 -12 -3 callgsubr
          -20 callsubr
          96 hlineto
          18 98 rlineto
          -96 hlineto
          11 62 -78 callgsubr
          339 182 rmoveto
          -44 callgsubr
          endchar
        </CharString>
        <CharString name="florin">
          -88 44 -183 rmoveto
          107 42 59 78 24 hvcurveto
          130 432 rlineto
          96 hlineto
          28 99 rlineto
          -95 hlineto
          31 103 rlineto
          29 9 20 16 30 hhcurveto
          51 hlineto
          24 83 rlineto
          8 -17 -33 7 -29 hhcurveto
          -107 -41 -58 -79 -25 hvcurveto
          -33 -109 rlineto
          -76 hlineto
          -28 -99 rlineto
          75 hlineto
          -128 -426 rlineto
          -29 -9 -19 -16 -30 hhcurveto
          -51 hlineto
          -24 -83 rlineto
          -8 17 33 -7 28 hhcurveto
          endchar
        </CharString>
        <CharString name="four">
          -88 265 hmoveto
          -54 callsubr
          28 154 rlineto
          85 hlineto
          17 98 rlineto
          -86 hlineto
          61 344 rlineto
          -57 hlineto
          -24 -53 -36 -70 -34 -50 -30 -171 rcurveline
          -190 hlineto
          51 55 152 212 74 179 rrcurveto
          -134 hlineto
          -71 -170 -81 -144 -103 -131 -16 -99 rcurveline
          302 hlineto
          endchar
        </CharString>
        <CharString name="fraction">
          -5 callsubr
        </CharString>
        <CharString name="franc">
          -88 6 hmoveto
          126 hlineto
          48 275 rlineto
          102 hlineto
          -48 -275 -9 callsubr
          37 212 rlineto
          97 17 44 45 63 hhcurveto
          37 hlineto
          20 113 rlineto
          0 -16 9 -25 -53 -36 -45 -50 -24 vhcurveto
          -7 hlineto
          2 83 rlineto
          -97 -23 callgsubr
          -102 hlineto
          35 199 rlineto
          228 hlineto
          18 106 rlineto
          -353 hlineto
          endchar
        </CharString>
        <CharString name="g">
          207 -182 -101 callsubr
        </CharString>
        <CharString name="g_tilde.loclGUA">
          156 607 rmoveto
          -65 callgsubr
          18 -102 callgsubr
          51 -789 -101 callsubr
        </CharString>
        <CharString name="gbreve">
          318 -82 callsubr
          -111 -775 -101 callsubr
        </CharString>
        <CharString name="gcaron">
          264 588 -93 callsubr
          25 -905 -101 callsubr
        </CharString>
        <CharString name="gcircumflex">
          -14 callgsubr
          -74 -905 -101 callsubr
        </CharString>
        <CharString name="gcommaaccent">
          263 593 rmoveto
          121 hlineto
          17 96 rlineto
          -46 hlineto
          63 91 rlineto
          -63 hlineto
          -77 -102 rlineto
          -71 -860 -101 callsubr
        </CharString>
        <CharString name="gdotaccent">
          261 -45 callsubr
          -75 -906 -101 callsubr
        </CharString>
        <CharString name="germandbls">
          -33 8 hmoveto
          -54 callsubr
          91 519 rlineto
          77 14 56 42 76 hhcurveto
          70 32 -36 -52 -66 -55 -49 -68 hvcurveto
          -72 hlineto
          -19 -104 rlineto
          78 hlineto
          64 41 -42 -60 -68 -56 -63 -89 hvcurveto
          -78 -2 callsubr
          93 hlineto
          159 109 93 137 83 -37 53 -72 26 hvcurveto
          4 vlineto
          87 26 57 66 82 vvcurveto
          104 -83 61 -143 -66 -63 -16 -37 -48 vhcurveto
          -45 -35 -32 -56 -14 -78 rrcurveto
          endchar
        </CharString>
        <CharString name="grave">
          -311 171 591 -81 callgsubr
          endchar
        </CharString>
        <CharString name="greater">
          -60 7 3 rmoveto
          509 196 21 120 -439 197 7 callsubr
          endchar
        </CharString>
        <CharString name="greaterequal">
          -95 3 124 rmoveto
          509 197 21 120 -439 196 7 callsubr
          -40 -236 -21 callgsubr
          -472 hlineto
          endchar
        </CharString>
        <CharString name="guillemotleft">
          -88 165 126 -28 callgsubr
          326 -200 -28 callgsubr
          endchar
        </CharString>
        <CharString name="guillemotright">
          -88 9 126 -29 callsubr
          60 -200 -29 callsubr
          endchar
        </CharString>
        <CharString name="guilsinglleft">
          -311 165 126 -28 callgsubr
          endchar
        </CharString>
        <CharString name="guilsinglright">
          -311 9 126 -29 callsubr
          endchar
        </CharString>
        <CharString name="h">
          16 hmoveto
          -74 callsubr
          -64 -60 -32 -40 -38 vhcurveto
          -6 hlineto
          45 257 -80 callgsubr
          endchar
        </CharString>
        <CharString name="hbar">
          16 hmoveto
          -74 callsubr
          -64 -60 -32 -40 -38 vhcurveto
          -6 hlineto
          21 124 rlineto
          149 -2 callgsubr
          -149 hlineto
          12 65 -80 callgsubr
          -12 -65 rlineto
          -61 hlineto
          -12 -68 rlineto
          61 hlineto
          endchar
        </CharString>
        <CharString name="hcircumflex">
          41 748 -102 callsubr
          -154 -883 rmoveto
          -74 callsubr
          -64 -60 -32 -40 -38 vhcurveto
          -6 hlineto
          45 257 -80 callgsubr
          endchar
        </CharString>
        <CharString name="hookabovecomb">
          -644 -155 591 rmoveto
          -99 callgsubr
          -40 callgsubr
          hvcurveto
          -14 hlineto
          endchar
        </CharString>
        <CharString name="house">
          -40 77 hmoveto
          450 310 hlineto
          -225 253 -225 -253 rlineto
          59 -250 rmoveto
          226 vlineto
          166 189 166 -189 rlineto
          -226 vlineto
          endchar
        </CharString>
        <CharString name="hungarumlaut">
          -311 591 vmoveto
          -60 callsubr
          endchar
        </CharString>
        <CharString name="hyphen">
          -8 callsubr
        </CharString>
        <CharString name="i">
          -27 callsubr
          endchar
        </CharString>
        <CharString name="i.loclTRK">
          -366 128 -45 callsubr
          -128 -724 -66 callgsubr
        </CharString>
        <CharString name="iacute">
          -366 119 591 rmoveto
          99 hlineto
          131 -42 callsubr
          -6 callgsubr
          -203 -41 callgsubr
        </CharString>
        <CharString name="iacute_j.loclNLD">
          -107 134 591 -93 callgsubr
          166 -132 -93 callgsubr
          -487 -18 callgsubr
          144 -708 -84 callsubr
        </CharString>
        <CharString name="ibreve">
          -366 185 -82 callsubr
          -164 -593 -66 callgsubr
        </CharString>
        <CharString name="icircumflex">
          -366 16 588 rmoveto
          110 hlineto
          66 72 -90 callsubr
          -109 hlineto
          -123 -41 callgsubr
        </CharString>
        <CharString name="idieresis">
          -366 29 -71 callsubr
          -229 -41 callgsubr
        </CharString>
        <CharString name="igrave">
          -366 147 591 rmoveto
          92 hlineto
          -59 -29 callgsubr
          -117 hlineto
          -1 -3 rlineto
          -41 -720 -66 callgsubr
        </CharString>
        <CharString name="ij">
          -126 -24 callsubr
          239 -115 -54 callgsubr
          -386 -18 callgsubr
          133 -708 -84 callsubr
        </CharString>
        <CharString name="imacron">
          -366 31 639 rmoveto
          305 hlineto
          14 82 rlineto
          -305 hlineto
          -24 -721 -66 callgsubr
        </CharString>
        <CharString name="infinity">
          69 173 139 rmoveto
          66 52 41 54 52 hvcurveto
          -72 42 55 -23 55 hhcurveto
          93 79 76 111 79 -54 51 -78 -72 -53 -54 -39 -39 hvcurveto
          56 -35 -45 37 -72 hhcurveto
          -100 -76 -81 -104 -80 53 -52 77 hvcurveto
          16 80 rmoveto
          -34 -23 28 37 55 45 37 39 42 21 -25 -57 29 hvcurveto
          -38 -35 -41 -37 -43 hhcurveto
          308 hmoveto
          -37 -25 20 59 -33 hvcurveto
          51 51 30 27 38 hhcurveto
          35 22 -28 -37 -38 -30 -54 -51 hvcurveto
          endchar
        </CharString>
        <CharString name="integral">
          -370 -62 -141 rmoveto
          122 57 17 95 17 hvcurveto
          26 150 81 619 0 vvcurveto
          43 8 38 14 45 hhcurveto
          12 62 rlineto
          -122 -60 -18 -94 -16 hvcurveto
          -27 -151 -81 -616 0 vvcurveto
          -44 -8 -35 -14 -45 hhcurveto
          endchar
        </CharString>
        <CharString name="integralbt">
          -40 82 -250 rmoveto
          120 60 18 94 17 hvcurveto
          14 80 78 477 70 440 rrcurveto
          -100 hlineto
          -76 -474 -81 -516 0 vvcurveto
          -43 -8 -38 -14 -45 hhcurveto
          endchar
        </CharString>
        <CharString name="integraltp">
          -40 162 -250 rmoveto
          100 hlineto
          76 474 81 516 0 vvcurveto
          43 8 38 14 45 hhcurveto
          11 62 -70 callsubr
          -60 -18 -94 -17 hvcurveto
          -14 -80 -79 -477 -69 -440 rrcurveto
          endchar
        </CharString>
        <CharString name="intersection">
          77 40 hmoveto
          86 hlineto
          72 410 rlineto
          106 18 89 78 109 hhcurveto
          90 58 -62 -87 -11 -1 -12 -2 -12 hvcurveto
          -72 -410 rlineto
          85 hlineto
          72 410 rlineto
          3 17 1 15 16 vvcurveto
          126 -98 92 -141 -139 -130 -107 -159 -28 vhcurveto
          endchar
        </CharString>
        <CharString name="iogonek">
          -366 149 724 rmoveto
          -21 -118 rlineto
          118 hlineto
          21 118 rlineto
          -246 -724 rmoveto
          1 hlineto
          -34 -26 -35 -35 -53 -52 callgsubr
          39 -63 callsubr
          endchar
        </CharString>
        <CharString name="itilde">
          -366 5 607 rmoveto
          -65 callgsubr
          17 48 36 -35 52 hhcurveto
          65 35 54 62 11 hvcurveto
          -68 hlineto
          -26 -8 -13 -9 -18 -48 -35 35 -53 hhcurveto
          -64 -35 -54 -62 -10 hvcurveto
          16 -607 -66 callgsubr
        </CharString>
        <CharString name="j">
          -5 callgsubr
          -160 -905 -84 callsubr
        </CharString>
        <CharString name="jcircumflex">
          -385 4 588 rmoveto
          -46 callsubr
          65 72 44 -72 rlineto
          100 hlineto
          -82 135 rlineto
          -109 hlineto
          -153 -905 -84 callsubr
        </CharString>
        <CharString name="k">
          -48 callgsubr
          74 423 -80 callgsubr
          endchar
        </CharString>
        <CharString name="kcommaaccent">
          -48 callgsubr
          74 423 -80 callgsubr
          -953 vmoveto
          -74 callgsubr
        </CharString>
        <CharString name="kgreenlandic">
          -48 callgsubr
          39 226 -80 callgsubr
          endchar
        </CharString>
        <CharString name="l">
          -385 -30 callgsubr
          endchar
        </CharString>
        <CharString name="lacute">
          -385 159 751 -93 callgsubr
          -250 -883 rmoveto
          -44 callgsubr
          endchar
        </CharString>
        <CharString name="lcaron">
          -291 -30 callgsubr
          130 -264 rmoveto
          63 hlineto
          80 123 18 104 -80 callgsubr
          -20 -115 -21 callsubr
        </CharString>
        <CharString name="lcommaaccent">
          -385 -30 callgsubr
          -167 -953 rmoveto
          -74 callgsubr
        </CharString>
        <CharString name="ldot">
          -305 -30 callgsubr
          94 -429 rmoveto
          124 -36 callgsubr
          -6 callgsubr
          endchar
        </CharString>
        <CharString name="less">
          -60 479 3 rmoveto
          18 104 -353 149 406 148 19 112 -508 -197 -22 -120 rlineto
          endchar
        </CharString>
        <CharString name="lessequal">
          -95 476 123 rmoveto
          19 105 -353 148 406 148 19 112 -509 -197 -21 -120 rlineto
          -54 -319 -21 callgsubr
          -473 hlineto
          endchar
        </CharString>
        <CharString name="lira">
          5 callgsubr
          29 96 rlineto
          161 hlineto
          14 85 rlineto
          -160 hlineto
          11 61 rlineto
          161 hlineto
          15 85 rlineto
          -160 hlineto
          15 85 -28 callsubr
          -81 -61 -138 -24 vhcurveto
          -12 -71 rlineto
          -78 hlineto
          -15 -85 rlineto
          78 hlineto
          -11 -61 rlineto
          -78 hlineto
          -14 -85 rlineto
          77 hlineto
          -17 -96 rlineto
          -66 hlineto
          endchar
        </CharString>
        <CharString name="logicalnot">
          -60 421 194 rmoveto
          93 hlineto
          46 260 rlineto
          -490 hlineto
          -18 -96 rlineto
          398 hlineto
          endchar
        </CharString>
        <CharString name="longs">
          -366 -12 -3 callgsubr
          102 36 69 68 12 hvcurveto
          112 633 -78 callgsubr
          endchar
        </CharString>
        <CharString name="lozenge">
          -44 151 -133 rmoveto
          -54 callsubr
          254 431 -102 430 -80 callgsubr
          -255 -430 rlineto
          179 -320 rmoveto
          -67 310 187 329 67 -309 rlineto
          endchar
        </CharString>
        <CharString name="lslash">
          -385 14 hmoveto
          -54 callsubr
          61 348 78 51 17 93 -78 -51 49 282 -80 callgsubr
          -64 -368 -78 -51 -16 -93 77 50 rlineto
          endchar
        </CharString>
        <CharString name="m">
          226 16 hmoveto
          -54 callsubr
          51 291 rlineto
          84 15 56 59 62 hhcurveto
          39 26 -17 -48 -13 -2 6 callsubr
          51 291 rlineto
          84 15 54 59 63 hhcurveto
          39 27 -17 -48 -13 -3 6 callsubr
          60 336 rlineto
          5 26 3 23 21 vvcurveto
          96 -57 36 -83 -68 -58 -36 -47 -41 vhcurveto
          -7 hlineto
          58 -17 -48 25 -64 hhcurveto
          -67 -54 -35 -48 -40 hvcurveto
          -17 callgsubr
          endchar
        </CharString>
        <CharString name="macron">
          -311 3 617 -66 callsubr
          endchar
        </CharString>
        <CharString name="minus">
          -60 41 207 -21 callgsubr
          -472 hlineto
          endchar
        </CharString>
        <CharString name="minute">
          -422 75 509 -14 callsubr
          endchar
        </CharString>
        <CharString name="multiply">
          -60 108 38 rmoveto
          176 148 119 -145 75 66 -120 144 176 149 -59 73 -176 -149 -119 145 -75 -66 120 -145 -176 -147 rlineto
          endchar
        </CharString>
        <CharString name="n">
          16 hmoveto
          -85 callgsubr
        </CharString>
        <CharString name="nacute">
          302 591 -93 callgsubr
          -390 -723 rmoveto
          -85 callgsubr
        </CharString>
        <CharString name="nacute.loclPLK">
          294 591 -59 callsubr
          -326 -723 rmoveto
          -85 callgsubr
        </CharString>
        <CharString name="napostrophe">
          28 25 459 rmoveto
          62 -20 callgsubr
          45 hlineto
          6 -571 rmoveto
          -85 callgsubr
        </CharString>
        <CharString name="ncaron">
          299 588 -93 callsubr
          -201 -723 rmoveto
          -85 callgsubr
        </CharString>
        <CharString name="ncommaaccent">
          16 hmoveto
          -77 callsubr
          41 -756 rmoveto
          -74 callgsubr
        </CharString>
        <CharString name="nine">
          -88 224 -12 rmoveto
          150 101 90 282 46 hvcurveto
          8 47 4 41 35 vvcurveto
          160 -83 55 -139 -140 -119 -108 -166 -107 57 -71 128 74 53 39 21 24 vhcurveto
          -135 -26 -33 -85 -101 hhcurveto
          -54 -24 28 51 11 2 12 2 14 hvcurveto
          -121 hlineto
          -3 -18 -2 -18 -17 vvcurveto
          -94 58 -67 138 vhcurveto
          46 354 rmoveto
          -65 -26 39 57 86 50 76 88 65 30 -40 -58 -91 -56 -69 -86 hvcurveto
          endchar
        </CharString>
        <CharString name="notequal">
          -95 68 25 rmoveto
          86 hlineto
          53 74 rlineto
          276 hlineto
          17 97 rlineto
          -225 hlineto
          83 115 rlineto
          162 hlineto
          17 98 rlineto
          -111 hlineto
          54 75 rlineto
          -86 hlineto
          -54 -75 rlineto
          -275 -2 callsubr
          223 hlineto
          -82 -115 rlineto
          -162 hlineto
          -17 -97 rlineto
          -46 callsubr
          endchar
        </CharString>
        <CharString name="ntilde">
          191 607 rmoveto
          -65 callgsubr
          18 -102 callgsubr
          -175 -607 rmoveto
          -85 callgsubr
        </CharString>
        <CharString name="numbersign">
          -88 41 -12 rmoveto
          94 hlineto
          38 181 rlineto
          131 hlineto
          -37 -181 rlineto
          95 hlineto
          37 181 rlineto
          99 96 -79 hlineto
          28 135 rlineto
          97 96 -77 7 callgsubr
          -132 7 callgsubr
          -92 -96 71 hlineto
          -28 -135 rlineto
          -89 -96 69 hlineto
          115 96 rmoveto
          28 135 rlineto
          131 hlineto
          -28 -135 rlineto
          endchar
        </CharString>
        <CharString name="o">
          255 -12 -106 callgsubr
        </CharString>
        <CharString name="oacute">
          274 591 -93 callgsubr
          -123 -735 -106 callgsubr
        </CharString>
        <CharString name="oacute.loclPLK">
          266 591 -59 callsubr
          -59 -735 -106 callgsubr
        </CharString>
        <CharString name="obreve">
          325 -82 callsubr
          -70 -605 -106 callgsubr
        </CharString>
        <CharString name="ocircumflex">
          159 -73 callsubr
          -33 -735 -106 callgsubr
        </CharString>
        <CharString name="odieresis">
          175 -71 callsubr
          -141 -735 -106 callgsubr
        </CharString>
        <CharString name="oe">
          300 259 -12 rmoveto
          82 61 31 50 43 hvcurveto
          -56 38 66 -25 96 hhcurveto
          121 97 9 callsubr
          -47 -31 -66 hhcurveto
          -77 -33 35 73 13 0 14 3 16 hvcurveto
          359 hlineto
          6 36 rlineto
          6 28 2 -69 callsubr
          -84 -63 -32 -50 -45 vhcurveto
          56 -38 -67 26 -93 hhcurveto
          -212 -72 -178 -171 -137 81 -64 159 hvcurveto
          292 331 rmoveto
          81 22 46 43 77 hhcurveto
          55 36 -26 -63 -10 -1 -13 -2 -12 hvcurveto
          -531 -233 rmoveto
          -76 -33 37 75 20 1 22 6 33 hvcurveto
          100 20 42 67 95 hhcurveto
          77 34 -37 -76 -21 -2 -22 -6 -34 hvcurveto
          -99 -17 -46 -65 -95 hhcurveto
          endchar
        </CharString>
        <CharString name="ogonek">
          -311 162 -33 callgsubr
        </CharString>
        <CharString name="ograve">
          280 591 -81 callgsubr
          60 -732 -106 callgsubr
        </CharString>
        <CharString name="ohorn">
          536 686 -98 callsubr
          endchar
        </CharString>
        <CharString name="ohungarumlaut">
          193 591 rmoveto
          -60 callsubr
          -200 -735 -106 callgsubr
        </CharString>
        <CharString name="omacron">
          178 617 -66 callsubr
          62 -711 -106 callgsubr
        </CharString>
        <CharString name="one">
          -88 28 hmoveto
          439 hlineto
          18 98 rlineto
          -153 hlineto
          103 588 rlineto
          -58 hlineto
          -76 -39 -106 -33 -61 -6 -13 -74 rcurveline
          168 hlineto
          -77 -436 rlineto
          -167 hlineto
          endchar
        </CharString>
        <CharString name="oneeighth">
          190 55 -11 callsubr
          -671 -369 rmoveto
          236 -2 callgsubr
          -76 hlineto
          51 289 rlineto
          -39 hlineto
          -38 -20 -56 -16 -34 -4 -9 -49 rcurveline
          84 hlineto
          -35 -200 rlineto
          -84 hlineto
          551 -409 rmoveto
          92 49 55 65 30 -13 26 -27 16 hvcurveto
          39 22 22 33 36 vvcurveto
          51 -37 39 -78 -80 -51 -53 -61 -26 11 -25 22 -16 vhcurveto
          -50 -20 -21 -37 -43 vvcurveto
          -53 35 -39 87 vhcurveto
          30 222 rmoveto
          -25 -13 11 22 34 21 20 32 25 15 -12 -22 -34 -26 -19 -29 hvcurveto
          -28 -159 rmoveto
          -30 1 callsubr
          -34 hvcurveto
          endchar
        </CharString>
        <CharString name="onehalf">
          190 46 -37 callgsubr
          -84 hlineto
          409 -398 -1 callgsubr
          114 vvcurveto
          47 -26 46 -84 -77 -26 callsubr
          30 9 -18 -17 -85 -197 -33 -22 -125 hvcurveto
          endchar
        </CharString>
        <CharString name="onequarter">
          190 44 -37 callgsubr
          -85 hlineto
          546 -397 -27 callgsubr
          71 101 38 -8 callgsubr
        </CharString>
        <CharString name="ordfeminine">
          -274 341 468 rmoveto
          5 21 106 26 149 vhcurveto
          -64 hlineto
          -20 -38 rlineto
          -4 hlineto
          31 -17 -28 15 -44 hhcurveto
          -100 -52 -113 -107 -85 43 -42 64 38 37 19 36 23 hvcurveto
          3 hlineto
          -35 22 -20 35 22 16 6 4 9 vhcurveto
          9 52 rlineto
          -21 hlineto
          -10 -8 5 12 hvcurveto
          -149 -11 rmoveto
          -37 -16 22 41 65 23 85 68 38 18 -23 -43 -46 -24 -101 -70 hvcurveto
          endchar
        </CharString>
        <CharString name="ordmasculine">
          -279 211 389 rmoveto
          135 47 111 108 88 -52 40 -102 -135 -45 -112 -108 -87 51 -40 101 hvcurveto
          -3 65 rmoveto
          -47 -22 22 46 13 1 13 4 20 hvcurveto
          62 11 28 42 59 hhcurveto
          48 22 -23 -46 -12 -1 -13 -4 -19 hvcurveto
          -63 -9 -29 -42 -61 hhcurveto
          endchar
        </CharString>
        <CharString name="orthogonal">
          335 128 hmoveto
          625 hlineto
          15 81 rlineto
          -542 hlineto
          97 544 rlineto
          -84 hlineto
          endchar
        </CharString>
        <CharString name="oslash">
          -33 -12 -49 -64 callgsubr
        </CharString>
        <CharString name="oslashacute">
          -33 296 591 -93 callgsubr
          -412 -772 -64 callgsubr
        </CharString>
        <CharString name="otilde">
          163 607 rmoveto
          -65 callgsubr
          18 -102 callgsubr
          92 -619 -106 callgsubr
        </CharString>
        <CharString name="p">
          -24 callgsubr
          -70 63 -116 -61 -57 -30 -52 -40 hvcurveto
          -7 70 -97 hlineto
          167 -438 -19 callgsubr
        </CharString>
        <CharString name="paragraph">
          -95 148 -168 rmoveto
          84 hlineto
          140 793 rlineto
          66 hlineto
          -140 -793 rlineto
          84 hlineto
          140 793 rlineto
          61 hlineto
          11 61 rlineto
          -286 hlineto
          -155 -112 -97 -162 -117 83 -57 98 hvcurveto
          endchar
        </CharString>
        <CharString name="parenleft">
          -311 146 -157 rmoveto
          78 hlineto
          -42 89 -26 116 117 vvcurveto
          202 96 209 129 160 vhcurveto
          -81 hlineto
          -161 -150 -96 -201 -205 vvcurveto
          -124 35 -117 68 -96 vhcurveto
          endchar
        </CharString>
        <CharString name="parenright">
          -311 -69 -157 rmoveto
          80 hlineto
          160 150 97 201 205 vvcurveto
          124 -35 117 -68 96 vhcurveto
          -78 hlineto
          42 -89 26 -115 -116 vvcurveto
          -201 -97 -212 -127 -160 vhcurveto
          endchar
        </CharString>
        <CharString name="partialdiff">
          -150 169 -12 rmoveto
          139 103 149 207 40 hvcurveto
          11 51 6 52 50 vvcurveto
          167 -89 71 -101 -50 -38 -13 -16 -30 vhcurveto
          -16 -94 rlineto
          18 28 36 16 47 hhcurveto
          73 34 -54 -108 -30 -3 -48 -11 -23 hvcurveto
          -4 hlineto
          24 -9 -35 42 -72 hhcurveto
          -96 -124 -115 -184 -91 50 -71 111 hvcurveto
          6 92 rmoveto
          -36 -19 31 48 103 68 100 61 49 23 -42 -34 3 hvcurveto
          -106 -26 -58 -100 -65 hhcurveto
          endchar
        </CharString>
        <CharString name="percent">
          245 224 337 rmoveto
          101 59 55 122 20 hvcurveto
          3 20 1 18 17 vvcurveto
          94 -54 35 -95 -99 -61 -52 -121 -20 vhcurveto
          -4 -22 -2 -21 -18 vvcurveto
          -93 56 -34 95 vhcurveto
          -139 -337 rmoveto
          97 hlineto
          624 -49 callgsubr
          -98 hlineto
          -485 -276 rmoveto
          -39 -15 22 42 14 1 15 5 26 hvcurveto
          54 11 20 42 52 -6 callsubr
          406 -422 rmoveto
          98 59 51 119 21 hvcurveto
          5 22 1 21 19 vvcurveto
          94 -54 35 -96 -97 -60 -50 -119 -21 vhcurveto
          -4 -23 -3 -22 -20 vvcurveto
          -93 55 -34 96 vhcurveto
          -1 73 rmoveto
          -39 -15 22 42 13 1 15 4 25 hvcurveto
          55 11 20 43 53 -6 callsubr
          endchar
        </CharString>
        <CharString name="period">
          -366 22 hmoveto
          124 -36 callgsubr
          -6 callgsubr
          endchar
        </CharString>
        <CharString name="periodcentered">
          -311 100 294 rmoveto
          124 -36 callgsubr
          -6 callgsubr
          endchar
        </CharString>
        <CharString name="perthousand">
          356 174 339 rmoveto
          88 52 53 120 20 hvcurveto
          4 23 2 20 19 vvcurveto
          90 -48 34 -84 -85 -53 -49 -118 -21 vhcurveto
          -4 -25 -3 -24 -22 vvcurveto
          -88 48 -33 84 vhcurveto
          -126 -339 rmoveto
          85 hlineto
          498 -49 callgsubr
          -86 hlineto
          -372 -274 rmoveto
          -27 9 callgsubr
          11 16 41 39 hhcurveto
          27 11 -19 -37 -14 -2 -16 -4 -27 hvcurveto
          -57 -9 -16 -43 -42 hhcurveto
          298 -423 rmoveto
          90 52 54 122 19 hvcurveto
          3 22 2 19 18 vvcurveto
          90 -48 34 -84 -86 -53 -51 -119 -20 vhcurveto
          -4 -25 -3 -22 -21 vvcurveto
          -88 49 -33 83 vhcurveto
          321 hmoveto
          86 53 50 119 21 hvcurveto
          4 24 2 22 20 vvcurveto
          90 -48 34 -84 -88 -53 -54 -122 -19 vhcurveto
          -4 -22 -2 -21 -19 vvcurveto
          -88 48 -33 84 vhcurveto
          -322 73 rmoveto
          -26 9 callgsubr
          10 16 41 39 hhcurveto
          28 10 -19 -37 -13 -1 -16 -5 -27 hvcurveto
          -57 -8 -17 -44 -42 hhcurveto
          321 hmoveto
          -26 -12 18 37 14 1 16 6 28 hvcurveto
          56 10 15 44 41 hhcurveto
          27 11 -19 -37 -14 -1 -17 -5 -28 hvcurveto
          -56 -10 -16 -42 -41 hhcurveto
          endchar
        </CharString>
        <CharString name="peseta">
          450 563 -12 rmoveto
          25 30 7 9 18 hvcurveto
          10 58 rlineto
          -46 23 57 -28 91 hhcurveto
          107 105 49 138 hvcurveto
          168 -223 -49 88 vvcurveto
          31 24 30 52 40 20 -20 -31 -5 0 -6 -2 -8 vhcurveto
          110 hlineto
          2 6 5 24 16 vvcurveto
          73 -65 46 -105 -31 -27 -4 -8 -26 vhcurveto
          -148 hlineto
          33 147 rlineto
          -122 hlineto
          -25 -147 rlineto
          -34 hlineto
          103 -12 -61 57 -138 hhcurveto
          -164 hlineto
          -121 -686 rlineto
          127 hlineto
          43 245 rlineto
          56 hlineto
          145 79 70 113 33 hvcurveto
          27 hlineto
          -50 -285 rlineto
          -5 -24 -3 -26 -11 vvcurveto
          -51 25 -43 75 vhcurveto
          -363 366 rmoveto
          39 223 0 callgsubr
          64 32 -30 -52 -86 -56 -55 -73 hvcurveto
          568 -272 rmoveto
          -38 -35 16 45 5 1 4 3 14 hvcurveto
          -110 hlineto
          -4 -12 -3 -21 -13 vvcurveto
          -12 2 -11 3 -11 vhcurveto
          -18 hlineto
          -25 -12 11 20 4 1 13 4 20 hvcurveto
          48 274 rlineto
          65 hlineto
          -10 -18 -8 -25 -21 -164 222 49 -98 vvcurveto
          -50 -47 -19 -39 vhcurveto
          endchar
        </CharString>
        <CharString name="pi">
          96 44 hmoveto
          125 hlineto
          55 84 71 222 31 122 rrcurveto
          173 hlineto
          -50 -281 rlineto
          -8 -48 -4 -37 -26 vvcurveto
          -17 2 -13 3 -6 vhcurveto
          118 hlineto
          -2 9 -1 11 13 vvcurveto
          28 5 39 10 56 vhcurveto
          47 272 rlineto
          102 hlineto
          27 98 rlineto
          -486 hlineto
          -104 -62 -11 -19 -34 hvcurveto
          1 -81 rlineto
          9 29 33 4 75 hhcurveto
          -25 -122 -71 -205 -60 -101 rrcurveto
          endchar
        </CharString>
        <CharString name="plus">
          -60 192 hmoveto
          100 hlineto
          37 206 rlineto
          186 hlineto
          18 98 rlineto
          -186 hlineto
          36 207 rlineto
          -100 hlineto
          -36 -207 rlineto
          -186 hlineto
          -18 -98 rlineto
          186 hlineto
          endchar
        </CharString>
        <CharString name="plusminus">
          -95 192 141 rmoveto
          100 hlineto
          36 207 rlineto
          186 hlineto
          18 97 rlineto
          -187 hlineto
          37 207 rlineto
          -100 hlineto
          -37 -207 rlineto
          -185 hlineto
          -18 -97 rlineto
          185 hlineto
          -246 -348 -21 callgsubr
          -471 hlineto
          endchar
        </CharString>
        <CharString name="product">
          179 51 -128 rmoveto
          -25 callgsubr
          130 742 rlineto
          300 hlineto
          -131 -742 rlineto
          127 hlineto
          131 742 rlineto
          94 -30 callsubr
          -741 hlineto
          -20 -109 rlineto
          93 hlineto
          endchar
        </CharString>
        <CharString name="q">
          315 -173 rmoveto
          -54 callsubr
          123 699 rlineto
          -99 hlineto
          -22 -70 rlineto
          -7 hlineto
          55 -26 -57 27 -74 hhcurveto
          -175 -79 -182 -167 -138 71 -63 105 66 52 26 47 37 hvcurveto
          6 hlineto
          -116 30 rmoveto
          -67 -30 34 71 103 38 139 120 65 32 -39 -74 -94 -43 -140 -115 hvcurveto
          endchar
        </CharString>
        <CharString name="question">
          201 191 rmoveto
          112 hlineto
          6 33 rlineto
          20 113 217 13 188 vvcurveto
          104 -79 56 -135 -158 -109 -98 -141 -2 vhcurveto
          122 hlineto
          44 29 89 109 76 14 -38 -30 -112 -185 -3 -29 -170 vhcurveto
          -44 -239 -25 callsubr
          endchar
        </CharString>
        <CharString name="questiondown">
          -33 288 399 -25 callsubr
          -52 -698 rmoveto
          159 109 98 141 1 hvcurveto
          -122 hlineto
          -44 -28 -89 -109 -77 -14 38 30 vhcurveto
          1 112 185 3 28 170 8 48 rcurveline
          -112 hlineto
          -6 -33 rlineto
          -20 -113 -217 -13 -188 vvcurveto
          -104 79 -56 135 vhcurveto
          endchar
        </CharString>
        <CharString name="quotedbl">
          -211 87 407 rmoveto
          86 hlineto
          46 -18 callsubr
          199 -132 rmoveto
          87 hlineto
          45 -18 callsubr
          endchar
        </CharString>
        <CharString name="quotedblbase">
          -202 -4 -43 callsubr
          49 hlineto
          123 -148 -42 callgsubr
          endchar
        </CharString>
        <CharString name="quotedblleft">
          -202 69 411 rmoveto
          124 -36 callgsubr
          -50 hlineto
          76 148 rlineto
          -65 hlineto
          -88 -159 rlineto
          178 -116 rmoveto
          125 -36 callgsubr
          -50 hlineto
          76 148 rlineto
          -65 hlineto
          -89 -159 rlineto
          endchar
        </CharString>
        <CharString name="quotedblright">
          -202 73 411 -42 callgsubr
          123 -43 callsubr
          50 hlineto
          endchar
        </CharString>
        <CharString name="quoteleft">
          -385 83 411 rmoveto
          125 hlineto
          22 -12 callgsubr
          -49 hlineto
          75 148 rlineto
          -65 hlineto
          -88 -159 rlineto
          endchar
        </CharString>
        <CharString name="quotereversed">
          -385 126 414 rmoveto
          65 hlineto
          -24 145 rlineto
          49 -36 callgsubr
          -125 hlineto
          -21 -116 rlineto
          endchar
        </CharString>
        <CharString name="quoteright">
          -385 73 411 -42 callgsubr
          endchar
        </CharString>
        <CharString name="quotesinglbase">
          -385 -4 -43 callsubr
          49 hlineto
          endchar
        </CharString>
        <CharString name="quotesingle">
          -422 87 407 rmoveto
          86 hlineto
          46 -18 callsubr
          endchar
        </CharString>
        <CharString name="r">
          -34 callsubr
          endchar
        </CharString>
        <CharString name="racute">
          -274 191 591 -93 callgsubr
          -279 -723 rmoveto
          -76 callgsubr
          endchar
        </CharString>
        <CharString name="radical">
          -95 200 -148 rmoveto
          97 hlineto
          339 1005 rlineto
          -76 hlineto
          -283 -853 -5 33 -6 34 -6 35 rlinecurve
          -55 288 -181 -71 12 -73 77 27 rlineto
          endchar
        </CharString>
        <CharString name="rcaron">
          -274 188 588 -93 callsubr
          -90 -723 rmoveto
          -76 callgsubr
          endchar
        </CharString>
        <CharString name="rcommaaccent">
          -34 callsubr
          -133 -756 rmoveto
          -74 callgsubr
        </CharString>
        <CharString name="registered">
          -51 callsubr
          -147 93 rmoveto
          75 157 103 hlineto
          79 -157 rlineto
          80 hlineto
          -87 170 rlineto
          47 21 23 42 54 vvcurveto
          74 -43 51 -85 vhcurveto
          -192 hlineto
          75 -191 rmoveto
          129 107 vlineto
          39 23 -22 -41 -42 -26 -24 -36 hvcurveto
          endchar
        </CharString>
        <CharString name="revlogicalnot">
          -60 26 194 rmoveto
          93 hlineto
          29 164 rlineto
          398 hlineto
          17 96 rlineto
          -490 hlineto
          endchar
        </CharString>
        <CharString name="ring">
          -311 155 559 -63 callgsubr
          endchar
        </CharString>
        <CharString name="s">
          -56 callgsubr
          endchar
        </CharString>
        <CharString name="sacute">
          -107 260 591 -93 callgsubr
          -136 -735 -95 callgsubr
          endchar
        </CharString>
        <CharString name="sacute.loclPLK">
          -107 252 591 -59 callsubr
          -72 -735 -95 callgsubr
          endchar
        </CharString>
        <CharString name="scaron">
          -107 257 588 -93 callsubr
          53 -735 -95 callgsubr
          endchar
        </CharString>
        <CharString name="scedilla">
          -107 492 373 rmoveto
          1 2 6 21 20 vvcurveto
          74 -81 48 -126 -131 -103 -62 -115 vhcurveto
          -165 289 50 -98 vvcurveto
          -48 -62 -18 -56 -54 -49 17 48 3 1 9 3 7 vhcurveto
          -117 hlineto
          0 -7 -19 -22 vvcurveto
          -70 57 -53 115 -12 vhcurveto
          -23 -67 -61 callgsubr
          8 callgsubr
          23 rlineto
          115 7 102 52 129 171 -289 -51 88 vvcurveto
          30 33 28 74 58 29 -21 -34 -5 -1 -7 -1 -3 vhcurveto
          endchar
        </CharString>
        <CharString name="scircumflex">
          -107 145 -73 callsubr
          -46 -735 -95 callgsubr
          endchar
        </CharString>
        <CharString name="scommaaccent">
          -56 callgsubr
          -106 -218 rmoveto
          -74 callgsubr
        </CharString>
        <CharString name="second">
          -208 75 509 -14 callsubr
          119 -177 -14 callsubr
          endchar
        </CharString>
        <CharString name="section">
          -88 204 -3 callgsubr
          136 105 63 118 44 -21 32 -31 26 hvcurveto
          67 34 46 55 66 173 -282 0 101 vvcurveto
          31 28 41 82 58 26 -21 -32 -4 0 -5 -1 -7 vhcurveto
          122 hlineto
          3 7 4 20 15 vvcurveto
          75 -81 48 -125 -138 -104 -62 -115 -47 21 -34 31 -25 vhcurveto
          -69 -38 -45 -55 -67 -170 284 0 -100 vvcurveto
          -30 -29 -43 -81 -59 -26 21 34 4 0 4 1 8 vhcurveto
          -122 hlineto
          -2 -5 -5 -22 -14 vvcurveto
          -76 80 -48 127 vhcurveto
          119 326 rmoveto
          -79 34 -85 28 72 vvcurveto
          40 21 30 39 23 vhcurveto
          79 -36 86 -26 -71 vvcurveto
          -41 -23 -30 -38 -23 vhcurveto
          endchar
        </CharString>
        <CharString name="semicolon">
          -330 108 399 rmoveto
          125 -36 callgsubr
          -125 hlineto
          -120 -674 -42 callgsubr
          endchar
        </CharString>
        <CharString name="seven">
          -88 76 hmoveto
          143 hlineto
          3 21 2 11 3 18 43 223 165 195 140 140 14 78 rcurveline
          -491 hlineto
          -19 -109 rlineto
          335 hlineto
          -143 -141 -155 -210 -40 -226 rrcurveto
          endchar
        </CharString>
        <CharString name="seveneighths">
          190 17 -12 -35 callgsubr
          -578 -373 rmoveto
          88 hlineto
          9 116 89 111 82 83 9 51 rcurveline
          -262 hlineto
          -11 -68 rlineto
          167 hlineto
          -74 -72 -77 -103 -20 -118 rrcurveto
          481 -337 -38 callgsubr
          -24 -13 -31 callsubr
          -30 -16 14 25 35 25 21 38 30 15 -13 -23 -38 -29 -21 -33 hvcurveto
          endchar
        </CharString>
        <CharString name="six">
          -88 247 -12 rmoveto
          140 119 108 166 107 -57 71 -128 -74 -53 -39 -21 -24 hvcurveto
          135 26 33 85 101 hhcurveto
          54 24 -28 -51 -11 -1 -12 -2 -14 hvcurveto
          -54 callsubr
          3 18 2 18 17 vvcurveto
          94 -58 67 -138 -149 -101 -90 -282 -47 vhcurveto
          -8 -47 -4 -41 -35 vvcurveto
          -160 83 -55 139 vhcurveto
          -6 98 rmoveto
          -65 -30 40 58 91 56 69 86 65 27 -39 -57 -86 -51 -76 -88 hvcurveto
          endchar
        </CharString>
        <CharString name="slash">
          -366 -68 -49 rmoveto
          86 hlineto
          328 784 rlineto
          -86 hlineto
          endchar
        </CharString>
        <CharString name="space">
          -366 endchar
        </CharString>
        <CharString name="sterling">
          5 callgsubr
          46 189 rlineto
          161 hlineto
          16 98 rlineto
          -159 hlineto
          22 125 -28 callsubr
          -80 -61 -138 -25 vhcurveto
          -20 -111 rlineto
          -80 hlineto
          -16 -98 rlineto
          80 hlineto
          -34 -189 rlineto
          -66 hlineto
          endchar
        </CharString>
        <CharString name="summation">
          69 -37 -128 rmoveto
          630 hlineto
          20 112 rlineto
          -458 4 hlineto
          336 325 -221 297 1 4 rlineto
          434 -30 callsubr
          -602 hlineto
          -18 -98 234 -318 -361 -348 rlineto
          endchar
        </CharString>
        <CharString name="t">
          -330 152 -12 -76 callsubr
          endchar
        </CharString>
        <CharString name="tbar">
          -330 304 428 rmoveto
          18 98 rlineto
          -91 hlineto
          34 147 -68 callsubr
          -26 -147 rlineto
          -63 -2 callsubr
          63 hlineto
          -18 -103 rlineto
          -64 hlineto
          -11 -68 rlineto
          63 hlineto
          -15 -89 rlineto
          -9 -47 -3 -22 -13 vvcurveto
          -52 27 -46 88 24 34 8 8 20 vhcurveto
          14 82 rlineto
          -48 hlineto
          -24 -12 11 20 6 3 17 2 8 hvcurveto
          19 109 rlineto
          90 -2 callgsubr
          -90 hlineto
          18 103 rlineto
          endchar
        </CharString>
        <CharString name="tcaron">
          -201 355 471 rmoveto
          62 hlineto
          80 124 18 104 -80 callgsubr
          -20 -115 rlineto
          47 hlineto
          -270 -596 -76 callsubr
          endchar
        </CharString>
        <CharString name="thorn">
          -24 callgsubr
          -69 63 -114 -58 -54 -28 -45 -37 hvcurveto
          -7 hlineto
          47 267 -80 callgsubr
          131 -644 -19 callgsubr
        </CharString>
        <CharString name="three">
          -88 240 -12 rmoveto
          142 117 86 137 75 -41 46 -58 20 hvcurveto
          1 4 rlineto
          76 30 65 52 99 vvcurveto
          104 -83 57 -129 -125 -106 -73 -119 -17 vhcurveto
          -4 -21 rlineto
          122 hlineto
          2 16 rlineto
          59 8 47 40 70 hhcurveto
          52 37 -23 -51 -87 -67 -41 -64 hvcurveto
          -61 -2 callsubr
          58 hlineto
          59 52 -17 -64 -92 -65 -41 -76 -67 -37 28 52 9 1 11 4 23 hvcurveto
          -121 hlineto
          -6 -28 0 -15 -13 vvcurveto
          -101 78 -64 153 vhcurveto
          endchar
        </CharString>
        <CharString name="threeeighths">
          190 44 -12 -35 callgsubr
          -535 -372 -32 callsubr
          6 22 15 26 hhcurveto
          23 16 -10 -23 -38 -32 -34 callgsubr
          433 -338 -38 callgsubr
          -25 -12 -31 callsubr
          -31 -15 14 25 35 24 21 39 29 16 -13 -23 -38 -29 -21 -33 hvcurveto
          endchar
        </CharString>
        <CharString name="threequarters">
          190 51 -12 -35 callgsubr
          -532 -372 -32 callgsubr
          7 21 15 27 hhcurveto
          23 16 -10 -23 -38 -33 -17 -31 1 callgsubr
          -17 -34 -29 -17 12 -12 callsubr
          425 -325 -27 callgsubr
          72 101 37 -8 callgsubr
        </CharString>
        <CharString name="tilde">
          -311 -9 607 rmoveto
          -65 callgsubr
          18 -102 callgsubr
          endchar
        </CharString>
        <CharString name="trademark">
          356 191 281 rmoveto
          73 hlineto
          59 336 rlineto
          139 hlineto
          12 69 rlineto
          -352 hlineto
          -12 -69 rlineto
          140 hlineto
          200 -337 rmoveto
          67 hlineto
          54 310 rlineto
          3 hlineto
          51 -310 rlineto
          69 hlineto
          161 311 rlineto
          2 hlineto
          -55 -311 rlineto
          74 hlineto
          71 406 rlineto
          -113 hlineto
          -156 -306 rlineto
          -4 hlineto
          -47 306 rlineto
          -106 hlineto
          endchar
        </CharString>
        <CharString name="two">
          -88 -16 hmoveto
          476 hlineto
          19 109 rlineto
          -316 hlineto
          7 10 11 11 14 12 rrcurveto
          107 90 245 91 206 vvcurveto
          85 -47 84 -159 -129 -126 -64 -184 -13 vhcurveto
          119 hlineto
          8 41 rlineto
          68 14 40 39 80 hhcurveto
          66 24 -36 -36 -192 -395 -66 -39 -234 hvcurveto
          endchar
        </CharString>
        <CharString name="u">
          188 -12 -103 callgsubr
          endchar
        </CharString>
        <CharString name="uacute">
          291 591 -93 callgsubr
          -207 -735 -103 callgsubr
          endchar
        </CharString>
        <CharString name="ubreve">
          342 -82 callsubr
          -154 -605 -103 callgsubr
          endchar
        </CharString>
        <CharString name="ucircumflex">
          176 -73 callsubr
          -117 -735 -103 callgsubr
          endchar
        </CharString>
        <CharString name="udieresis">
          192 -71 callsubr
          -225 -735 -103 callgsubr
          endchar
        </CharString>
        <CharString name="ugrave">
          297 591 -81 callgsubr
          -24 -732 -103 callgsubr
          endchar
        </CharString>
        <CharString name="uhorn">
          -86 callgsubr
          endchar
        </CharString>
        <CharString name="uhungarumlaut">
          210 591 rmoveto
          -60 callsubr
          -284 -735 -103 callgsubr
          endchar
        </CharString>
        <CharString name="umacron">
          195 617 -66 callsubr
          -22 -711 -103 callgsubr
          endchar
        </CharString>
        <CharString name="underscore">
          -88 -74 -148 rmoveto
          555 hlineto
          14 83 rlineto
          -556 hlineto
          endchar
        </CharString>
        <CharString name="underscoredbl">
          -92 -70 -143 rmoveto
          551 hlineto
          14 78 rlineto
          -551 hlineto
          -37 -214 rmoveto
          550 hlineto
          15 78 rlineto
          -551 hlineto
          endchar
        </CharString>
        <CharString name="uni00A0">
          -366 endchar
        </CharString>
        <CharString name="uni00AD">
          -8 callsubr
        </CharString>
        <CharString name="uni00B2">
          -311 33 331 -1 callgsubr
          115 vvcurveto
          46 -26 46 -85 -76 -26 callsubr
          30 9 -18 -17 -85 -198 -33 -22 -125 hvcurveto
          endchar
        </CharString>
        <CharString name="uni00B3">
          -311 174 326 rmoveto
          74 65 44 72 36 -18 24 -29 14 hvcurveto
          3 vlineto
          41 18 27 25 47 vvcurveto
          59 -45 30 -71 -65 -55 -40 -62 -10 vhcurveto
          -3 -14 rlineto
          76 hlineto
          2 8 rlineto
          31 6 22 14 26 hhcurveto
          23 17 -10 -23 -38 -33 -34 callgsubr
          endchar
        </CharString>
        <CharString name="uni00B5">
          -47 callsubr
        </CharString>
        <CharString name="uni00B9">
          -311 50 329 rmoveto
          237 hlineto
          12 69 rlineto
          -77 hlineto
          51 288 rlineto
          -38 hlineto
          -38 -20 -57 -16 -33 -4 -10 -49 rcurveline
          84 hlineto
          -35 -199 rlineto
          -84 hlineto
          endchar
        </CharString>
        <CharString name="uni0162">
          -33 84 686 rmoveto
          -20 -110 rlineto
          221 hlineto
          -102 -576 rlineto
          24 hlineto
          -26 -77 -61 callgsubr
          -41 callsubr
          11 34 rlineto
          27 hlineto
          101 576 rlineto
          221 hlineto
          19 -26 callgsubr
          endchar
        </CharString>
        <CharString name="uni0163">
          -330 214 428 rmoveto
          90 hlineto
          18 98 rlineto
          -91 hlineto
          34 147 -68 callsubr
          -26 -147 rlineto
          -63 -2 callsubr
          63 hlineto
          -45 -260 rlineto
          -9 -47 -3 -22 -13 vvcurveto
          -31 10 -29 26 -18 vhcurveto
          -29 -85 -61 callgsubr
          -41 callsubr
          7 22 rlineto
          9 hlineto
          24 34 8 8 20 hvcurveto
          14 82 rlineto
          -48 hlineto
          -24 -12 11 20 6 3 17 2 8 hvcurveto
          endchar
        </CharString>
        <CharString name="uni018F">
          114 335 -12 rmoveto
          128 93 33 73 64 hvcurveto
          68 77 43 149 108 vvcurveto
          171 -109 99 -187 -95 -77 -17 -33 -57 vhcurveto
          -71 -41 -43 -66 -16 -92 rrcurveto
          125 hlineto
          100 17 80 45 116 hhcurveto
          124 63 -52 -112 -17 -2 -18 -3 -19 hvcurveto
          -533 hlineto
          -9 -53 -23 callsubr
          -3 -27 -26 vvcurveto
          -161 103 -92 186 vhcurveto
          19 105 rmoveto
          -108 -72 39 98 15 2 15 3 16 hvcurveto
          398 hlineto
          -129 -36 -65 -54 -122 hhcurveto
          endchar
        </CharString>
        <CharString name="uni019D">
          78 -18 -3 callgsubr
          98 35 68 66 12 hvcurveto
          79 451 12 78 rlineto
          5 hlineto
          5 -10 15 -33 14 -28 215 -410 rcurveline
          120 -51 callgsubr
          -123 hlineto
          -73 -417 -3 -14 -5 -38 -1 -7 rlinecurve
          -5 -1 -2 6 -16 34 -9 17 rlinecurve
          -221 420 rlineto
          -122 hlineto
          -128 -726 -11 callgsubr
        </CharString>
        <CharString name="uni01C4">
          689 1040 733 -93 callsubr
          -946 -868 rmoveto
          -57 callgsubr
        </CharString>
        <CharString name="uni01C5">
          578 975 588 -93 callsubr
          -881 -723 rmoveto
          -79 callgsubr
          398 -109 rmoveto
          -83 callsubr
          endchar
        </CharString>
        <CharString name="uni01C6">
          448 -75 callgsubr
          640 600 -93 callsubr
          -196 -723 rmoveto
          -83 callsubr
          -336 35 -19 callsubr
        </CharString>
        <CharString name="uni01C7">
          485 12 hmoveto
          -57 callsubr
          662 -698 -82 callgsubr
        </CharString>
        <CharString name="uni01C8">
          207 712 -45 callgsubr
          -720 -723 rmoveto
          -57 callsubr
          439 -868 -84 callsubr
        </CharString>
        <CharString name="uni01C9">
          -126 -30 callgsubr
          239 -115 -54 callgsubr
          -160 -905 -84 callsubr
        </CharString>
        <CharString name="uni01CA">
          615 -49 callsubr
          792 -698 -82 callgsubr
        </CharString>
        <CharString name="uni01CB">
          337 842 -45 callgsubr
          -850 -723 rmoveto
          -94 callgsubr
          569 -868 -84 callsubr
        </CharString>
        <CharString name="uni01CC">
          207 712 -45 callgsubr
          -716 -723 rmoveto
          -77 callsubr
          463 -708 -84 callsubr
        </CharString>
        <CharString name="uni01CD">
          59 374 733 -93 callsubr
          -341 -868 -101 callgsubr
        </CharString>
        <CharString name="uni01CE">
          -65 358 588 rmoveto
          129 135 rlineto
          -110 hlineto
          -65 -72 -45 72 rlineto
          -99 hlineto
          82 -135 rlineto
          219 -55 callgsubr
          endchar
        </CharString>
        <CharString name="uni01CF">
          -366 156 733 -93 callsubr
          -57 -868 rmoveto
          -67 callsubr
          endchar
        </CharString>
        <CharString name="uni01D0">
          -366 131 588 -93 callsubr
          -28 -41 callgsubr
        </CharString>
        <CharString name="uni01D1">
          134 384 733 -93 callsubr
          40 -879 -107 callsubr
          endchar
        </CharString>
        <CharString name="uni01D2">
          271 588 -93 callsubr
          66 -735 -106 callgsubr
        </CharString>
        <CharString name="uni01D3">
          78 387 733 -93 callsubr
          17 -880 -104 callsubr
          endchar
        </CharString>
        <CharString name="uni01D4">
          288 588 -93 callsubr
          -18 -735 -103 callgsubr
          endchar
        </CharString>
        <CharString name="uni01D5">
          78 324 929 -66 callsubr
          -48 -253 -96 callsubr
          -190 -880 -104 callsubr
          endchar
        </CharString>
        <CharString name="uni01D6">
          225 784 -66 callsubr
          -48 -253 -96 callsubr
          -225 -735 -103 callgsubr
          endchar
        </CharString>
        <CharString name="uni01D7">
          78 420 903 -93 callgsubr
          -233 -277 -96 callsubr
          -190 -880 -104 callsubr
          endchar
        </CharString>
        <CharString name="uni01D8">
          321 758 -93 callgsubr
          -233 -277 -96 callsubr
          -225 -735 -103 callgsubr
          endchar
        </CharString>
        <CharString name="uni01D9">
          78 417 900 -93 callsubr
          -44 -277 -96 callsubr
          -190 -880 -104 callsubr
          endchar
        </CharString>
        <CharString name="uni01DA">
          318 755 -93 callsubr
          -44 -277 -96 callsubr
          -225 -735 -103 callgsubr
          endchar
        </CharString>
        <CharString name="uni01DB">
          78 426 903 -81 callgsubr
          -50 -274 -96 callsubr
          -190 -880 -104 callsubr
          endchar
        </CharString>
        <CharString name="uni01DC">
          327 758 -81 callgsubr
          -50 -274 -96 callsubr
          -225 -735 -103 callgsubr
          endchar
        </CharString>
        <CharString name="uni01EA">
          134 436 698 rmoveto
          -219 -140 -131 -219 -35 hvcurveto
          -5 -30 -2 -30 -31 vvcurveto
          -178 114 -91 193 1 vhcurveto
          13 13 0 1 12 hvcurveto
          -25 -23 -22 -31 -42 -52 callgsubr
          1 vlineto
          141 45 90 118 25 170 rrcurveto
          4 29 3 29 31 vvcurveto
          176 -115 91 -194 vhcurveto
          167 -362 rmoveto
          -154 -26 -89 -85 -147 hhcurveto
          -114 -61 61 106 21 3 23 7 43 hvcurveto
          154 27 88 85 146 hhcurveto
          115 61 -62 -104 -23 -2 -22 -8 -43 hvcurveto
          endchar
        </CharString>
        <CharString name="uni01EB">
          313 538 rmoveto
          -166 -91 -91 -162 -26 hvcurveto
          -5 -27 -2 -27 -28 vvcurveto
          2 -130 93 -86 137 1 rrcurveto
          19 hlineto
          -24 -23 -21 -30 -41 -52 callgsubr
          1 vlineto
          90 36 53 80 19 116 rrcurveto
          4 28 2 27 28 vvcurveto
          -2 129 -92 86 -139 -1 rrcurveto
          111 -276 rmoveto
          -16 -121 -51 -55 -93 1 -78 -1 -44 43 -1 71 rrcurveto
          20 1 21 3 23 vhcurveto
          121 16 51 55 94 hhcurveto
          78 44 -42 -72 1 hvcurveto
          -20 -1 -21 -4 -23 vhcurveto
          endchar
        </CharString>
        <CharString name="uni01F1">
          689 12 hmoveto
          -57 callgsubr
        </CharString>
        <CharString name="uni01F2">
          578 12 hmoveto
          -79 callgsubr
          398 -109 rmoveto
          -83 callsubr
          endchar
        </CharString>
        <CharString name="uni01F3">
          448 -75 callgsubr
          362 12 rmoveto
          -83 callsubr
          -336 35 -19 callsubr
        </CharString>
        <CharString name="uni01F4">
          134 627 865 -56 callsubr
          236 -284 -100 callgsubr
          endchar
        </CharString>
        <CharString name="uni01F5">
          267 591 -93 callgsubr
          -164 -905 -101 callsubr
        </CharString>
        <CharString name="uni0200">
          59 318 736 -84 callgsubr
          -452 -865 -101 callgsubr
        </CharString>
        <CharString name="uni0201">
          -65 289 591 rmoveto
          -50 132 -80 callgsubr
          -2 -3 77 -129 rlineto
          257 hmoveto
          -49 132 -44 callsubr
          -2 -3 77 -129 rlineto
          113 -478 -105 callsubr
        </CharString>
        <CharString name="uni0202">
          59 273 738 -88 callgsubr
          -322 -78 callsubr
          endchar
        </CharString>
        <CharString name="uni0203">
          -65 313 643 rmoveto
          53 16 -29 -21 -1 hvcurveto
          79 hlineto
          1 6 1 6 6 vvcurveto
          56 -44 56 -91 -128 -40 -69 -61 -10 vhcurveto
          80 hlineto
          21 7 24 29 53 hhcurveto
          156 -530 -105 callsubr
        </CharString>
        <CharString name="uni0204">
          23 303 736 -84 callgsubr
          -376 -865 -90 callgsubr
        </CharString>
        <CharString name="uni0205">
          -88 208 591 -84 callgsubr
          -39 -732 -105 callgsubr
          endchar
        </CharString>
        <CharString name="uni0206">
          23 258 738 -88 callgsubr
          -246 -738 -90 callgsubr
        </CharString>
        <CharString name="uni0207">
          -88 163 593 -88 callgsubr
          91 -605 -105 callgsubr
          endchar
        </CharString>
        <CharString name="uni0208">
          -366 100 736 -84 callgsubr
          -168 -865 rmoveto
          -67 callsubr
          endchar
        </CharString>
        <CharString name="uni0209">
          -366 75 591 -84 callgsubr
          -139 -720 -66 callgsubr
        </CharString>
        <CharString name="uni020A">
          -366 55 738 -88 callgsubr
          -38 -738 rmoveto
          -67 callsubr
          endchar
        </CharString>
        <CharString name="uni020B">
          -366 30 593 -88 callgsubr
          -9 -593 -66 callgsubr
        </CharString>
        <CharString name="uni020C">
          134 328 736 -84 callgsubr
          -71 -876 -107 callsubr
          endchar
        </CharString>
        <CharString name="uni020D">
          215 591 -84 callgsubr
          -45 -732 -106 callgsubr
        </CharString>
        <CharString name="uni020E">
          134 283 738 -88 callgsubr
          59 -749 -107 callsubr
          endchar
        </CharString>
        <CharString name="uni020F">
          170 593 -88 callgsubr
          85 -605 -106 callgsubr
        </CharString>
        <CharString name="uni0210">
          78 291 736 -84 callgsubr
          -364 -865 rmoveto
          -87 callsubr
          endchar
        </CharString>
        <CharString name="uni0211">
          -274 132 591 -84 callgsubr
          -201 -720 rmoveto
          -76 callgsubr
          endchar
        </CharString>
        <CharString name="uni0212">
          78 246 738 -88 callgsubr
          -234 -738 rmoveto
          -87 callsubr
          endchar
        </CharString>
        <CharString name="uni0213">
          -274 87 593 -88 callgsubr
          -71 -593 rmoveto
          -76 callgsubr
          endchar
        </CharString>
        <CharString name="uni0214">
          78 331 736 -84 callgsubr
          -94 -877 -104 callsubr
          endchar
        </CharString>
        <CharString name="uni0215">
          232 591 -84 callgsubr
          -129 -732 -103 callgsubr
          endchar
        </CharString>
        <CharString name="uni0216">
          78 286 738 -88 callgsubr
          36 -750 -104 callsubr
          endchar
        </CharString>
        <CharString name="uni0217">
          187 593 -88 callgsubr
          1 -605 -103 callgsubr
          endchar
        </CharString>
        <CharString name="uni021A">
          -43 callgsubr
          -137 -806 rmoveto
          -74 callgsubr
        </CharString>
        <CharString name="uni021B">
          -330 152 -12 -76 callsubr
          -141 -218 rmoveto
          -74 callgsubr
        </CharString>
        <CharString name="uni0232">
          23 266 762 -66 callsubr
          -70 -844 rmoveto
          -83 callgsubr
          endchar
        </CharString>
        <CharString name="uni0232.loclGUA">
          23 273 762 -66 callsubr
          -11 -856 -98 callgsubr
        </CharString>
        <CharString name="uni0233">
          -107 167 617 -66 callsubr
          -127 -881 -95 callsubr
          endchar
        </CharString>
        <CharString name="uni0233.loclGUA">
          206 617 -66 callsubr
          -7 -881 -96 callgsubr
        </CharString>
        <CharString name="uni0237">
          -385 -20 -182 -84 callsubr
        </CharString>
        <CharString name="uni0259">
          -88 224 -12 rmoveto
          86 66 19 44 47 hvcurveto
          67 61 37 128 96 vvcurveto
          128 -73 74 -133 -72 -58 -14 -28 -44 vhcurveto
          -51 -33 -32 -51 -12 -70 rrcurveto
          118 hlineto
          70 11 53 31 68 hhcurveto
          72 33 -35 -71 -13 -1 -15 -3 -17 hvcurveto
          -360 hlineto
          -7 -36 rlineto
          -5 -26 -2 -24 -22 vvcurveto
          -124 70 -72 125 vhcurveto
          16 95 rmoveto
          -57 -35 23 62 11 1 13 3 15 hvcurveto
          234 hlineto
          -81 -23 -47 -43 -76 hhcurveto
          endchar
        </CharString>
        <CharString name="uni0272">
          -17 -3 callgsubr
          97 36 68 66 11 hvcurveto
          59 331 -94 callsubr
          -69 -66 -37 -46 -38 vhcurveto
          -17 callgsubr
          -100 -566 -50 callgsubr
          -49 hlineto
          -14 -82 4 callgsubr
          38 -7 31 hhcurveto
          endchar
        </CharString>
        <CharString name="uni02BC">
          -391 82 459 rmoveto
          63 -20 callgsubr
          45 hlineto
          endchar
        </CharString>
        <CharString name="uni02C9">
          -311 3 617 -66 callsubr
          endchar
        </CharString>
        <CharString name="uni030F">
          -644 -231 591 -84 callgsubr
          endchar
        </CharString>
        <CharString name="uni0311">
          -644 -265 593 -88 callgsubr
          endchar
        </CharString>
        <CharString name="uni031B">
          -644 -478 686 rmoveto
          -23 -127 rlineto
          54 hlineto
          -24 -46 -46 -25 -71 -8 rrcurveto
          -64 vlineto
          139 18 74 65 22 133 10 54 rcurveline
          endchar
        </CharString>
        <CharString name="uni0326">
          -644 -223 -230 rmoveto
          -74 callgsubr
        </CharString>
        <CharString name="uni0328">
          -644 -171 -33 callgsubr
        </CharString>
        <CharString name="uni0394">
          57 -49 hmoveto
          695 hlineto
          -147 -49 callgsubr
          -22 callsubr
          -194 -577 rmoveto
          19 31 22 35 14 26 129 236 rcurveline
          18 33 30 61 23 45 rrcurveto
          5 hlineto
          7 -51 9 -57 6 -31 47 -237 rcurveline
          5 -26 9 -35 8 -30 rrcurveto
          endchar
        </CharString>
        <CharString name="uni03A9">
          -62 callgsubr
        </CharString>
        <CharString name="uni03BC">
          -47 callsubr
        </CharString>
        <CharString name="uni1E0C">
          78 12 hmoveto
          -79 callgsubr
          -74 -282 -92 callgsubr
          endchar
        </CharString>
        <CharString name="uni1E0D">
          -75 callgsubr
          36 103 -62 callsubr
          -81 -264 -92 callgsubr
          endchar
        </CharString>
        <CharString name="uni1E24">
          -36 callsubr
          92 -859 -92 callgsubr
          endchar
        </CharString>
        <CharString name="uni1E25">
          16 hmoveto
          -74 callsubr
          -64 -60 -32 -40 -38 vhcurveto
          -6 hlineto
          45 257 -80 callgsubr
          17 -896 -92 callgsubr
          endchar
        </CharString>
        <CharString name="uni1E44">
          78 390 751 -92 callgsubr
          -399 -869 rmoveto
          -94 callgsubr
          endchar
        </CharString>
        <CharString name="uni1E45">
          296 -45 callsubr
          -301 -724 rmoveto
          -85 callgsubr
        </CharString>
        <CharString name="uni1E5A">
          -46 callgsubr
          -204 -546 -92 callgsubr
          endchar
        </CharString>
        <CharString name="uni1E5B">
          -34 callsubr
          -123 -699 -92 callgsubr
          endchar
        </CharString>
        <CharString name="uni1E62">
          -58 callsubr
          -105 -161 -92 callgsubr
          endchar
        </CharString>
        <CharString name="uni1E63">
          -56 callgsubr
          -96 -161 -92 callgsubr
          endchar
        </CharString>
        <CharString name="uni1E6C">
          -43 callgsubr
          -127 -749 -92 callgsubr
          endchar
        </CharString>
        <CharString name="uni1E6D">
          -330 152 -12 -76 callsubr
          -131 -161 -92 callgsubr
          endchar
        </CharString>
        <CharString name="uni1E92">
          -33 -38 hmoveto
          -77 callgsubr
          197 -234 -92 callgsubr
          endchar
        </CharString>
        <CharString name="uni1E93">
          -144 -25 hmoveto
          -83 callsubr
          129 -229 -92 callgsubr
          endchar
        </CharString>
        <CharString name="uni1E9E">
          154 12 hmoveto
          -25 callgsubr
          70 394 rlineto
          133 22 84 63 135 hhcurveto
          100 47 -35 -54 -52 -44 -54 -61 hvcurveto
          -190 hlineto
          -19 -111 rlineto
          192 hlineto
          67 37 -28 -43 -49 -42 -54 -70 hvcurveto
          -214 hlineto
          -21 -110 rlineto
          227 hlineto
          144 107 85 133 66 -37 45 -62 18 hvcurveto
          4 vlineto
          65 23 55 72 75 vvcurveto
          108 -107 69 -164 -202 -142 -100 -197 -34 vhcurveto
          endchar
        </CharString>
        <CharString name="uni1EA0">
          59 -49 hmoveto
          -104 callgsubr
          -247 -430 -92 callgsubr
          endchar
        </CharString>
        <CharString name="uni1EA1">
          -65 469 113 -107 callgsubr
          -111 -264 -92 callgsubr
          endchar
        </CharString>
        <CharString name="uni1EA2">
          59 397 736 rmoveto
          -99 callgsubr
          -40 callgsubr
          hvcurveto
          -14 hlineto
          -456 -792 -101 callgsubr
        </CharString>
        <CharString name="uni1EA3">
          -65 331 670 rmoveto
          -40 callgsubr
          vhcurveto
          -14 hlineto
          -10 -56 rlineto
          -99 callgsubr
          hvcurveto
          138 -557 -105 callsubr
        </CharString>
        <CharString name="uni1EA4">
          59 534 831 -93 callgsubr
          -376 -230 -102 callsubr
          -440 -868 -101 callgsubr
        </CharString>
        <CharString name="uni1EA5">
          -65 640 815 -56 callsubr
          -197 -26 -79 callsubr
        </CharString>
        <CharString name="uni1EA6">
          59 579 831 -81 callgsubr
          -232 -227 -102 callsubr
          -440 -868 -101 callgsubr
        </CharString>
        <CharString name="uni1EA7">
          -65 546 686 -52 callsubr
          -141 -26 -79 callsubr
        </CharString>
        <CharString name="uni1EA8">
          59 553 831 rmoveto
          -99 callgsubr
          -40 callgsubr
          hvcurveto
          -14 hlineto
          -301 -154 -102 callsubr
          -440 -868 -101 callgsubr
        </CharString>
        <CharString name="uni1EA9">
          -65 486 830 rmoveto
          -23 -34 -3 -5 -24 hvcurveto
          -7 -42 rlineto
          58 hlineto
          20 11 -3 -12 -40 callgsubr
          hvcurveto
          -14 hlineto
          -10 -56 rlineto
          64 hlineto
          5 26 rlineto
          43 3 43 19 45 vvcurveto
          41 -56 10 -42 vhcurveto
          -172 -170 -79 callsubr
        </CharString>
        <CharString name="uni1EAA">
          59 289 912 rmoveto
          -65 callgsubr
          18 -102 callgsubr
          -27 -179 -102 callsubr
          -440 -868 -101 callgsubr
        </CharString>
        <CharString name="uni1EAB">
          -65 271 802 rmoveto
          -102 callgsubr
          -65 callgsubr
          18 hhcurveto
          43 -142 -64 callsubr
          endchar
        </CharString>
        <CharString name="uni1EAC">
          59 262 -75 callsubr
          -440 -868 rmoveto
          -104 callgsubr
          -247 -430 -92 callgsubr
          endchar
        </CharString>
        <CharString name="uni1EAD">
          -65 314 660 -64 callsubr
          -111 -264 -92 callgsubr
          endchar
        </CharString>
        <CharString name="uni1EAE">
          59 383 868 -93 callgsubr
          -59 -262 -91 callgsubr
        </CharString>
        <CharString name="uni1EAF">
          -65 489 852 -56 callsubr
          -56 -130 -103 callsubr
          165 -480 -105 callsubr
        </CharString>
        <CharString name="uni1EB0">
          59 405 868 -81 callgsubr
          108 -259 -91 callgsubr
        </CharString>
        <CharString name="uni1EB1">
          -65 385 723 -52 callsubr
          10 -130 -103 callsubr
          165 -480 -105 callsubr
        </CharString>
        <CharString name="uni1EB2">
          59 402 868 rmoveto
          -99 callgsubr
          -40 callgsubr
          hvcurveto
          -14 hlineto
          16 -186 -91 callgsubr
        </CharString>
        <CharString name="uni1EB3">
          -65 336 802 rmoveto
          -40 callgsubr
          vhcurveto
          -14 hlineto
          -10 -56 rlineto
          -99 callgsubr
          hvcurveto
          -32 -209 -103 callsubr
          165 -480 -105 callsubr
        </CharString>
        <CharString name="uni1EB4">
          59 280 912 rmoveto
          -65 callgsubr
          18 -102 callgsubr
          148 -174 -91 callgsubr
        </CharString>
        <CharString name="uni1EB5">
          -65 262 802 rmoveto
          -102 callgsubr
          -65 callgsubr
          18 hhcurveto
          44 -129 rmoveto
          -53 -12 27 23 hvcurveto
          -80 hlineto
          -2 -8 0 -8 -8 vvcurveto
          -55 35 -51 110 46 37 13 20 27 vhcurveto
          33 26 19 37 7 34 rrcurveto
          -80 hlineto
          -21 -7 -28 -29 -52 hhcurveto
          163 -560 -105 callsubr
        </CharString>
        <CharString name="uni1EB6">
          59 428 738 -91 callsubr
          -247 -430 -92 callgsubr
          endchar
        </CharString>
        <CharString name="uni1EB7">
          -65 304 -82 callsubr
          165 -480 -107 callgsubr
          -111 -264 -92 callgsubr
          endchar
        </CharString>
        <CharString name="uni1EB8">
          23 12 hmoveto
          -100 callsubr
          65 -859 -92 callgsubr
          endchar
        </CharString>
        <CharString name="uni1EB9">
          -88 254 -12 -105 callgsubr
          -251 -492 -92 callgsubr
          endchar
        </CharString>
        <CharString name="uni1EBA">
          23 382 736 rmoveto
          -99 callgsubr
          -40 callgsubr
          hvcurveto
          -14 hlineto
          -380 -792 -90 callgsubr
        </CharString>
        <CharString name="uni1EBB">
          -88 287 591 rmoveto
          -99 callgsubr
          -40 callgsubr
          hvcurveto
          -14 hlineto
          -43 -659 -105 callgsubr
          endchar
        </CharString>
        <CharString name="uni1EBC">
          23 251 752 rmoveto
          -65 callgsubr
          18 -102 callgsubr
          -239 -752 -90 callgsubr
        </CharString>
        <CharString name="uni1EBD">
          -88 156 607 rmoveto
          -65 callgsubr
          18 -102 callgsubr
          98 -619 -105 callgsubr
          endchar
        </CharString>
        <CharString name="uni1EBE">
          23 519 831 -93 callgsubr
          -376 -230 -81 callsubr
        </CharString>
        <CharString name="uni1EBF">
          -88 424 686 -93 callgsubr
          -376 -230 -102 callsubr
          -27 -735 -105 callgsubr
          endchar
        </CharString>
        <CharString name="uni1EC0">
          23 564 831 -81 callgsubr
          -232 -227 -81 callsubr
        </CharString>
        <CharString name="uni1EC1">
          -88 469 686 -81 callgsubr
          -232 -227 -102 callsubr
          -27 -735 -105 callgsubr
          endchar
        </CharString>
        <CharString name="uni1EC2">
          23 538 831 rmoveto
          -99 callgsubr
          -40 callgsubr
          hvcurveto
          -14 hlineto
          -301 -154 -81 callsubr
        </CharString>
        <CharString name="uni1EC3">
          -88 443 686 rmoveto
          -99 callgsubr
          -40 callgsubr
          hvcurveto
          -14 hlineto
          -301 -154 -102 callsubr
          -27 -735 -105 callgsubr
          endchar
        </CharString>
        <CharString name="uni1EC4">
          23 274 912 rmoveto
          -65 callgsubr
          18 -102 callgsubr
          -27 -179 -81 callsubr
        </CharString>
        <CharString name="uni1EC5">
          -88 179 767 rmoveto
          -65 callgsubr
          18 -102 callgsubr
          -27 -179 -102 callsubr
          -27 -735 -105 callgsubr
          endchar
        </CharString>
        <CharString name="uni1EC6">
          23 247 733 -80 callsubr
          65 -859 -92 callgsubr
          endchar
        </CharString>
        <CharString name="uni1EC7">
          -88 -14 callgsubr
          -27 -735 -105 callgsubr
          -251 -492 -92 callgsubr
          endchar
        </CharString>
        <CharString name="uni1EC8">
          -366 179 736 rmoveto
          -99 callgsubr
          -40 callgsubr
          hvcurveto
          -14 hlineto
          -172 -792 rmoveto
          -67 callsubr
          endchar
        </CharString>
        <CharString name="uni1EC9">
          -366 154 591 rmoveto
          -99 callgsubr
          -40 callgsubr
          hvcurveto
          -14 hlineto
          -143 -647 -66 callgsubr
        </CharString>
        <CharString name="uni1ECA">
          -366 17 hmoveto
          -67 callsubr
          -147 -859 -92 callgsubr
          endchar
        </CharString>
        <CharString name="uni1ECB">
          -27 callsubr
          -123 -699 -92 callgsubr
          endchar
        </CharString>
        <CharString name="uni1ECC">
          134 342 -11 -107 callsubr
          -88 -270 -92 callgsubr
          endchar
        </CharString>
        <CharString name="uni1ECD">
          255 -12 -106 callsubr
          -104 -260 -92 callgsubr
          endchar
        </CharString>
        <CharString name="uni1ECE">
          134 407 736 rmoveto
          -99 callgsubr
          -40 callgsubr
          hvcurveto
          -14 hlineto
          -75 -803 -107 callsubr
          endchar
        </CharString>
        <CharString name="uni1ECF">
          294 591 rmoveto
          -99 callgsubr
          -40 callgsubr
          hvcurveto
          -14 hlineto
          -49 -659 -106 callgsubr
        </CharString>
        <CharString name="uni1ED0">
          134 544 831 -93 callgsubr
          -376 -230 -102 callsubr
          -59 -879 -107 callsubr
          endchar
        </CharString>
        <CharString name="uni1ED1">
          431 686 -93 callgsubr
          -376 -230 -102 callsubr
          -33 -735 -106 callgsubr
        </CharString>
        <CharString name="uni1ED2">
          134 589 831 -81 callgsubr
          -232 -227 -102 callsubr
          -59 -879 -107 callsubr
          endchar
        </CharString>
        <CharString name="uni1ED3">
          476 686 -81 callgsubr
          -232 -227 -102 callsubr
          -33 -735 -106 callgsubr
        </CharString>
        <CharString name="uni1ED4">
          134 563 831 rmoveto
          -99 callgsubr
          -40 callgsubr
          hvcurveto
          -14 hlineto
          -301 -154 -102 callsubr
          -59 -879 -107 callsubr
          endchar
        </CharString>
        <CharString name="uni1ED5">
          450 686 rmoveto
          -99 callgsubr
          -40 callgsubr
          hvcurveto
          -14 hlineto
          -301 -154 -102 callsubr
          -33 -735 -106 callgsubr
        </CharString>
        <CharString name="uni1ED6">
          134 299 912 rmoveto
          -65 callgsubr
          18 -102 callgsubr
          -27 -179 -102 callsubr
          -59 -879 -107 callsubr
          endchar
        </CharString>
        <CharString name="uni1ED7">
          186 767 rmoveto
          -65 callgsubr
          18 -102 callgsubr
          -27 -179 -102 callsubr
          -33 -735 -106 callgsubr
        </CharString>
        <CharString name="uni1ED8">
          134 272 -75 callsubr
          -59 -879 -107 callsubr
          -88 -270 -92 callgsubr
          endchar
        </CharString>
        <CharString name="uni1ED9">
          159 -73 callsubr
          -33 -735 -106 callsubr
          -104 -260 -92 callgsubr
          endchar
        </CharString>
        <CharString name="uni1EDA">
          134 617 865 -56 callsubr
          245 92 -99 callsubr
          endchar
        </CharString>
        <CharString name="uni1EDB">
          504 720 -56 callsubr
          161 95 -98 callsubr
          endchar
        </CharString>
        <CharString name="uni1EDC">
          134 484 736 -52 callsubr
          340 92 -99 callsubr
          endchar
        </CharString>
        <CharString name="uni1EDD">
          371 591 -52 callsubr
          256 95 -98 callsubr
          endchar
        </CharString>
        <CharString name="uni1EDE">
          134 465 815 rmoveto
          -40 callgsubr
          vhcurveto
          -14 hlineto
          -10 -56 rlineto
          -99 callgsubr
          hvcurveto
          268 13 -99 callsubr
          endchar
        </CharString>
        <CharString name="uni1EDF">
          352 670 rmoveto
          -40 callgsubr
          vhcurveto
          -14 hlineto
          -10 -56 rlineto
          -99 callgsubr
          hvcurveto
          184 16 -98 callsubr
          endchar
        </CharString>
        <CharString name="uni1EE0">
          134 382 787 rmoveto
          -102 callgsubr
          -65 callgsubr
          18 hhcurveto
          351 41 -99 callsubr
          endchar
        </CharString>
        <CharString name="uni1EE1">
          269 642 rmoveto
          -102 callgsubr
          -65 callgsubr
          18 hhcurveto
          267 44 -98 callsubr
          endchar
        </CharString>
        <CharString name="uni1EE2">
          134 733 828 -99 callsubr
          -350 -509 -92 callgsubr
          endchar
        </CharString>
        <CharString name="uni1EE3">
          536 686 -98 callsubr
          -264 -435 -92 callgsubr
          endchar
        </CharString>
        <CharString name="uni1EE4">
          78 322 -12 -104 callsubr
          -97 -161 -92 callgsubr
          endchar
        </CharString>
        <CharString name="uni1EE5">
          188 -12 -103 callgsubr
          -28 -161 -92 callgsubr
          endchar
        </CharString>
        <CharString name="uni1EE6">
          78 410 736 rmoveto
          -99 callgsubr
          -40 callgsubr
          hvcurveto
          -14 hlineto
          -98 -804 -104 callsubr
          endchar
        </CharString>
        <CharString name="uni1EE7">
          311 591 rmoveto
          -99 callgsubr
          -40 callgsubr
          hvcurveto
          -14 hlineto
          -133 -659 -103 callgsubr
          endchar
        </CharString>
        <CharString name="uni1EE8">
          -87 callgsubr
          -239 -3 -56 callsubr
          endchar
        </CharString>
        <CharString name="uni1EE9">
          -86 callgsubr
          -188 -3 -56 callsubr
          endchar
        </CharString>
        <CharString name="uni1EEA">
          -87 callgsubr
          -372 -132 -52 callsubr
          endchar
        </CharString>
        <CharString name="uni1EEB">
          -86 callgsubr
          -321 -132 -52 callsubr
          endchar
        </CharString>
        <CharString name="uni1EEC">
          78 468 815 rmoveto
          -40 callgsubr
          vhcurveto
          -14 hlineto
          -10 -56 rlineto
          -99 callgsubr
          hvcurveto
          256 53 -86 callsubr
          endchar
        </CharString>
        <CharString name="uni1EED">
          369 670 rmoveto
          -40 callgsubr
          vhcurveto
          -14 hlineto
          -10 -56 rlineto
          -99 callgsubr
          hvcurveto
          205 53 -85 callsubr
          endchar
        </CharString>
        <CharString name="uni1EEE">
          -87 callgsubr
          -474 -81 rmoveto
          -102 callgsubr
          -65 callgsubr
          18 hhcurveto
          endchar
        </CharString>
        <CharString name="uni1EEF">
          -86 callgsubr
          -423 -81 rmoveto
          -102 callgsubr
          -65 callgsubr
          18 hhcurveto
          endchar
        </CharString>
        <CharString name="uni1EF0">
          -87 callgsubr
          -634 -1041 -92 callgsubr
          endchar
        </CharString>
        <CharString name="uni1EF1">
          -86 callgsubr
          -549 -896 -92 callgsubr
          endchar
        </CharString>
        <CharString name="uni1EF4">
          23 211 hmoveto
          -83 callgsubr
          -75 -452 -92 callgsubr
          endchar
        </CharString>
        <CharString name="uni1EF5">
          -107 55 -182 -95 callsubr
          226 9 -92 callgsubr
          endchar
        </CharString>
        <CharString name="uni1EF6">
          23 382 736 rmoveto
          -99 callgsubr
          -40 callgsubr
          hvcurveto
          -14 hlineto
          -181 -792 rmoveto
          -83 callgsubr
          endchar
        </CharString>
        <CharString name="uni1EF7">
          -107 283 591 rmoveto
          -99 callgsubr
          -40 callgsubr
          hvcurveto
          -14 hlineto
          -238 -829 -95 callsubr
          endchar
        </CharString>
        <CharString name="uni1EF8">
          23 251 752 rmoveto
          -65 callgsubr
          18 -102 callgsubr
          -40 -752 rmoveto
          -83 callgsubr
          endchar
        </CharString>
        <CharString name="uni1EF8.loclGUA">
          23 258 752 rmoveto
          -65 callgsubr
          18 -102 callgsubr
          19 -764 -98 callgsubr
        </CharString>
        <CharString name="uni1EF9">
          -107 152 607 rmoveto
          -65 callgsubr
          18 -102 callgsubr
          -97 -789 -95 callsubr
          endchar
        </CharString>
        <CharString name="uni1EF9.loclGUA">
          191 607 rmoveto
          -65 callgsubr
          18 -102 callgsubr
          23 -789 -96 callgsubr
        </CharString>
        <CharString name="uni2015">
          -4 callgsubr
        </CharString>
        <CharString name="uni203E">
          -311 63 790 rmoveto
          363 hlineto
          15 88 rlineto
          -363 hlineto
          endchar
        </CharString>
        <CharString name="uni207F">
          -259 60 399 rmoveto
          78 hlineto
          32 181 rlineto
          58 11 39 33 44 hhcurveto
          26 16 -11 -32 -8 -1 -9 -2 -10 hvcurveto
          -36 -202 rlineto
          78 hlineto
          37 207 rlineto
          3 17 2 15 14 vvcurveto
          61 -41 23 -53 -43 -39 -20 -32 -24 vhcurveto
          -5 45 -63 hlineto
          endchar
        </CharString>
        <CharString name="uni20B2">
          -54 545 422 rmoveto
          2 13 1 12 11 vvcurveto
          104 -90 52 -109 4 vhcurveto
          19 105 rlineto
          -51 hlineto
          -19 -107 -135 -13 -94 -86 -29 -166 rlinecurve
          -3 -24 -2 -23 -21 vvcurveto
          -128 71 -69 96 -15 vhcurveto
          -21 -120 rlineto
          51 hlineto
          21 117 50 2 49 14 38 35 rlinecurve
          3 -46 rlineto
          91 hlineto
          50 288 rlineto
          -193 hlineto
          -19 -107 rlineto
          65 -2 hlineto
          -5 -40 -48 -34 -62 -2 58 334 rcurveline
          58 32 -26 -45 -6 0 -5 -1 -6 hvcurveto
          -261 -142 rmoveto
          14 2 18 2 16 vhcurveto
          5 25 14 85 39 49 58 16 rlinecurve
          -56 -322 rlineto
          -43 12 -21 31 56 vvcurveto
          endchar
        </CharString>
        <CharString name="uni2105">
          241 225 318 rmoveto
          92 55 56 92 14 hvcurveto
          -86 hlineto
          -49 -8 -25 -28 -43 hhcurveto
          -42 -19 22 46 13 1 16 5 25 hvcurveto
          80 15 28 35 51 hhcurveto
          34 17 -17 -33 -7 -1 -10 -1 -9 hvcurveto
          90 hlineto
          2 14 1 12 12 vvcurveto
          73 -52 37 -91 -113 -54 -75 -111 -19 vhcurveto
          -4 -22 -1 -20 -20 vvcurveto
          -91 51 -41 103 vhcurveto
          -147 -330 rmoveto
          89 hlineto
          632 710 rlineto
          -89 hlineto
          -82 -710 rmoveto
          138 60 106 137 93 -56 44 -109 -138 -59 -107 -137 -93 55 -43 109 hvcurveto
          -4 72 rmoveto
          -47 -21 21 48 13 2 15 4 24 hvcurveto
          80 14 31 35 58 hhcurveto
          47 21 -22 -48 -13 -1 -15 -4 -24 hvcurveto
          -80 -14 -31 -34 -59 hhcurveto
          endchar
        </CharString>
        <CharString name="uni2113">
          -213 199 -12 rmoveto
          39 32 9 17 34 hvcurveto
          16 93 rlineto
          -18 -28 -32 -12 -37 hhcurveto
          -34 -25 21 56 14 1 13 3 17 hvcurveto
          11 62 rlineto
          146 125 97 127 114 vvcurveto
          69 -41 40 -76 -75 -80 -56 -171 -30 vhcurveto
          -44 -248 -19 -15 -17 -13 -16 -11 rlinecurve
          -15 -83 53 36 rlineto
          -4 -17 -1 -20 -14 vvcurveto
          -78 40 -57 102 vhcurveto
          -3 371 rmoveto
          26 149 rlineto
          113 19 40 37 30 hhcurveto
          23 10 -16 -29 -80 -66 -91 -82 -83 hvcurveto
          endchar
        </CharString>
        <CharString name="uni2116">
          456 882 304 rmoveto
          53 45 13 33 33 hvcurveto
          43 43 24 82 89 vvcurveto
          92 -51 42 -98 -46 -44 -11 -27 -32 vhcurveto
          -50 -41 -27 -74 -108 vvcurveto
          -91 50 -42 100 vhcurveto
          -870 -304 rmoveto
          123 hlineto
          72 409 10 69 5 1 9 -20 11 -24 9 -17 rlinecurve
          213 -418 rlineto
          121 -51 callgsubr
          -123 hlineto
          -74 -421 -3 -13 -3 -26 -2 -14 rlinecurve
          -5 hlineto
          -10 23 -10 22 -6 12 -216 417 rcurveline
          -121 hlineto
          752 -307 rmoveto
          -39 -18 22 48 14 1 16 5 25 hvcurveto
          82 14 29 37 51 hhcurveto
          38 19 -21 -46 -15 -3 -17 -4 -26 hvcurveto
          -82 -15 -27 -37 -51 hhcurveto
          -187 -197 rmoveto
          306 hlineto
          14 81 rlineto
          -306 hlineto
          endchar
        </CharString>
        <CharString name="uni2126">
          -62 callgsubr
        </CharString>
        <CharString name="uni2153">
          190 52 -11 callsubr
          -674 -369 rmoveto
          237 hlineto
          12 69 rlineto
          -77 hlineto
          52 288 rlineto
          -39 hlineto
          -38 -20 -57 -16 -34 -4 -9 -49 rcurveline
          85 hlineto
          -36 -199 rlineto
          -84 hlineto
          554 -410 -32 callgsubr
          6 23 14 26 hhcurveto
          23 16 -9 -23 -38 -32 -17 -32 1 callgsubr
          -18 -33 -30 -17 13 -12 callsubr
          endchar
        </CharString>
        <CharString name="uni2154">
          190 40 331 rmoveto
          254 -2 callgsubr
          -157 hlineto
          43 44 148 48 114 vvcurveto
          46 -25 47 -85 -76 -26 callsubr
          29 10 -18 -17 -85 -198 -33 -22 -126 hvcurveto
          15 -367 -35 callgsubr
          -113 -710 -32 callsubr
          5 23 14 26 hhcurveto
          23 17 -9 -23 -38 -33 -17 -31 hvcurveto
          -27 hlineto
          -11 -64 rlineto
          31 hlineto
          27 22 -8 -28 -40 -28 -18 -33 -29 -17 13 23 4 0 4 3 13 hvcurveto
          -77 hlineto
          -3 -15 0 -11 -7 vvcurveto
          -54 42 -33 81 vhcurveto
          endchar
        </CharString>
        <CharString name="uni2206">
          -32 -41 hmoveto
          585 hlineto
          -157 698 rlineto
          -318 -637 rmoveto
          262 427 98 -427 rlineto
          endchar
        </CharString>
        <CharString name="uni2215">
          -5 callsubr
        </CharString>
        <CharString name="uni2219">
          -294 165 189 rmoveto
          40 29 32 37 35 -28 28 -35 -41 -28 -32 -38 -34 27 -28 36 hvcurveto
          endchar
        </CharString>
        <CharString name="uniA78B">
          -439 30 207 rmoveto
          76 hlineto
          111 366 19 113 -7 callgsubr
        </CharString>
        <CharString name="uniA78C">
          -461 43 287 rmoveto
          73 hlineto
          98 316 21 120 rlineto
          -116 hlineto
          endchar
        </CharString>
        <CharString name="uogonek">
          365 -31 callgsubr
          9 54 rlineto
          -25 hlineto
          -30 -13 14 19 36 41 24 47 21 hvcurveto
          -60 callgsubr
          -50 -283 rlineto
          -97 -17 -66 -54 -73 hhcurveto
          -43 -28 17 50 14 2 17 4 18 hvcurveto
          56 318 -80 callgsubr
          -58 -325 -23 callsubr
          -5 -26 -24 vvcurveto
          -97 67 -37 86 -9 callgsubr
          vhcurveto
          7 -70 hlineto
          -49 -22 -44 -34 -52 vvcurveto
          -57 46 -18 44 vhcurveto
          endchar
        </CharString>
        <CharString name="uring">
          339 559 -63 callgsubr
          -156 -624 -103 callgsubr
          endchar
        </CharString>
        <CharString name="utilde">
          180 607 rmoveto
          -65 callgsubr
          18 -102 callgsubr
          8 -619 -103 callgsubr
          endchar
        </CharString>
        <CharString name="v">
          -107 150 hmoveto
          125 hlineto
          288 -13 callsubr
          -126 hlineto
          -127 -239 rlineto
          -28 -53 -43 -107 0 vvcurveto
          -5 hlineto
          0 -13 113 -9 47 vhcurveto
          -43 239 -44 callsubr
          endchar
        </CharString>
        <CharString name="w">
          115 107 hmoveto
          -88 callsubr
        </CharString>
        <CharString name="wacute">
          115 377 591 -93 callgsubr
          -374 -723 rmoveto
          -88 callsubr
        </CharString>
        <CharString name="wcircumflex">
          115 262 -73 callsubr
          -284 -723 rmoveto
          -88 callsubr
        </CharString>
        <CharString name="wdieresis">
          115 278 -71 callsubr
          -392 -723 rmoveto
          -88 callsubr
        </CharString>
        <CharString name="wgrave">
          115 383 591 -81 callgsubr
          -191 -720 rmoveto
          -88 callsubr
        </CharString>
        <CharString name="x">
          -107 -51 hmoveto
          139 hlineto
          153 180 rlineto
          6 hlineto
          90 -180 rlineto
          134 hlineto
          -145 269 228 257 rlineto
          -139 hlineto
          -139 -166 rlineto
          -6 hlineto
          -83 166 rlineto
          -133 hlineto
          136 -253 rlineto
          endchar
        </CharString>
        <CharString name="y">
          -107 55 -182 -95 callsubr
          endchar
        </CharString>
        <CharString name="y.loclGUA">
          214 -182 -96 callgsubr
        </CharString>
        <CharString name="yacute">
          -107 263 591 -93 callgsubr
          -312 -905 -95 callsubr
          endchar
        </CharString>
        <CharString name="yacute.loclGUA">
          302 591 -93 callgsubr
          -192 -905 -96 callgsubr
        </CharString>
        <CharString name="ycircumflex">
          -107 148 -73 callsubr
          -222 -905 -95 callsubr
          endchar
        </CharString>
        <CharString name="ycircumflex.loclGUA">
          187 -73 callsubr
          -102 -905 -96 callgsubr
        </CharString>
        <CharString name="ydieresis">
          -107 164 -71 callsubr
          -330 -905 -95 callsubr
          endchar
        </CharString>
        <CharString name="ydieresis.loclGUA">
          203 -71 callsubr
          -210 -905 -96 callgsubr
        </CharString>
        <CharString name="yen">
          -88 160 hmoveto
          -54 callsubr
          26 151 rlineto
          189 hlineto
          13 76 rlineto
          -189 hlineto
          13 70 rlineto
          189 hlineto
          13 75 rlineto
          -158 hlineto
          11 16 24 29 24 31 179 238 rcurveline
          -131 hlineto
          -134 -189 -23 -32 -23 -35 -9 -14 rlinecurve
          -5 hlineto
          -5 14 -9 33 -14 35 -68 188 rcurveline
          -131 hlineto
          96 -229 13 -32 16 -34 7 -19 rlinecurve
          -22 callsubr
          -13 -75 rlineto
          192 hlineto
          -13 -70 rlineto
          -192 hlineto
          -12 -76 rlineto
          191 hlineto
          endchar
        </CharString>
        <CharString name="ygrave">
          -107 269 591 -81 callgsubr
          -129 -902 -95 callsubr
          endchar
        </CharString>
        <CharString name="ygrave.loclGUA">
          308 591 -81 callgsubr
          -9 -902 -96 callgsubr
        </CharString>
        <CharString name="z">
          -144 -25 hmoveto
          -83 callsubr
          endchar
        </CharString>
        <CharString name="zacute">
          -144 256 591 -93 callgsubr
          -385 -723 rmoveto
          -83 callsubr
          endchar
        </CharString>
        <CharString name="zacute.loclPLK">
          -144 248 591 -59 callsubr
          -321 -723 rmoveto
          -83 callsubr
          endchar
        </CharString>
        <CharString name="zcaron">
          -144 253 588 -93 callsubr
          -196 -723 rmoveto
          -83 callsubr
          endchar
        </CharString>
        <CharString name="zdotaccent">
          -144 250 -45 callsubr
          -296 -724 rmoveto
          -83 callsubr
          endchar
        </CharString>
        <CharString name="zero">
          -88 236 -12 rmoveto
          139 98 76 279 47 hvcurveto
          10 57 5 48 41 vvcurveto
          161 -79 48 -128 -141 -97 -76 -279 -46 vhcurveto
          -10 -58 -5 -49 -41 vvcurveto
          -159 79 -48 128 vhcurveto
          -3 98 rmoveto
          -61 -23 36 72 33 5 42 18 97 hvcurveto
          155 28 33 79 97 hhcurveto
          62 22 -37 -71 -34 -5 -42 -17 -96 hvcurveto
          -155 -29 -32 -79 -98 hhcurveto
          endchar
        </CharString>
      <CharString index="0">
        rmoveto
        5 callsubr
        vhcurveto
        -99 hlineto
        -31 -61 rlineto
        -6 hlineto
        49 -29 -45 24 -73 hhcurveto
        -159 -82 -180 -168 -134 68 -68 102 63 61 30 56 37 hvcurveto
        5 hlineto
        -54 34 -32 52 36 27 9 7 13 vhcurveto
        15 82 rlineto
        -33 hlineto
        -17 -12 8 19 -15 callsubr
        -22 rmoveto
        -61 -26 37 69 101 36 140 111 63 29 -38 -71 -86 -38 -152 -114 hvcurveto
        return
      </CharString>
      <CharString index="1">
        -106 callsubr
        endchar
      </CharString>
      <CharString index="2">
        rmoveto
        121 97 9 callsubr
        -47 -31 -66 hhcurveto
        -77 -33 35 73 13 0 14 3 16 hvcurveto
        359 hlineto
        6 36 rlineto
        6 28 2 -69 callsubr
        -205 -79 -170 -178 -35 callsubr
        157 vhcurveto
        -94 331 rmoveto
        81 22 46 43 77 hhcurveto
        55 36 -26 -63 -10 -1 -13 -2 -12 hvcurveto
        return
      </CharString>
      <CharString index="3">
        135 hlineto
        82 149 rlineto
        316 hlineto
        30 -149 rlineto
        132 hlineto
        -147 -49 callgsubr
        -22 callsubr
        -110 -429 rmoveto
        98 180 22 39 42 83 9 17 rlinecurve
        5 hlineto
        3 -17 13 -83 8 -40 35 -179 rcurveline
        return
      </CharString>
      <CharString index="4">
        rmoveto
        -9 callgsubr
        hvcurveto
        7 -71 97 -63 callsubr
        -50 -283 rlineto
        -97 -17 -66 -54 -73 hhcurveto
        -43 -28 17 50 14 3 17 3 18 hvcurveto
        56 318 -80 callgsubr
        -58 -325 -23 callsubr
        -5 -26 -24 vvcurveto
        -97 67 -37 86 vhcurveto
        return
      </CharString>
      <CharString index="5">
        48 35 -35 52 hhcurveto
        65 35 54 62 11 hvcurveto
        -68 hlineto
        -26 -8 -13 -9 -18 -48 -35 35 -53 hhcurveto
        -64 -35 -54 -62 -10 hvcurveto
        return
      </CharString>
      <CharString index="6">
        rmoveto
        -104 callgsubr
        endchar
      </CharString>
      <CharString index="7">
        rmoveto
        3 16 1 14 15 vvcurveto
        136 -129 65 -165 -118 -95 -37 -65 -68 vhcurveto
        -85 -80 -43 -123 -137 vvcurveto
        -182 104 -86 184 101 73 31 60 67 vhcurveto
        -79 90 vlineto
        65 367 rlineto
        -348 hlineto
        -19 -106 rlineto
        220 -1 hlineto
        -95 -13 -97 -69 -129 hhcurveto
        -110 -56 51 113 29 3 30 9 48 hvcurveto
        141 28 92 82 149 hhcurveto
        88 68 -39 -76 -7 0 -8 -2 -8 hvcurveto
        return
      </CharString>
      <CharString index="8">
        64 hlineto
        5 26 rlineto
        43 3 43 19 45 vvcurveto
        41 -56 10 -42 -23 -34 -3 -5 -24 vhcurveto
        -7 -42 rlineto
        58 hlineto
        20 11 -3 -12 return
      </CharString>
      <CharString index="9">
        rmoveto
        164 109 84 178 30 hvcurveto
        39 220 39 216 -68 callsubr
        -34 -189 rlineto
        -123 -21 -68 -65 -94 hhcurveto
        -65 -36 31 58 10 1 11 3 11 hvcurveto
        45 256 -68 callsubr
        -45 -252 rlineto
        -4 -23 -2 -22 -20 vvcurveto
        -110 61 -58 121 79 64 25 59 46 vhcurveto
        6 hlineto
        -9 -51 rlineto
        -93 -17 -60 -45 -91 hhcurveto
        -81 -33 23 49 hvcurveto
        -131 -9 hlineto
        -116 92 -55 -1 callsubr
      </CharString>
      <CharString index="10">
        rmoveto
        147 150 62 169 hvcurveto
        216 -379 -52 122 vvcurveto
        55 64 30 95 78 49 -29 -49 -4 0 -7 -3 -14 vhcurveto
        126 hlineto
        4 23 1 15 12 vvcurveto
        112 -113 49 -149 -152 -132 -68 -143 vhcurveto
        -216 377 60 -136 vvcurveto
        -59 -55 -40 -119 -90 -54 32 56 12 4 16 2 8 vhcurveto
        -129 hlineto
        -4 -15 -4 -24 -18 vvcurveto
        -120 126 -55 160 vhcurveto
        return
      </CharString>
      <CharString index="11">
        rmoveto
        154 80 81 164 28 hvcurveto
        82 463 3 callgsubr
        -257 rlineto
        -97 -18 -66 -53 -73 hhcurveto
        -43 -27 17 49 15 2 16 3 19 hvcurveto
        52 291 -80 callgsubr
        -53 -299 rlineto
        -6 -29 -4 -26 -23 vvcurveto
        -98 67 -36 86 66 64 34 43 36 vhcurveto
        7 hlineto
        -6 -33 rlineto
        -96 -18 -48 -47 -77 hhcurveto
        -54 -31 16 43 -4 hvcurveto
        -116 -10 hlineto
        -98 1 82 -49 119 hhcurveto
        endchar
      </CharString>
      <CharString index="12">
        rmoveto
        126 118 50 139 hvcurveto
        171 -289 -51 88 vvcurveto
        30 33 28 74 58 29 -21 -34 -5 -1 -7 -1 -3 vhcurveto
        117 hlineto
        1 2 6 21 20 vvcurveto
        74 -81 48 -126 -131 -103 -62 -115 vhcurveto
        -165 289 50 -98 vvcurveto
        -48 -62 -18 -56 -54 -49 17 48 3 1 9 3 7 vhcurveto
        -117 hlineto
        0 -7 -19 -22 vvcurveto
        -80 74 -57 148 vhcurveto
        return
      </CharString>
      <CharString index="13">
        123 hlineto
        73 418 4 19 4 36 2 8 rlinecurve
        5 hlineto
        3 -6 13 -30 13 -24 220 -421 rcurveline
        120 -51 callgsubr
        -123 hlineto
        -73 -417 -3 -14 -5 -38 -1 -7 rlinecurve
        -5 -1 -2 6 -16 34 -9 17 rlinecurve
        -221 420 rlineto
        -122 hlineto
        return
      </CharString>
      <CharString index="14">
        rmoveto
        101 -39 callgsubr
        -42 callsubr
        -125 hlineto
        return
      </CharString>
      <CharString index="15">
        rmoveto
        118 hlineto
        21 118 rlineto
        -118 hlineto
        return
      </CharString>
      <CharString index="16">
        -91 callsubr
        endchar
      </CharString>
      <CharString index="17">
        -97 callsubr
        endchar
      </CharString>
      <CharString index="18">
        rmoveto
        135 81 77 132 21 hvcurveto
        -116 hlineto
        -65 -12 -39 -47 -72 hhcurveto
        -68 -31 36 76 21 2 23 6 35 hvcurveto
        97 18 42 68 87 hhcurveto
        62 24 -34 -51 -9 -1 -9 -1 -9 hvcurveto
        122 hlineto
        2 15 1 15 14 vvcurveto
        105 -75 60 -137 -199 -77 -175 -174 -137 73 -64 152 vhcurveto
        endchar
      </CharString>
      <CharString index="19">
        rmoveto
        80 hlineto
        21 7 24 29 53 hhcurveto
        53 16 -29 -21 -1 hvcurveto
        79 hlineto
        1 6 1 6 6 vvcurveto
        56 -44 56 -91 -128 -40 -69 -61 -10 vhcurveto
        return
      </CharString>
      <CharString index="20">
        78 724 868 -86 callsubr
        return
      </CharString>
      <CharString index="21">
        574 723 -85 callsubr
        return
      </CharString>
      <CharString index="22">
        -77 callsubr
        endchar
      </CharString>
      <CharString index="23">
        rmoveto
        95 hlineto
        -50 132 rlineto
        -120 -17 callsubr
        239 -129 rmoveto
        95 hlineto
        -49 132 rlineto
        -121 -17 callsubr
        return
      </CharString>
      <CharString index="24">
        -25 callgsubr
        49 279 335 407 rlineto
        -142 hlineto
        -237 -293 rlineto
        -5 hlineto
        -139 293 rlineto
        -133 hlineto
        193 -407 rlineto
        return
      </CharString>
      <CharString index="25">
        rmoveto
        132 84 67 140 25 hvcurveto
        87 491 rlineto
        -129 hlineto
        -87 -491 rlineto
        -66 -11 -40 -33 -64 hhcurveto
        -54 -22 23 47 8 2 22 8 30 hvcurveto
        -16 callsubr
        -9 -38 -2 -25 -21 vvcurveto
        -102 73 -52 134 vhcurveto
        endchar
      </CharString>
      <CharString index="26">
        -22 callgsubr
        -58 -29 callgsubr
        -117 hlineto
        -1 -3 rlineto
        return
      </CharString>
      <CharString index="27">
        -70 callsubr
        hlineto
        return
      </CharString>
      <CharString index="28">
        294 hlineto
        114 93 39 67 66 hvcurveto
        72 76 38 110 123 vvcurveto
        186 -110 85 -186 vhcurveto
        -260 hlineto
        26 -577 rmoveto
        82 468 rlineto
        146 hlineto
        110 60 -54 -111 -24 -3 -24 -7 -39 hvcurveto
        -137 -24 -92 -79 -132 hhcurveto
        return
      </CharString>
      <CharString index="29">
        rlineto
        29 5 18 16 29 hhcurveto
        51 hlineto
        15 83 rlineto
        8 -20 -37 7 -31 hhcurveto
        -101 -37 -69 -68 -12 hvcurveto
        -11 -68 rlineto
        -76 hlineto
        -18 -98 rlineto
        76 hlineto
        -82 -467 -50 callgsubr
        -51 -23 callgsubr
        -8 20 37 -7 30 hhcurveto
        return
      </CharString>
      <CharString index="30">
        567 -30 callsubr
        -369 hlineto
        450 515 11 62 rlineto
        -533 hlineto
        -19 -109 rlineto
        334 hlineto
        -450 -516 rlineto
        return
      </CharString>
      <CharString index="31">
        -54 callsubr
        47 270 rlineto
        100 18 53 46 83 hhcurveto
        38 hlineto
        3 callsubr
        0 -20 9 -32 -68 -36 -45 -50 -27 vhcurveto
        -7 hlineto
        2 83 rlineto
        -97 hlineto
        return
      </CharString>
      <CharString index="32">
        205 -12 rmoveto
        61 57 30 52 40 hvcurveto
        6 -70 97 hlineto
        127 723 3 callgsubr
        -258 rlineto
        -6 hlineto
        47 -31 -47 26 -78 hhcurveto
        -164 -83 -178 -164 -145 70 -63 116 hvcurveto
        return
      </CharString>
      <CharString index="33">
        64 hlineto
        74 98 15 86 -44 callsubr
        -17 -96 -21 callsubr
      </CharString>
      <CharString index="34">
        738 -103 callsubr
        return
      </CharString>
      <CharString index="35">
        rmoveto
        85 67 28 51 51 hvcurveto
        -54 36 69 -25 97 hhcurveto
        121 96 9 callsubr
        -46 -31 -65 hhcurveto
        -76 -33 35 73 13 1 14 3 16 hvcurveto
        355 0 callsubr
        -140 -71 -53 -20 -35 -41 vhcurveto
        36 -32 -58 19 -86 hhcurveto
        -130 -103 -65 -103 hvcurveto
        116 hlineto
        3 14 rlineto
        28 5 27 31 81 hhcurveto
        69 19 -24 -34 -7 -1 -7 -1 -8 hvcurveto
        -8 -44 rlineto
        -213 -167 -38 -164 -111 115 -18 75 hvcurveto
        313 331 rmoveto
        81 22 45 43 77 hhcurveto
        54 35 -26 -63 -10 -1 -13 -2 -12 hvcurveto
        -530 -235 rmoveto
        -51 -26 17 32 83 111 18 129 hvcurveto
        -5 -24 rlineto
        -75 -12 -61 -51 -85 hhcurveto
        endchar
      </CharString>
      <CharString index="36">
        758 -96 callsubr
        return
      </CharString>
      <CharString index="37">
        rmoveto
        -68 callgsubr
        return
      </CharString>
      <CharString index="38">
        -22 callgsubr
        71 79 rlineto
        -29 50 65 -13 78 hhcurveto
        112 93 37 64 67 hvcurveto
        85 80 45 123 139 vvcurveto
        79 -23 61 -41 44 vhcurveto
        110 120 rlineto
        -91 hlineto
        -72 -79 rlineto
        28 -50 -66 14 -77 hhcurveto
        -101 -87 -30 -54 -64 hvcurveto
        -96 -80 -52 -131 -149 vvcurveto
        -79 22 -61 41 -43 vhcurveto
        90 98 rmoveto
        -14 25 -7 32 39 vvcurveto
        26 3 27 9 47 vhcurveto
        141 29 93 84 141 hhcurveto
        42 34 -8 -17 27 hvcurveto
        -209 -469 rmoveto
        -42 -34 8 16 -27 hvcurveto
        358 396 rlineto
        15 -25 7 -32 -38 vvcurveto
        -24 -3 -24 -8 -44 vhcurveto
        -146 -26 -96 -87 -144 hhcurveto
        endchar
      </CharString>
      <CharString index="39">
        120 -63 callsubr
        return
      </CharString>
      <CharString index="40">
        rlineto
        -125 hlineto
        return
      </CharString>
      <CharString index="41">
        -70 callgsubr
        endchar
      </CharString>
      <CharString index="42">
        67 hlineto
        26 8 13 9 return
      </CharString>
      <CharString index="43">
        rmoveto
        81 hlineto
        54 64 rlineto
        -18 38 49 -9 61 hhcurveto
        214 74 176 171 60 -15 46 -31 33 hvcurveto
        86 101 rlineto
        -81 hlineto
        -55 -65 rlineto
        19 -39 -49 9 -61 hhcurveto
        -214 -73 -178 -171 -60 16 -46 30 -32 hvcurveto
        85 99 rmoveto
        -4 14 -2 16 18 vvcurveto
        23 2 25 7 36 vhcurveto
        96 20 45 62 94 hhcurveto
        29 23 -6 -10 17 hvcurveto
        -124 -338 rmoveto
        -28 -23 5 10 -18 hvcurveto
        232 273 rlineto
        3 -14 3 -15 -18 vvcurveto
        -27 -4 -29 -9 -39 vhcurveto
        -91 -20 -46 -55 -90 hhcurveto
        endchar
      </CharString>
      <CharString index="44">
        rmoveto
        67 46 51 64 48 -32 36 -56 -69 -44 -53 -63 -47 33 -36 55 hvcurveto
        5 53 rmoveto
        -25 -14 16 21 30 21 26 33 25 15 -16 -22 -30 -24 -25 -31 hvcurveto
        return
      </CharString>
      <CharString index="45">
        139 -25 hmoveto
        323 hlineto
        17 97 rlineto
        -91 18 -51 50 96 vvcurveto
        20 3 21 7 44 vhcurveto
        169 30 91 75 140 hhcurveto
        106 59 -52 -114 -24 -3 -26 -8 -49 hvcurveto
        -23 -140 -77 -67 -116 -22 -17 -96 rcurveline
        324 hlineto
        19 109 rlineto
        -47 hlineto
        -26 -38 -8 -2 -36 hvcurveto
        108 65 74 115 156 vvcurveto
        170 -112 93 -193 -236 -155 -176 -226 -86 34 -66 56 -45 vhcurveto
        3 -39 -36 7 -21 hhcurveto
        -46 hlineto
        endchar
      </CharString>
      <CharString index="46">
        rlineto
        44 hlineto
        28 9 -6 -13 -23 -19 -6 -28 hvcurveto
        -93 hlineto
        -9 -49 rlineto
        -5 29 39 -3 35 hhcurveto
        return
      </CharString>
      <CharString index="47">
        93 -59 callgsubr
        return
      </CharString>
      <CharString index="48">
        526 -80 callgsubr
        return
      </CharString>
      <CharString index="49">
        78 393 686 rmoveto
        -260 hlineto
        -52 -292 rlineto
        -66 hlineto
        -13 -78 rlineto
        66 hlineto
        -56 -316 rlineto
        294 hlineto
        114 93 39 67 66 hvcurveto
        72 76 38 110 123 vvcurveto
        186 -110 85 -186 vhcurveto
        154 -361 rmoveto
        -137 -24 -92 -79 -132 hhcurveto
        -140 hlineto
        36 207 rlineto
        151 hlineto
        14 78 rlineto
        -151 hlineto
        32 183 rlineto
        146 hlineto
        110 60 -54 -111 -24 -3 -24 -7 -39 hvcurveto
        endchar
      </CharString>
      <CharString index="50">
        294 hlineto
        114 93 39 67 66 hvcurveto
        72 76 38 110 123 vvcurveto
        186 -110 85 -186 vhcurveto
        -260 hlineto
        551 -686 rmoveto
        -77 callgsubr
        -536 48 rmoveto
        82 468 rlineto
        146 hlineto
        110 60 -54 -111 -24 -3 -24 -7 -39 hvcurveto
        -137 -24 -92 -79 -132 hhcurveto
        endchar
      </CharString>
      <CharString index="51">
        -107 228 -12 -95 callgsubr
        return
      </CharString>
      <CharString index="52">
        -475 -107 callgsubr
        return
      </CharString>
      <CharString index="53">
        rmoveto
        -54 callsubr
        20 115 -80 callgsubr
        return
      </CharString>
      <CharString index="54">
        -108 hlineto
        return
      </CharString>
      <CharString index="55">
        vvcurveto
        -57 46 -19 44 23 22 5 9 26 vhcurveto
        10 54 rlineto
        -27 hlineto
        -31 -11 17 22 33 26 33 21 17 hvcurveto
        return
      </CharString>
      <CharString index="56">
        -15 callgsubr
        -49 callgsubr
        return
      </CharString>
      <CharString index="57">
        rlineto
        -29 -5 -18 -16 -29 hhcurveto
        return
      </CharString>
      <CharString index="58">
        686 rlineto
        return
      </CharString>
      <CharString index="59">
        -107 13 hmoveto
        -54 callsubr
        28 157 99 78 85 -235 rlineto
        130 hlineto
        -129 319 212 207 rlineto
        -141 hlineto
        -231 -226 return
      </CharString>
      <CharString index="60">
        -128 hlineto
        return
      </CharString>
      <CharString index="61">
        78 12 hmoveto
        -87 callsubr
        return
      </CharString>
      <CharString index="62">
        608 -54 callgsubr
        return
      </CharString>
      <CharString index="63">
        -54 callsubr
        127 723 -80 callgsubr
        return
      </CharString>
      <CharString index="64">
        -33 183 hmoveto
        -38 callsubr
        return
      </CharString>
      <CharString index="65">
        rmoveto
        65 hlineto
        89 2 callsubr
        -125 hlineto
        -23 -127 rlineto
        50 hlineto
        return
      </CharString>
      <CharString index="66">
        -18 callgsubr
        endchar
      </CharString>
      <CharString index="67">
        -16 -9 -7 -25 return
      </CharString>
      <CharString index="68">
        hlineto
        129 return
      </CharString>
      <CharString index="69">
        rmoveto
        92 49 55 65 30 -13 26 -28 16 hvcurveto
        40 22 21 33 36 vvcurveto
        51 -36 39 -78 -81 -50 -53 -61 -26 11 -25 22 -16 vhcurveto
        -50 -20 -21 -37 -43 vvcurveto
        -53 35 -39 87 vhcurveto
        29 222 rmoveto
        return
      </CharString>
      <CharString index="70">
        -12 -35 callgsubr
        -662 -369 rmoveto
        236 hlineto
        12 69 rlineto
        -76 hlineto
        51 288 rlineto
        -39 hlineto
        -38 -20 -56 -16 -34 -4 -9 -49 rcurveline
        84 hlineto
        -35 -199 rlineto
        return
      </CharString>
      <CharString index="71">
        hlineto
        23 -12 callgsubr
        return
      </CharString>
      <CharString index="72">
        rmoveto
        90 hlineto
        671 710 rlineto
        -90 hlineto
        return
      </CharString>
      <CharString index="73">
        -17 -31 hvcurveto
        -27 hlineto
        -11 -64 rlineto
        31 hlineto
        27 22 -8 -28 -40 -28 -17 -33 -30 -16 12 23 4 0 4 2 13 hvcurveto
        -76 hlineto
        -3 -15 0 -11 -7 vvcurveto
        -54 42 -33 81 vhcurveto
        return
      </CharString>
      <CharString index="74">
        -31 callgsubr
        10 54 rlineto
        -27 hlineto
        -31 -11 17 22 33 26 33 21 17 hvcurveto
        4 -75 vlineto
        -35 -26 -39 -36 -56 vvcurveto
        -57 46 -19 44 vhcurveto
        endchar
      </CharString>
      <CharString index="75">
        rmoveto
        74 64 44 72 36 -17 24 -30 14 hvcurveto
        1 4 rlineto
        41 18 27 25 46 vvcurveto
        59 -46 30 -70 -66 -55 -40 -62 -10 vhcurveto
        -2 -14 rlineto
        76 hlineto
        1 7 rlineto
        31 return
      </CharString>
      <CharString index="76">
        -3 callgsubr
        23 22 5 9 26 hvcurveto
        return
      </CharString>
      <CharString index="77">
        13 hmoveto
        -44 callgsubr
        return
      </CharString>
      <CharString index="78">
        132 rlineto
        return
      </CharString>
      <CharString index="79">
        rmoveto
        89 hlineto
        -79 200 150 200 rlineto
        -98 hlineto
        -169 -200 rlineto
        return
      </CharString>
      <CharString index="80">
        rmoveto
        76 hlineto
        13 74 rlineto
        42 hlineto
        11 64 rlineto
        -41 hlineto
        27 158 rlineto
        -43 hlineto
        -14 -33 -19 -34 -16 -26 -11 -65 rcurveline
        -87 hlineto
        34 39 return
      </CharString>
      <CharString index="81">
        110 rlineto
        return
      </CharString>
      <CharString index="82">
        128 hlineto
        return
      </CharString>
      <CharString index="83">
        -20 -173 rmoveto
        -54 callsubr
        41 234 rlineto
        6 hlineto
        -47 31 48 -26 77 hhcurveto
        164 84 178 164 145 return
      </CharString>
      <CharString index="84">
        hlineto
        -15 -83 rlineto
        return
      </CharString>
      <CharString index="85">
        rmoveto
        91 hlineto
        return
      </CharString>
      <CharString index="86">
        -4 callsubr
        97 rlineto
        return
      </CharString>
      <CharString index="87">
        hlineto
        79 123 18 104 rlineto
        -119 hlineto
        -20 -115 rlineto
        return
      </CharString>
      <CharString index="88">
        rmoveto
        -67 -32 38 71 110 43 128 115 67 30 -34 -75 -101 -35 -137 -121 hvcurveto
        endchar
      </CharString>
      <CharString index="89">
        -723 -70 callgsubr
        return
      </CharString>
      <CharString index="90">
        -7 71 -97 hlineto
        return
      </CharString>
      <CharString index="91">
        hlineto
        -7 callsubr
        return
      </CharString>
      <CharString index="92">
        hlineto
        121 return
      </CharString>
      <CharString index="93">
        152 -73 callsubr
        return
      </CharString>
      <CharString index="94">
        -1 3 rlineto
        return
      </CharString>
      <CharString index="95">
        127 rlineto
        return
      </CharString>
      <CharString index="96">
        rlineto
        -29 -5 -17 -16 -29 hhcurveto
        -47 hlineto
        -14 -82 4 callgsubr
        39 -7 4 callsubr
      </CharString>
      <CharString index="97">
        rmoveto
        75 -15 callgsubr
        498 rlineto
        -139 hlineto
        return
      </CharString>
      <CharString index="98">
        69 66 37 46 38 return
      </CharString>
      <CharString index="99">
        88 rrcurveto
        -85 hlineto
        -39 -89 -41 -78 -52 -66 -10 -59 rcurveline
        159 hlineto
        endchar
      </CharString>
      <CharString index="100">
        rlineto
        -122 hlineto
        endchar
      </CharString>
      <CharString index="101">
        -124 hlineto
        return
      </CharString>
      <CharString index="102">
        -385 -24 callsubr
        return
      </CharString>
      <CharString index="103">
        356 -12 225 rmoveto
        999 hlineto
        16 90 rlineto
        -1000 hlineto
        endchar
      </CharString>
      <CharString index="104">
        -182 rmoveto
        return
      </CharString>
      <CharString index="105">
        hlineto
        12 68 rlineto
        return
      </CharString>
      <CharString index="106">
        rmoveto
        255 -2 callgsubr
        -158 hlineto
        43 44 149 48 return
      </CharString>
      <CharString index="107">
        rlineto
        46 hlineto
        return
      </CharString>
      <CharString index="108">
        hvcurveto
        -26 hlineto
        -12 -64 rlineto
        32 hlineto
        26 23 -8 -28 -40 -28 return
      </CharString>
      <CharString index="109">
        -144 150 -207 rmoveto
        21 hlineto
        202 189 10 return
      </CharString>
      <CharString index="110">
        -80 callgsubr
        -45 return
      </CharString>
      <CharString index="111">
        rlineto
        -8 20 return
      </CharString>
      <CharString index="112">
        -88 -16 hmoveto
        485 hlineto
        18 101 rlineto
        -313 hlineto
        return
      </CharString>
      <CharString index="113">
        vhcurveto
        75 45 -60 73 hhcurveto
        94 60 72 0 hvcurveto
        return
      </CharString>
      <CharString index="114">
        hlineto
        43 202 rlineto
        -94 hlineto
        -43 -202 rlineto
        return
      </CharString>
      <CharString index="115">
        -41 callsubr
        8 return
      </CharString>
      <CharString index="116">
        -11 18 37 15 1 18 6 29 hvcurveto
        55 return
      </CharString>
</ttFont>
